<mxfile host="Electron" agent="Mozilla/5.0 (Windows NT 10.0; Win64; x64) AppleWebKit/537.36 (KHTML, like Gecko) draw.io/28.0.6 Chrome/138.0.7204.100 Electron/37.2.3 Safari/537.36" version="28.0.6" pages="8">
  <diagram name="Образец" id="Ow89VB6OdQXJKJpbyg8v">
    <mxGraphModel dx="2852" dy="1698" grid="1" gridSize="10" guides="1" tooltips="1" connect="1" arrows="1" fold="1" page="1" pageScale="1" pageWidth="827" pageHeight="1169" math="0" shadow="0">
      <root>
        <mxCell id="or-cIDb6dHLySNmaWxa7-0" />
        <mxCell id="or-cIDb6dHLySNmaWxa7-1" parent="or-cIDb6dHLySNmaWxa7-0" />
        <mxCell id="Lo3vWnJ25wgXgLUqKITw-3" value="" style="shape=cube;whiteSpace=wrap;html=1;boundedLbl=1;backgroundOutline=1;darkOpacity=0.05;darkOpacity2=0.1;size=30;" parent="or-cIDb6dHLySNmaWxa7-1" vertex="1">
          <mxGeometry x="246.5" y="224" width="120" height="80" as="geometry" />
        </mxCell>
        <mxCell id="or-cIDb6dHLySNmaWxa7-2" value="" style="shape=cylinder3;whiteSpace=wrap;html=1;boundedLbl=1;backgroundOutline=1;size=15;" parent="or-cIDb6dHLySNmaWxa7-1" vertex="1">
          <mxGeometry x="276" y="170" width="60" height="80" as="geometry" />
        </mxCell>
        <mxCell id="or-cIDb6dHLySNmaWxa7-3" value="" style="endArrow=none;html=1;rounded=0;strokeWidth=3.1496;strokeColor=#000000;" parent="or-cIDb6dHLySNmaWxa7-1" edge="1">
          <mxGeometry width="50" height="50" relative="1" as="geometry">
            <mxPoint x="305.86" y="190" as="sourcePoint" />
            <mxPoint x="305.85950088480297" y="130" as="targetPoint" />
          </mxGeometry>
        </mxCell>
        <mxCell id="or-cIDb6dHLySNmaWxa7-4" value="" style="shape=cylinder3;whiteSpace=wrap;html=1;boundedLbl=1;backgroundOutline=1;size=17.594202898550805;rotation=-180;" parent="or-cIDb6dHLySNmaWxa7-1" vertex="1">
          <mxGeometry x="281" y="80" width="50" height="50" as="geometry" />
        </mxCell>
        <mxCell id="or-cIDb6dHLySNmaWxa7-5" value="" style="endArrow=none;html=1;rounded=0;strokeWidth=3.1496;strokeColor=#000000;exitX=1;exitY=0.5;exitDx=0;exitDy=0;exitPerimeter=0;entryX=0;entryY=0.5;entryDx=0;entryDy=0;entryPerimeter=0;" parent="or-cIDb6dHLySNmaWxa7-1" edge="1">
          <mxGeometry width="50" height="50" relative="1" as="geometry">
            <mxPoint x="386.0000000000001" y="113" as="sourcePoint" />
            <mxPoint x="331" y="113" as="targetPoint" />
          </mxGeometry>
        </mxCell>
        <mxCell id="or-cIDb6dHLySNmaWxa7-6" value="" style="group;rotation=0;strokeColor=none;" parent="or-cIDb6dHLySNmaWxa7-1" vertex="1" connectable="0">
          <mxGeometry x="496" y="93" width="66.5" height="40" as="geometry" />
        </mxCell>
        <mxCell id="or-cIDb6dHLySNmaWxa7-7" value="" style="ellipse;whiteSpace=wrap;html=1;aspect=fixed;rotation=-90;" parent="or-cIDb6dHLySNmaWxa7-6" vertex="1">
          <mxGeometry x="-5" y="15" width="10" height="10" as="geometry" />
        </mxCell>
        <mxCell id="or-cIDb6dHLySNmaWxa7-8" value="" style="endArrow=none;html=1;rounded=0;entryX=0;entryY=1;entryDx=0;entryDy=0;" parent="or-cIDb6dHLySNmaWxa7-6" target="or-cIDb6dHLySNmaWxa7-7" edge="1">
          <mxGeometry width="50" height="50" relative="1" as="geometry">
            <mxPoint x="15" y="35" as="sourcePoint" />
            <mxPoint x="-15" y="-5" as="targetPoint" />
          </mxGeometry>
        </mxCell>
        <mxCell id="or-cIDb6dHLySNmaWxa7-9" value="" style="endArrow=none;html=1;rounded=0;entryX=1;entryY=1;entryDx=0;entryDy=0;" parent="or-cIDb6dHLySNmaWxa7-6" target="or-cIDb6dHLySNmaWxa7-7" edge="1">
          <mxGeometry width="50" height="50" relative="1" as="geometry">
            <mxPoint x="15" y="5" as="sourcePoint" />
            <mxPoint x="14" y="14" as="targetPoint" />
          </mxGeometry>
        </mxCell>
        <mxCell id="or-cIDb6dHLySNmaWxa7-10" value="" style="endArrow=none;html=1;rounded=0;" parent="or-cIDb6dHLySNmaWxa7-6" edge="1">
          <mxGeometry width="50" height="50" relative="1" as="geometry">
            <mxPoint x="35" y="35" as="sourcePoint" />
            <mxPoint x="15" y="35" as="targetPoint" />
          </mxGeometry>
        </mxCell>
        <mxCell id="or-cIDb6dHLySNmaWxa7-11" value="" style="endArrow=none;html=1;rounded=0;" parent="or-cIDb6dHLySNmaWxa7-6" edge="1">
          <mxGeometry width="50" height="50" relative="1" as="geometry">
            <mxPoint x="35" y="5" as="sourcePoint" />
            <mxPoint x="15" y="5" as="targetPoint" />
          </mxGeometry>
        </mxCell>
        <mxCell id="CTNH63TeZw-X_amzBhDM-29" value="" style="group" parent="or-cIDb6dHLySNmaWxa7-6" vertex="1" connectable="0">
          <mxGeometry x="-17" y="-43" width="86.5" height="86" as="geometry" />
        </mxCell>
        <mxCell id="CTNH63TeZw-X_amzBhDM-18" value="" style="group" parent="CTNH63TeZw-X_amzBhDM-29" vertex="1" connectable="0">
          <mxGeometry x="12.5" y="58" width="10" height="10" as="geometry" />
        </mxCell>
        <mxCell id="CTNH63TeZw-X_amzBhDM-19" value="" style="ellipse;whiteSpace=wrap;html=1;aspect=fixed;strokeColor=none;fillColor=light-dark(#0000FF,#EDEDED);" parent="CTNH63TeZw-X_amzBhDM-18" vertex="1">
          <mxGeometry x="2.5" y="2.5" width="5" height="5" as="geometry" />
        </mxCell>
        <mxCell id="CTNH63TeZw-X_amzBhDM-20" value="" style="ellipse;whiteSpace=wrap;html=1;aspect=fixed;fillColor=none;strokeColor=light-dark(#0000ff, #ededed);strokeWidth=0.5;" parent="CTNH63TeZw-X_amzBhDM-18" vertex="1">
          <mxGeometry width="10" height="10" as="geometry" />
        </mxCell>
        <mxCell id="CTNH63TeZw-X_amzBhDM-21" value="" style="endArrow=classic;html=1;rounded=0;strokeColor=light-dark(#0000FF,#EDEDED);strokeWidth=2;" parent="CTNH63TeZw-X_amzBhDM-29" edge="1">
          <mxGeometry width="50" height="50" relative="1" as="geometry">
            <mxPoint x="22.5" y="62.90000000000009" as="sourcePoint" />
            <mxPoint x="72.5" y="62.90000000000009" as="targetPoint" />
          </mxGeometry>
        </mxCell>
        <mxCell id="CTNH63TeZw-X_amzBhDM-22" value="&lt;font style=&quot;color: light-dark(rgb(0, 0, 255), rgb(237, 237, 237));&quot;&gt;y&lt;span style=&quot;font-size: 8.33333px;&quot;&gt;&lt;sub&gt;3&lt;/sub&gt;&lt;/span&gt;&lt;/font&gt;" style="text;html=1;align=center;verticalAlign=middle;resizable=0;points=[];autosize=1;strokeColor=none;fillColor=none;" parent="CTNH63TeZw-X_amzBhDM-29" vertex="1">
          <mxGeometry x="11.5" width="30" height="30" as="geometry" />
        </mxCell>
        <mxCell id="CTNH63TeZw-X_amzBhDM-23" value="" style="endArrow=classic;html=1;rounded=0;strokeColor=light-dark(#0000FF,#EDEDED);strokeWidth=2;" parent="CTNH63TeZw-X_amzBhDM-29" edge="1">
          <mxGeometry width="50" height="50" relative="1" as="geometry">
            <mxPoint x="17.379999999999995" y="65" as="sourcePoint" />
            <mxPoint x="17.379999999999995" y="15" as="targetPoint" />
          </mxGeometry>
        </mxCell>
        <mxCell id="CTNH63TeZw-X_amzBhDM-24" value="&lt;font style=&quot;color: light-dark(rgb(0, 0, 255), rgb(237, 237, 237));&quot;&gt;x&lt;span style=&quot;font-size: 10px;&quot;&gt;&lt;sub&gt;3&lt;/sub&gt;&lt;/span&gt;&lt;/font&gt;" style="text;html=1;align=center;verticalAlign=middle;resizable=0;points=[];autosize=1;strokeColor=none;fillColor=none;" parent="CTNH63TeZw-X_amzBhDM-29" vertex="1">
          <mxGeometry x="56.5" y="34" width="30" height="30" as="geometry" />
        </mxCell>
        <mxCell id="CTNH63TeZw-X_amzBhDM-25" value="" style="group" parent="CTNH63TeZw-X_amzBhDM-29" vertex="1" connectable="0">
          <mxGeometry x="-6.25" y="55" width="46.5" height="32" as="geometry" />
        </mxCell>
        <mxCell id="CTNH63TeZw-X_amzBhDM-28" value="&lt;font style=&quot;color: light-dark(rgb(0, 0, 255), rgb(237, 237, 237));&quot;&gt;z&lt;span style=&quot;font-size: 10px;&quot;&gt;&lt;sub&gt;3&lt;/sub&gt;&lt;/span&gt;&lt;/font&gt;" style="text;html=1;align=center;verticalAlign=middle;resizable=0;points=[];autosize=1;strokeColor=none;fillColor=none;" parent="CTNH63TeZw-X_amzBhDM-25" vertex="1">
          <mxGeometry x="11.5" y="2" width="30" height="30" as="geometry" />
        </mxCell>
        <mxCell id="or-cIDb6dHLySNmaWxa7-12" value="" style="endArrow=none;html=1;rounded=0;strokeWidth=3.1496;strokeColor=#000000;exitX=1;exitY=0.5;exitDx=0;exitDy=0;exitPerimeter=0;entryX=0;entryY=0.5;entryDx=0;entryDy=0;entryPerimeter=0;" parent="or-cIDb6dHLySNmaWxa7-1" edge="1">
          <mxGeometry width="50" height="50" relative="1" as="geometry">
            <mxPoint x="491" y="112.69999999999999" as="sourcePoint" />
            <mxPoint x="436" y="112.69999999999999" as="targetPoint" />
          </mxGeometry>
        </mxCell>
        <mxCell id="or-cIDb6dHLySNmaWxa7-13" value="" style="group" parent="or-cIDb6dHLySNmaWxa7-1" vertex="1" connectable="0">
          <mxGeometry x="281" y="176" width="50" height="20" as="geometry" />
        </mxCell>
        <mxCell id="or-cIDb6dHLySNmaWxa7-14" value="" style="verticalLabelPosition=bottom;verticalAlign=top;html=1;shape=mxgraph.basic.arc;startAngle=0.29895082563518965;endAngle=0.49834219596880786;shadow=0;strokeColor=#FF0000;" parent="or-cIDb6dHLySNmaWxa7-13" vertex="1">
          <mxGeometry width="50" height="20" as="geometry" />
        </mxCell>
        <mxCell id="CTNH63TeZw-X_amzBhDM-0" value="" style="group" parent="or-cIDb6dHLySNmaWxa7-13" vertex="1" connectable="0">
          <mxGeometry x="20" y="7" width="10" height="10" as="geometry" />
        </mxCell>
        <mxCell id="CTNH63TeZw-X_amzBhDM-2" value="" style="ellipse;whiteSpace=wrap;html=1;aspect=fixed;fillColor=default;strokeColor=light-dark(#0000ff, #ededed);strokeWidth=0.5;" parent="CTNH63TeZw-X_amzBhDM-0" vertex="1">
          <mxGeometry width="10" height="10" as="geometry" />
        </mxCell>
        <mxCell id="CTNH63TeZw-X_amzBhDM-1" value="" style="ellipse;whiteSpace=wrap;html=1;aspect=fixed;strokeColor=none;fillColor=light-dark(#0000FF,#EDEDED);" parent="CTNH63TeZw-X_amzBhDM-0" vertex="1">
          <mxGeometry x="2.5" y="2.5" width="5" height="5" as="geometry" />
        </mxCell>
        <mxCell id="or-cIDb6dHLySNmaWxa7-16" value="" style="group" parent="or-cIDb6dHLySNmaWxa7-1" vertex="1" connectable="0">
          <mxGeometry x="288.5" y="101" width="45" height="34" as="geometry" />
        </mxCell>
        <mxCell id="or-cIDb6dHLySNmaWxa7-17" value="" style="verticalLabelPosition=bottom;verticalAlign=top;html=1;shape=mxgraph.basic.arc;startAngle=0.3544610871038937;endAngle=0.8957366412670039;shadow=0;strokeColor=#FF0000;rotation=-180;flipH=1;" parent="or-cIDb6dHLySNmaWxa7-16" vertex="1">
          <mxGeometry y="2" width="35" height="20" as="geometry" />
        </mxCell>
        <mxCell id="olGC3rSa40lwH4_2RcKF-2" value="&lt;font style=&quot;color: light-dark(rgb(0, 0, 255), rgb(237, 237, 237));&quot;&gt;z&lt;sub&gt;1&lt;/sub&gt;&lt;/font&gt;" style="text;html=1;align=center;verticalAlign=middle;resizable=0;points=[];autosize=1;strokeColor=none;fillColor=none;" parent="or-cIDb6dHLySNmaWxa7-16" vertex="1">
          <mxGeometry x="5" y="4" width="40" height="30" as="geometry" />
        </mxCell>
        <mxCell id="or-cIDb6dHLySNmaWxa7-22" value="&lt;font style=&quot;color: rgb(255, 0, 0);&quot;&gt;q&lt;sub&gt;1&lt;/sub&gt;&lt;/font&gt;" style="text;html=1;align=center;verticalAlign=middle;resizable=0;points=[];autosize=1;strokeColor=none;fillColor=none;" parent="or-cIDb6dHLySNmaWxa7-1" vertex="1">
          <mxGeometry x="302" y="190" width="40" height="30" as="geometry" />
        </mxCell>
        <mxCell id="or-cIDb6dHLySNmaWxa7-23" value="&lt;font style=&quot;color: rgb(255, 0, 0);&quot;&gt;q&lt;sub&gt;2&lt;/sub&gt;&lt;/font&gt;" style="text;html=1;align=center;verticalAlign=middle;resizable=0;points=[];autosize=1;strokeColor=none;fillColor=none;" parent="or-cIDb6dHLySNmaWxa7-1" vertex="1">
          <mxGeometry x="316" y="110" width="40" height="30" as="geometry" />
        </mxCell>
        <mxCell id="or-cIDb6dHLySNmaWxa7-24" value="&lt;font style=&quot;color: rgb(255, 0, 0);&quot;&gt;q&lt;sub&gt;3&lt;/sub&gt;&lt;/font&gt;" style="text;html=1;align=center;verticalAlign=middle;resizable=0;points=[];autosize=1;strokeColor=none;fillColor=none;" parent="or-cIDb6dHLySNmaWxa7-1" vertex="1">
          <mxGeometry x="426" y="105" width="40" height="30" as="geometry" />
        </mxCell>
        <mxCell id="or-cIDb6dHLySNmaWxa7-27" value="" style="shape=cylinder3;whiteSpace=wrap;html=1;boundedLbl=1;backgroundOutline=1;size=17.594202898550805;rotation=-180;" parent="or-cIDb6dHLySNmaWxa7-1" vertex="1">
          <mxGeometry x="386" y="80" width="50" height="50" as="geometry" />
        </mxCell>
        <mxCell id="or-cIDb6dHLySNmaWxa7-28" value="" style="group" parent="or-cIDb6dHLySNmaWxa7-1" vertex="1" connectable="0">
          <mxGeometry x="393.5" y="103" width="46.5" height="30" as="geometry" />
        </mxCell>
        <mxCell id="or-cIDb6dHLySNmaWxa7-29" value="" style="verticalLabelPosition=bottom;verticalAlign=top;html=1;shape=mxgraph.basic.arc;startAngle=0.35859405246174864;endAngle=0.8957366412670039;shadow=0;strokeColor=#FF0000;rotation=-180;flipH=1;" parent="or-cIDb6dHLySNmaWxa7-28" vertex="1">
          <mxGeometry width="35" height="20" as="geometry" />
        </mxCell>
        <mxCell id="or-cIDb6dHLySNmaWxa7-30" value="" style="shape=mxgraph.arrows2.wedgeArrow;html=1;bendable=0;startWidth=2.6829268292682933;fillColor=#FF0000;defaultFillColor=invert;defaultGradientColor=invert;rounded=0;strokeColor=#FF0000;strokeWidth=1;exitX=0.871;exitY=0.8;exitDx=0;exitDy=0;exitPerimeter=0;" parent="or-cIDb6dHLySNmaWxa7-28" source="or-cIDb6dHLySNmaWxa7-29" edge="1">
          <mxGeometry width="100" height="100" relative="1" as="geometry">
            <mxPoint x="35" y="7.5" as="sourcePoint" />
            <mxPoint x="32.5" y="7" as="targetPoint" />
          </mxGeometry>
        </mxCell>
        <mxCell id="olGC3rSa40lwH4_2RcKF-3" value="&lt;font style=&quot;color: light-dark(rgb(0, 0, 255), rgb(237, 237, 237));&quot;&gt;z&lt;sub&gt;2&lt;/sub&gt;&lt;/font&gt;" style="text;html=1;align=center;verticalAlign=middle;resizable=0;points=[];autosize=1;strokeColor=none;fillColor=none;" parent="or-cIDb6dHLySNmaWxa7-28" vertex="1">
          <mxGeometry x="6.5" y="2" width="40" height="30" as="geometry" />
        </mxCell>
        <mxCell id="or-cIDb6dHLySNmaWxa7-35" value="" style="ellipse;whiteSpace=wrap;html=1;aspect=fixed;strokeColor=light-dark(#0000FF,#EDEDED);" parent="or-cIDb6dHLySNmaWxa7-1" vertex="1">
          <mxGeometry x="356" y="160" as="geometry" />
        </mxCell>
        <mxCell id="Lo3vWnJ25wgXgLUqKITw-0" value="1" style="text;html=1;align=center;verticalAlign=middle;resizable=0;points=[];autosize=1;strokeColor=none;fillColor=none;" parent="or-cIDb6dHLySNmaWxa7-1" vertex="1">
          <mxGeometry x="298.5" y="133" width="30" height="30" as="geometry" />
        </mxCell>
        <mxCell id="Lo3vWnJ25wgXgLUqKITw-1" value="2" style="text;html=1;align=center;verticalAlign=middle;resizable=0;points=[];autosize=1;strokeColor=none;fillColor=none;" parent="or-cIDb6dHLySNmaWxa7-1" vertex="1">
          <mxGeometry x="355" y="88" width="30" height="30" as="geometry" />
        </mxCell>
        <mxCell id="Lo3vWnJ25wgXgLUqKITw-2" value="3" style="text;html=1;align=center;verticalAlign=middle;resizable=0;points=[];autosize=1;strokeColor=none;fillColor=none;" parent="or-cIDb6dHLySNmaWxa7-1" vertex="1">
          <mxGeometry x="456" y="105" width="30" height="30" as="geometry" />
        </mxCell>
        <mxCell id="Lo3vWnJ25wgXgLUqKITw-4" value="0" style="text;html=1;align=center;verticalAlign=middle;resizable=0;points=[];autosize=1;strokeColor=none;fillColor=none;" parent="or-cIDb6dHLySNmaWxa7-1" vertex="1">
          <mxGeometry x="306" y="264" width="30" height="30" as="geometry" />
        </mxCell>
        <mxCell id="Lo3vWnJ25wgXgLUqKITw-5" value="&lt;font style=&quot;font-size: 18px; color: rgb(255, 0, 0);&quot;&gt;A&lt;sub&gt;0&lt;/sub&gt;&lt;/font&gt;" style="text;html=1;align=center;verticalAlign=middle;resizable=0;points=[];autosize=1;strokeColor=none;fillColor=none;" parent="or-cIDb6dHLySNmaWxa7-1" vertex="1">
          <mxGeometry x="241.5" y="150" width="40" height="40" as="geometry" />
        </mxCell>
        <mxCell id="Lo3vWnJ25wgXgLUqKITw-6" value="&lt;font style=&quot;font-size: 18px; color: rgb(255, 0, 0);&quot;&gt;A&lt;/font&gt;&lt;font style=&quot;color: rgb(255, 0, 0); font-size: 15px;&quot;&gt;1&lt;/font&gt;" style="text;html=1;align=center;verticalAlign=middle;resizable=0;points=[];autosize=1;strokeColor=none;fillColor=none;" parent="or-cIDb6dHLySNmaWxa7-1" vertex="1">
          <mxGeometry x="246.5" y="78" width="40" height="40" as="geometry" />
        </mxCell>
        <mxCell id="Lo3vWnJ25wgXgLUqKITw-7" value="&lt;font style=&quot;font-size: 18px; color: rgb(255, 0, 0);&quot;&gt;A&lt;/font&gt;&lt;font style=&quot;color: rgb(255, 0, 0); font-size: 15px;&quot;&gt;2&lt;/font&gt;" style="text;html=1;align=center;verticalAlign=middle;resizable=0;points=[];autosize=1;strokeColor=none;fillColor=none;" parent="or-cIDb6dHLySNmaWxa7-1" vertex="1">
          <mxGeometry x="366" y="115" width="40" height="40" as="geometry" />
        </mxCell>
        <mxCell id="olGC3rSa40lwH4_2RcKF-0" value="" style="endArrow=classic;html=1;rounded=0;exitX=0.5;exitY=0;exitDx=0;exitDy=0;strokeColor=light-dark(#0000FF,#EDEDED);strokeWidth=2;" parent="or-cIDb6dHLySNmaWxa7-1" edge="1">
          <mxGeometry width="50" height="50" relative="1" as="geometry">
            <mxPoint x="305.85999999999996" y="190" as="sourcePoint" />
            <mxPoint x="305.85999999999996" y="155" as="targetPoint" />
          </mxGeometry>
        </mxCell>
        <mxCell id="olGC3rSa40lwH4_2RcKF-1" value="&lt;font style=&quot;color: light-dark(rgb(0, 0, 255), rgb(237, 237, 237));&quot;&gt;z&lt;sub&gt;0&lt;/sub&gt;&lt;/font&gt;" style="text;html=1;align=center;verticalAlign=middle;resizable=0;points=[];autosize=1;strokeColor=none;fillColor=none;" parent="or-cIDb6dHLySNmaWxa7-1" vertex="1">
          <mxGeometry x="275" y="140" width="40" height="30" as="geometry" />
        </mxCell>
        <mxCell id="olGC3rSa40lwH4_2RcKF-4" value="" style="group" parent="or-cIDb6dHLySNmaWxa7-1" vertex="1" connectable="0">
          <mxGeometry x="301" y="108" width="10" height="10" as="geometry" />
        </mxCell>
        <mxCell id="olGC3rSa40lwH4_2RcKF-5" value="" style="ellipse;whiteSpace=wrap;html=1;aspect=fixed;strokeColor=none;fillColor=light-dark(#0000FF,#EDEDED);" parent="olGC3rSa40lwH4_2RcKF-4" vertex="1">
          <mxGeometry x="2.5" y="2.5" width="5" height="5" as="geometry" />
        </mxCell>
        <mxCell id="olGC3rSa40lwH4_2RcKF-6" value="" style="ellipse;whiteSpace=wrap;html=1;aspect=fixed;fillColor=none;strokeColor=light-dark(#0000ff, #ededed);strokeWidth=0.5;" parent="olGC3rSa40lwH4_2RcKF-4" vertex="1">
          <mxGeometry width="10" height="10" as="geometry" />
        </mxCell>
        <mxCell id="CTNH63TeZw-X_amzBhDM-4" value="" style="endArrow=classic;html=1;rounded=0;strokeColor=light-dark(#0000FF,#EDEDED);strokeWidth=2;entryX=0.375;entryY=0.83;entryDx=0;entryDy=0;entryPerimeter=0;" parent="or-cIDb6dHLySNmaWxa7-1" target="CTNH63TeZw-X_amzBhDM-6" edge="1">
          <mxGeometry width="50" height="50" relative="1" as="geometry">
            <mxPoint x="306" y="187.89999999999998" as="sourcePoint" />
            <mxPoint x="346" y="187.89999999999998" as="targetPoint" />
          </mxGeometry>
        </mxCell>
        <mxCell id="olGC3rSa40lwH4_2RcKF-11" value="" style="group" parent="or-cIDb6dHLySNmaWxa7-1" vertex="1" connectable="0">
          <mxGeometry x="406" y="108" width="10" height="10" as="geometry" />
        </mxCell>
        <mxCell id="olGC3rSa40lwH4_2RcKF-12" value="" style="ellipse;whiteSpace=wrap;html=1;aspect=fixed;strokeColor=none;fillColor=light-dark(#0000FF,#EDEDED);" parent="olGC3rSa40lwH4_2RcKF-11" vertex="1">
          <mxGeometry x="2.5" y="2.5" width="5" height="5" as="geometry" />
        </mxCell>
        <mxCell id="olGC3rSa40lwH4_2RcKF-13" value="" style="ellipse;whiteSpace=wrap;html=1;aspect=fixed;fillColor=none;strokeColor=light-dark(#0000ff, #ededed);strokeWidth=0.5;" parent="olGC3rSa40lwH4_2RcKF-11" vertex="1">
          <mxGeometry width="10" height="10" as="geometry" />
        </mxCell>
        <mxCell id="CTNH63TeZw-X_amzBhDM-3" value="&lt;font style=&quot;color: light-dark(rgb(0, 0, 255), rgb(237, 237, 237));&quot;&gt;x&lt;sub&gt;0&lt;/sub&gt;&lt;/font&gt;" style="text;html=1;align=center;verticalAlign=middle;resizable=0;points=[];autosize=1;strokeColor=none;fillColor=none;" parent="or-cIDb6dHLySNmaWxa7-1" vertex="1">
          <mxGeometry x="275" y="175" width="40" height="30" as="geometry" />
        </mxCell>
        <mxCell id="or-cIDb6dHLySNmaWxa7-15" value="" style="shape=mxgraph.arrows2.wedgeArrow;html=1;bendable=0;startWidth=1.7592592592592595;fillColor=#FF0000;defaultFillColor=invert;defaultGradientColor=invert;rounded=0;exitX=0.603;exitY=0.067;exitDx=0;exitDy=0;exitPerimeter=0;strokeColor=#FF0000;strokeWidth=1;entryX=0.694;entryY=-0.022;entryDx=0;entryDy=0;entryPerimeter=0;" parent="or-cIDb6dHLySNmaWxa7-1" source="or-cIDb6dHLySNmaWxa7-22" target="or-cIDb6dHLySNmaWxa7-22" edge="1">
          <mxGeometry width="100" height="100" relative="1" as="geometry">
            <mxPoint x="323" y="194" as="sourcePoint" />
            <mxPoint x="325.95" y="189.48000000000002" as="targetPoint" />
          </mxGeometry>
        </mxCell>
        <mxCell id="CTNH63TeZw-X_amzBhDM-6" value="&lt;font style=&quot;color: light-dark(rgb(0, 0, 255), rgb(237, 237, 237));&quot;&gt;y&lt;sub&gt;0&lt;/sub&gt;&lt;/font&gt;" style="text;html=1;align=center;verticalAlign=middle;resizable=0;points=[];autosize=1;strokeColor=none;fillColor=none;" parent="or-cIDb6dHLySNmaWxa7-1" vertex="1">
          <mxGeometry x="351" y="163" width="40" height="30" as="geometry" />
        </mxCell>
        <mxCell id="CTNH63TeZw-X_amzBhDM-7" value="" style="endArrow=classic;html=1;rounded=0;strokeColor=light-dark(#0000FF,#EDEDED);strokeWidth=2;" parent="or-cIDb6dHLySNmaWxa7-1" edge="1">
          <mxGeometry width="50" height="50" relative="1" as="geometry">
            <mxPoint x="306" y="112.92000000000002" as="sourcePoint" />
            <mxPoint x="356" y="112.92000000000002" as="targetPoint" />
          </mxGeometry>
        </mxCell>
        <mxCell id="CTNH63TeZw-X_amzBhDM-8" value="" style="endArrow=classic;html=1;rounded=0;strokeColor=light-dark(#0000FF,#EDEDED);strokeWidth=2;" parent="or-cIDb6dHLySNmaWxa7-1" edge="1">
          <mxGeometry width="50" height="50" relative="1" as="geometry">
            <mxPoint x="416" y="112.90000000000003" as="sourcePoint" />
            <mxPoint x="466" y="112.90000000000003" as="targetPoint" />
          </mxGeometry>
        </mxCell>
        <mxCell id="or-cIDb6dHLySNmaWxa7-18" value="" style="shape=mxgraph.arrows2.wedgeArrow;html=1;bendable=0;startWidth=2.6829268292682933;fillColor=#FF0000;defaultFillColor=invert;defaultGradientColor=invert;rounded=0;strokeColor=#FF0000;strokeWidth=1;exitX=0.837;exitY=0.867;exitDx=0;exitDy=0;exitPerimeter=0;entryX=0.167;entryY=0.052;entryDx=0;entryDy=0;entryPerimeter=0;" parent="or-cIDb6dHLySNmaWxa7-1" source="or-cIDb6dHLySNmaWxa7-17" target="or-cIDb6dHLySNmaWxa7-23" edge="1">
          <mxGeometry width="100" height="100" relative="1" as="geometry">
            <mxPoint x="323.5" y="108.5" as="sourcePoint" />
            <mxPoint x="323.5" y="113.5" as="targetPoint" />
          </mxGeometry>
        </mxCell>
        <mxCell id="CTNH63TeZw-X_amzBhDM-10" value="&lt;font style=&quot;color: light-dark(rgb(0, 0, 255), rgb(237, 237, 237));&quot;&gt;x&lt;sub&gt;1&lt;/sub&gt;&lt;/font&gt;" style="text;html=1;align=center;verticalAlign=middle;resizable=0;points=[];autosize=1;strokeColor=none;fillColor=none;" parent="or-cIDb6dHLySNmaWxa7-1" vertex="1">
          <mxGeometry x="328.5" y="85" width="40" height="30" as="geometry" />
        </mxCell>
        <mxCell id="CTNH63TeZw-X_amzBhDM-11" value="" style="endArrow=classic;html=1;rounded=0;strokeColor=light-dark(#0000FF,#EDEDED);strokeWidth=2;" parent="or-cIDb6dHLySNmaWxa7-1" edge="1">
          <mxGeometry width="50" height="50" relative="1" as="geometry">
            <mxPoint x="305.77" y="115" as="sourcePoint" />
            <mxPoint x="305.77" y="65" as="targetPoint" />
          </mxGeometry>
        </mxCell>
        <mxCell id="CTNH63TeZw-X_amzBhDM-12" value="&lt;font style=&quot;color: light-dark(rgb(0, 0, 255), rgb(237, 237, 237));&quot;&gt;y&lt;span style=&quot;font-size: 10px;&quot;&gt;&lt;sub&gt;1&lt;/sub&gt;&lt;/span&gt;&lt;/font&gt;" style="text;html=1;align=center;verticalAlign=middle;resizable=0;points=[];autosize=1;strokeColor=none;fillColor=none;" parent="or-cIDb6dHLySNmaWxa7-1" vertex="1">
          <mxGeometry x="301" y="50" width="30" height="30" as="geometry" />
        </mxCell>
        <mxCell id="CTNH63TeZw-X_amzBhDM-13" value="&lt;font style=&quot;color: light-dark(rgb(0, 0, 255), rgb(237, 237, 237));&quot;&gt;x&lt;sub&gt;2&lt;/sub&gt;&lt;/font&gt;" style="text;html=1;align=center;verticalAlign=middle;resizable=0;points=[];autosize=1;strokeColor=none;fillColor=none;" parent="or-cIDb6dHLySNmaWxa7-1" vertex="1">
          <mxGeometry x="440" y="88" width="40" height="30" as="geometry" />
        </mxCell>
        <mxCell id="CTNH63TeZw-X_amzBhDM-14" value="&lt;font style=&quot;color: light-dark(rgb(0, 0, 255), rgb(237, 237, 237));&quot;&gt;y&lt;span style=&quot;font-size: 10px;&quot;&gt;&lt;sub&gt;2&lt;/sub&gt;&lt;/span&gt;&lt;/font&gt;" style="text;html=1;align=center;verticalAlign=middle;resizable=0;points=[];autosize=1;strokeColor=none;fillColor=none;" parent="or-cIDb6dHLySNmaWxa7-1" vertex="1">
          <mxGeometry x="405" y="50" width="30" height="30" as="geometry" />
        </mxCell>
        <mxCell id="CTNH63TeZw-X_amzBhDM-15" value="" style="endArrow=classic;html=1;rounded=0;strokeColor=light-dark(#0000FF,#EDEDED);strokeWidth=2;" parent="or-cIDb6dHLySNmaWxa7-1" edge="1">
          <mxGeometry width="50" height="50" relative="1" as="geometry">
            <mxPoint x="410.88" y="115" as="sourcePoint" />
            <mxPoint x="410.88" y="65" as="targetPoint" />
          </mxGeometry>
        </mxCell>
        <mxCell id="kQ3J9-RV-Zy17nbhWXNe-0" value="" style="endArrow=none;html=1;rounded=0;strokeWidth=3.1496;strokeColor=#000000;entryX=0.5;entryY=1;entryDx=0;entryDy=0;" parent="or-cIDb6dHLySNmaWxa7-1" target="kQ3J9-RV-Zy17nbhWXNe-15" edge="1">
          <mxGeometry width="50" height="50" relative="1" as="geometry">
            <mxPoint x="386.86" y="489" as="sourcePoint" />
            <mxPoint x="386.85950088480297" y="429" as="targetPoint" />
          </mxGeometry>
        </mxCell>
        <mxCell id="kQ3J9-RV-Zy17nbhWXNe-1" value="" style="group" parent="or-cIDb6dHLySNmaWxa7-1" vertex="1" connectable="0">
          <mxGeometry x="362" y="501" width="50" height="30" as="geometry" />
        </mxCell>
        <mxCell id="kQ3J9-RV-Zy17nbhWXNe-2" value="" style="verticalLabelPosition=bottom;verticalAlign=top;html=1;shape=mxgraph.basic.arc;startAngle=0.29895082563518965;endAngle=0.49834219596880786;shadow=0;strokeColor=#FF0000;" parent="kQ3J9-RV-Zy17nbhWXNe-1" vertex="1">
          <mxGeometry width="50" height="20" as="geometry" />
        </mxCell>
        <mxCell id="kQ3J9-RV-Zy17nbhWXNe-3" value="" style="group" parent="kQ3J9-RV-Zy17nbhWXNe-1" vertex="1" connectable="0">
          <mxGeometry x="20" y="7" width="10" height="10" as="geometry" />
        </mxCell>
        <mxCell id="kQ3J9-RV-Zy17nbhWXNe-4" value="" style="ellipse;whiteSpace=wrap;html=1;aspect=fixed;fillColor=default;strokeColor=light-dark(#0000ff, #ededed);strokeWidth=0.5;" parent="kQ3J9-RV-Zy17nbhWXNe-3" vertex="1">
          <mxGeometry width="10" height="10" as="geometry" />
        </mxCell>
        <mxCell id="kQ3J9-RV-Zy17nbhWXNe-5" value="" style="ellipse;whiteSpace=wrap;html=1;aspect=fixed;strokeColor=none;fillColor=light-dark(#0000FF,#EDEDED);" parent="kQ3J9-RV-Zy17nbhWXNe-3" vertex="1">
          <mxGeometry x="2.5" y="2.5" width="5" height="5" as="geometry" />
        </mxCell>
        <mxCell id="kQ3J9-RV-Zy17nbhWXNe-6" value="" style="endArrow=none;html=1;rounded=0;dashed=1;dashPattern=1 2;" parent="kQ3J9-RV-Zy17nbhWXNe-1" edge="1">
          <mxGeometry relative="1" as="geometry">
            <mxPoint x="-30" y="11.920000000000016" as="sourcePoint" />
            <mxPoint x="20" y="11.920000000000016" as="targetPoint" />
          </mxGeometry>
        </mxCell>
        <mxCell id="kQ3J9-RV-Zy17nbhWXNe-7" value="&lt;font style=&quot;color: light-dark(rgb(0, 0, 255), rgb(237, 237, 237));&quot;&gt;x&lt;sub&gt;0&lt;/sub&gt;&lt;/font&gt;" style="text;html=1;align=center;verticalAlign=middle;resizable=0;points=[];autosize=1;strokeColor=none;fillColor=none;" parent="kQ3J9-RV-Zy17nbhWXNe-1" vertex="1">
          <mxGeometry x="-4" y="3" width="40" height="30" as="geometry" />
        </mxCell>
        <mxCell id="kQ3J9-RV-Zy17nbhWXNe-8" value="1" style="text;html=1;align=center;verticalAlign=middle;resizable=0;points=[];autosize=1;strokeColor=none;fillColor=none;" parent="or-cIDb6dHLySNmaWxa7-1" vertex="1">
          <mxGeometry x="377" y="438" width="30" height="30" as="geometry" />
        </mxCell>
        <mxCell id="kQ3J9-RV-Zy17nbhWXNe-9" value="&lt;font style=&quot;font-size: 18px; color: rgb(255, 0, 0);&quot;&gt;A&lt;sub&gt;0&lt;/sub&gt;&lt;/font&gt;" style="text;html=1;align=center;verticalAlign=middle;resizable=0;points=[];autosize=1;strokeColor=none;fillColor=none;" parent="or-cIDb6dHLySNmaWxa7-1" vertex="1">
          <mxGeometry x="367" y="519" width="40" height="40" as="geometry" />
        </mxCell>
        <mxCell id="kQ3J9-RV-Zy17nbhWXNe-10" value="&lt;font style=&quot;font-size: 18px; color: rgb(255, 0, 0);&quot;&gt;A&lt;/font&gt;&lt;font style=&quot;color: rgb(255, 0, 0); font-size: 15px;&quot;&gt;1&lt;/font&gt;" style="text;html=1;align=center;verticalAlign=middle;resizable=0;points=[];autosize=1;strokeColor=none;fillColor=none;" parent="or-cIDb6dHLySNmaWxa7-1" vertex="1">
          <mxGeometry x="382" y="374" width="40" height="40" as="geometry" />
        </mxCell>
        <mxCell id="kQ3J9-RV-Zy17nbhWXNe-11" value="" style="endArrow=classic;html=1;rounded=0;exitX=0.5;exitY=0;exitDx=0;exitDy=0;strokeColor=light-dark(#0000FF,#EDEDED);strokeWidth=2;" parent="or-cIDb6dHLySNmaWxa7-1" edge="1">
          <mxGeometry width="50" height="50" relative="1" as="geometry">
            <mxPoint x="386.85999999999996" y="515" as="sourcePoint" />
            <mxPoint x="386.85999999999996" y="480" as="targetPoint" />
          </mxGeometry>
        </mxCell>
        <mxCell id="kQ3J9-RV-Zy17nbhWXNe-12" value="&lt;font style=&quot;color: light-dark(rgb(0, 0, 255), rgb(237, 237, 237));&quot;&gt;z&lt;sub&gt;0&lt;/sub&gt;&lt;/font&gt;" style="text;html=1;align=center;verticalAlign=middle;resizable=0;points=[];autosize=1;strokeColor=none;fillColor=none;" parent="or-cIDb6dHLySNmaWxa7-1" vertex="1">
          <mxGeometry x="355" y="468" width="40" height="30" as="geometry" />
        </mxCell>
        <mxCell id="kQ3J9-RV-Zy17nbhWXNe-13" value="" style="group" parent="or-cIDb6dHLySNmaWxa7-1" vertex="1" connectable="0">
          <mxGeometry x="382" y="407" width="10" height="10" as="geometry" />
        </mxCell>
        <mxCell id="kQ3J9-RV-Zy17nbhWXNe-14" value="" style="ellipse;whiteSpace=wrap;html=1;aspect=fixed;strokeColor=none;fillColor=light-dark(#0000FF,#EDEDED);" parent="kQ3J9-RV-Zy17nbhWXNe-13" vertex="1">
          <mxGeometry x="2.5" y="2.5" width="5" height="5" as="geometry" />
        </mxCell>
        <mxCell id="kQ3J9-RV-Zy17nbhWXNe-15" value="" style="ellipse;whiteSpace=wrap;html=1;aspect=fixed;fillColor=none;strokeColor=light-dark(#0000ff, #ededed);strokeWidth=0.5;" parent="kQ3J9-RV-Zy17nbhWXNe-13" vertex="1">
          <mxGeometry width="10" height="10" as="geometry" />
        </mxCell>
        <mxCell id="kQ3J9-RV-Zy17nbhWXNe-16" value="" style="endArrow=classic;html=1;rounded=0;strokeColor=light-dark(#0000FF,#EDEDED);strokeWidth=2;entryX=0.375;entryY=0.83;entryDx=0;entryDy=0;entryPerimeter=0;" parent="or-cIDb6dHLySNmaWxa7-1" edge="1">
          <mxGeometry width="50" height="50" relative="1" as="geometry">
            <mxPoint x="387" y="512.9" as="sourcePoint" />
            <mxPoint x="447" y="513" as="targetPoint" />
          </mxGeometry>
        </mxCell>
        <mxCell id="kQ3J9-RV-Zy17nbhWXNe-17" value="" style="shape=mxgraph.arrows2.wedgeArrow;html=1;bendable=0;startWidth=1.7592592592592595;fillColor=#FF0000;defaultFillColor=invert;defaultGradientColor=invert;rounded=0;exitX=0.603;exitY=0.067;exitDx=0;exitDy=0;exitPerimeter=0;strokeColor=#FF0000;strokeWidth=1;entryX=0.694;entryY=-0.022;entryDx=0;entryDy=0;entryPerimeter=0;" parent="or-cIDb6dHLySNmaWxa7-1" edge="1">
          <mxGeometry width="100" height="100" relative="1" as="geometry">
            <mxPoint x="407" y="517" as="sourcePoint" />
            <mxPoint x="411" y="514" as="targetPoint" />
          </mxGeometry>
        </mxCell>
        <mxCell id="kQ3J9-RV-Zy17nbhWXNe-18" value="" style="endArrow=classic;html=1;rounded=0;strokeColor=light-dark(#0000FF,#EDEDED);strokeWidth=2;" parent="or-cIDb6dHLySNmaWxa7-1" edge="1">
          <mxGeometry width="50" height="50" relative="1" as="geometry">
            <mxPoint x="387" y="411.92" as="sourcePoint" />
            <mxPoint x="437" y="411.92" as="targetPoint" />
          </mxGeometry>
        </mxCell>
        <mxCell id="kQ3J9-RV-Zy17nbhWXNe-19" value="&lt;font style=&quot;color: light-dark(rgb(0, 0, 255), rgb(237, 237, 237));&quot;&gt;x&lt;sub&gt;1&lt;/sub&gt;&lt;/font&gt;" style="text;html=1;align=center;verticalAlign=middle;resizable=0;points=[];autosize=1;strokeColor=none;fillColor=none;" parent="or-cIDb6dHLySNmaWxa7-1" vertex="1">
          <mxGeometry x="409.5" y="384" width="40" height="30" as="geometry" />
        </mxCell>
        <mxCell id="kQ3J9-RV-Zy17nbhWXNe-20" value="" style="endArrow=classic;html=1;rounded=0;strokeColor=light-dark(#0000FF,#EDEDED);strokeWidth=2;" parent="or-cIDb6dHLySNmaWxa7-1" edge="1">
          <mxGeometry width="50" height="50" relative="1" as="geometry">
            <mxPoint x="386.77" y="414" as="sourcePoint" />
            <mxPoint x="386.77" y="364" as="targetPoint" />
          </mxGeometry>
        </mxCell>
        <mxCell id="kQ3J9-RV-Zy17nbhWXNe-21" value="&lt;font style=&quot;color: light-dark(rgb(0, 0, 255), rgb(237, 237, 237));&quot;&gt;y&lt;span style=&quot;font-size: 10px;&quot;&gt;&lt;sub&gt;1&lt;/sub&gt;&lt;/span&gt;&lt;/font&gt;" style="text;html=1;align=center;verticalAlign=middle;resizable=0;points=[];autosize=1;strokeColor=none;fillColor=none;" parent="or-cIDb6dHLySNmaWxa7-1" vertex="1">
          <mxGeometry x="382" y="349" width="30" height="30" as="geometry" />
        </mxCell>
        <mxCell id="kQ3J9-RV-Zy17nbhWXNe-22" value="" style="endArrow=none;html=1;rounded=0;dashed=1;dashPattern=1 2;" parent="or-cIDb6dHLySNmaWxa7-1" edge="1">
          <mxGeometry relative="1" as="geometry">
            <mxPoint x="332" y="412" as="sourcePoint" />
            <mxPoint x="382" y="412" as="targetPoint" />
          </mxGeometry>
        </mxCell>
        <mxCell id="kQ3J9-RV-Zy17nbhWXNe-23" value="&lt;font style=&quot;color: rgb(255, 0, 0);&quot;&gt;q&lt;sub&gt;1&lt;/sub&gt;&lt;/font&gt;" style="text;html=1;align=center;verticalAlign=middle;resizable=0;points=[];autosize=1;strokeColor=none;fillColor=none;" parent="or-cIDb6dHLySNmaWxa7-1" vertex="1">
          <mxGeometry x="397" y="509" width="40" height="30" as="geometry" />
        </mxCell>
        <mxCell id="kQ3J9-RV-Zy17nbhWXNe-24" value="&lt;font style=&quot;color: light-dark(rgb(0, 0, 255), rgb(237, 237, 237));&quot;&gt;z&lt;sub&gt;1&lt;/sub&gt;&lt;/font&gt;" style="text;html=1;align=center;verticalAlign=middle;resizable=0;points=[];autosize=1;strokeColor=none;fillColor=none;" parent="or-cIDb6dHLySNmaWxa7-1" vertex="1">
          <mxGeometry x="377" y="407" width="40" height="30" as="geometry" />
        </mxCell>
        <mxCell id="kQ3J9-RV-Zy17nbhWXNe-25" value="l&lt;sub&gt;1&lt;/sub&gt;" style="html=1;verticalAlign=bottom;endArrow=block;curved=0;rounded=0;" parent="or-cIDb6dHLySNmaWxa7-1" edge="1">
          <mxGeometry width="80" relative="1" as="geometry">
            <mxPoint x="337" y="509" as="sourcePoint" />
            <mxPoint x="337" y="419" as="targetPoint" />
          </mxGeometry>
        </mxCell>
        <mxCell id="kVhkLvQOUnGbnqaMHwgi-0" value="" style="endArrow=none;html=1;rounded=0;strokeWidth=3.1496;strokeColor=#000000;exitX=0.079;exitY=0.291;exitDx=0;exitDy=0;exitPerimeter=0;entryX=0.635;entryY=0.948;entryDx=0;entryDy=0;entryPerimeter=0;" parent="or-cIDb6dHLySNmaWxa7-1" target="kVhkLvQOUnGbnqaMHwgi-16" edge="1">
          <mxGeometry width="50" height="50" relative="1" as="geometry">
            <mxPoint x="315.90999999999997" y="763.7299999999999" as="sourcePoint" />
            <mxPoint x="185.25" y="763" as="targetPoint" />
          </mxGeometry>
        </mxCell>
        <mxCell id="kVhkLvQOUnGbnqaMHwgi-1" value="" style="group" parent="or-cIDb6dHLySNmaWxa7-1" vertex="1" connectable="0">
          <mxGeometry x="140.75" y="751" width="45" height="34" as="geometry" />
        </mxCell>
        <mxCell id="kVhkLvQOUnGbnqaMHwgi-2" value="" style="verticalLabelPosition=bottom;verticalAlign=top;html=1;shape=mxgraph.basic.arc;startAngle=0.3544610871038937;endAngle=0.8957366412670039;shadow=0;strokeColor=#FF0000;rotation=-180;flipH=1;" parent="kVhkLvQOUnGbnqaMHwgi-1" vertex="1">
          <mxGeometry y="2" width="35" height="20" as="geometry" />
        </mxCell>
        <mxCell id="kVhkLvQOUnGbnqaMHwgi-3" value="&lt;font style=&quot;color: light-dark(rgb(0, 0, 255), rgb(237, 237, 237));&quot;&gt;z&lt;sub&gt;1&lt;/sub&gt;&lt;/font&gt;" style="text;html=1;align=center;verticalAlign=middle;resizable=0;points=[];autosize=1;strokeColor=none;fillColor=none;" parent="kVhkLvQOUnGbnqaMHwgi-1" vertex="1">
          <mxGeometry x="6" y="7" width="40" height="30" as="geometry" />
        </mxCell>
        <mxCell id="kVhkLvQOUnGbnqaMHwgi-4" value="&lt;font style=&quot;color: rgb(255, 0, 0);&quot;&gt;q&lt;sub&gt;2&lt;/sub&gt;&lt;/font&gt;" style="text;html=1;align=center;verticalAlign=middle;resizable=0;points=[];autosize=1;strokeColor=none;fillColor=none;" parent="kVhkLvQOUnGbnqaMHwgi-1" vertex="1">
          <mxGeometry x="-17.5" y="-21" width="40" height="30" as="geometry" />
        </mxCell>
        <mxCell id="kVhkLvQOUnGbnqaMHwgi-5" value="2" style="text;html=1;align=center;verticalAlign=middle;resizable=0;points=[];autosize=1;strokeColor=none;fillColor=none;" parent="or-cIDb6dHLySNmaWxa7-1" vertex="1">
          <mxGeometry x="243.25" y="738" width="30" height="30" as="geometry" />
        </mxCell>
        <mxCell id="kVhkLvQOUnGbnqaMHwgi-6" value="&lt;font style=&quot;font-size: 18px; color: rgb(255, 0, 0);&quot;&gt;A&lt;/font&gt;&lt;font style=&quot;color: rgb(255, 0, 0); font-size: 15px;&quot;&gt;2&lt;/font&gt;" style="text;html=1;align=center;verticalAlign=middle;resizable=0;points=[];autosize=1;strokeColor=none;fillColor=none;" parent="or-cIDb6dHLySNmaWxa7-1" vertex="1">
          <mxGeometry x="300.75" y="768" width="40" height="40" as="geometry" />
        </mxCell>
        <mxCell id="kVhkLvQOUnGbnqaMHwgi-7" value="" style="group" parent="or-cIDb6dHLySNmaWxa7-1" vertex="1" connectable="0">
          <mxGeometry x="153.25" y="758" width="10" height="10" as="geometry" />
        </mxCell>
        <mxCell id="kVhkLvQOUnGbnqaMHwgi-8" value="" style="ellipse;whiteSpace=wrap;html=1;aspect=fixed;strokeColor=none;fillColor=light-dark(#0000FF,#EDEDED);" parent="kVhkLvQOUnGbnqaMHwgi-7" vertex="1">
          <mxGeometry x="2.5" y="2.5" width="5" height="5" as="geometry" />
        </mxCell>
        <mxCell id="kVhkLvQOUnGbnqaMHwgi-9" value="" style="ellipse;whiteSpace=wrap;html=1;aspect=fixed;fillColor=none;strokeColor=light-dark(#0000ff, #ededed);strokeWidth=0.5;" parent="kVhkLvQOUnGbnqaMHwgi-7" vertex="1">
          <mxGeometry width="10" height="10" as="geometry" />
        </mxCell>
        <mxCell id="kVhkLvQOUnGbnqaMHwgi-10" value="" style="group" parent="or-cIDb6dHLySNmaWxa7-1" vertex="1" connectable="0">
          <mxGeometry x="315.75" y="758" width="10" height="10" as="geometry" />
        </mxCell>
        <mxCell id="kVhkLvQOUnGbnqaMHwgi-11" value="" style="ellipse;whiteSpace=wrap;html=1;aspect=fixed;strokeColor=none;fillColor=light-dark(#0000FF,#EDEDED);" parent="kVhkLvQOUnGbnqaMHwgi-10" vertex="1">
          <mxGeometry x="2.5" y="2.5" width="5" height="5" as="geometry" />
        </mxCell>
        <mxCell id="kVhkLvQOUnGbnqaMHwgi-12" value="" style="ellipse;whiteSpace=wrap;html=1;aspect=fixed;fillColor=none;strokeColor=light-dark(#0000ff, #ededed);strokeWidth=0.5;" parent="kVhkLvQOUnGbnqaMHwgi-10" vertex="1">
          <mxGeometry width="10" height="10" as="geometry" />
        </mxCell>
        <mxCell id="kVhkLvQOUnGbnqaMHwgi-13" value="" style="endArrow=classic;html=1;rounded=0;strokeColor=light-dark(#0000FF,#EDEDED);strokeWidth=2;" parent="or-cIDb6dHLySNmaWxa7-1" edge="1">
          <mxGeometry width="50" height="50" relative="1" as="geometry">
            <mxPoint x="158.25" y="762.9200000000001" as="sourcePoint" />
            <mxPoint x="208.25" y="762.9200000000001" as="targetPoint" />
          </mxGeometry>
        </mxCell>
        <mxCell id="kVhkLvQOUnGbnqaMHwgi-14" value="" style="endArrow=classic;html=1;rounded=0;strokeColor=light-dark(#0000FF,#EDEDED);strokeWidth=2;" parent="or-cIDb6dHLySNmaWxa7-1" edge="1">
          <mxGeometry width="50" height="50" relative="1" as="geometry">
            <mxPoint x="325.75" y="762.9000000000001" as="sourcePoint" />
            <mxPoint x="375.75" y="762.9000000000001" as="targetPoint" />
          </mxGeometry>
        </mxCell>
        <mxCell id="kVhkLvQOUnGbnqaMHwgi-15" value="" style="shape=mxgraph.arrows2.wedgeArrow;html=1;bendable=0;startWidth=2.6829268292682933;fillColor=#FF0000;defaultFillColor=invert;defaultGradientColor=invert;rounded=0;strokeColor=#FF0000;strokeWidth=1;exitX=0.837;exitY=0.867;exitDx=0;exitDy=0;exitPerimeter=0;" parent="or-cIDb6dHLySNmaWxa7-1" source="kVhkLvQOUnGbnqaMHwgi-2" edge="1">
          <mxGeometry width="100" height="100" relative="1" as="geometry">
            <mxPoint x="175.75" y="758.5" as="sourcePoint" />
            <mxPoint x="173.25" y="760" as="targetPoint" />
          </mxGeometry>
        </mxCell>
        <mxCell id="kVhkLvQOUnGbnqaMHwgi-16" value="&lt;font style=&quot;color: light-dark(rgb(0, 0, 255), rgb(237, 237, 237));&quot;&gt;x&lt;sub&gt;1&lt;/sub&gt;&lt;/font&gt;" style="text;html=1;align=center;verticalAlign=middle;resizable=0;points=[];autosize=1;strokeColor=none;fillColor=none;" parent="or-cIDb6dHLySNmaWxa7-1" vertex="1">
          <mxGeometry x="180.75" y="735" width="40" height="30" as="geometry" />
        </mxCell>
        <mxCell id="kVhkLvQOUnGbnqaMHwgi-17" value="" style="endArrow=classic;html=1;rounded=0;strokeColor=light-dark(#0000FF,#EDEDED);strokeWidth=2;" parent="or-cIDb6dHLySNmaWxa7-1" edge="1">
          <mxGeometry width="50" height="50" relative="1" as="geometry">
            <mxPoint x="158.01999999999998" y="765" as="sourcePoint" />
            <mxPoint x="158.01999999999998" y="715" as="targetPoint" />
          </mxGeometry>
        </mxCell>
        <mxCell id="kVhkLvQOUnGbnqaMHwgi-18" value="&lt;font style=&quot;color: light-dark(rgb(0, 0, 255), rgb(237, 237, 237));&quot;&gt;y&lt;span style=&quot;font-size: 10px;&quot;&gt;&lt;sub&gt;1&lt;/sub&gt;&lt;/span&gt;&lt;/font&gt;" style="text;html=1;align=center;verticalAlign=middle;resizable=0;points=[];autosize=1;strokeColor=none;fillColor=none;" parent="or-cIDb6dHLySNmaWxa7-1" vertex="1">
          <mxGeometry x="153.25" y="700" width="30" height="30" as="geometry" />
        </mxCell>
        <mxCell id="kVhkLvQOUnGbnqaMHwgi-19" value="&lt;font style=&quot;color: light-dark(rgb(0, 0, 255), rgb(237, 237, 237));&quot;&gt;y&lt;span style=&quot;font-size: 10px;&quot;&gt;&lt;sub&gt;2&lt;/sub&gt;&lt;/span&gt;&lt;/font&gt;" style="text;html=1;align=center;verticalAlign=middle;resizable=0;points=[];autosize=1;strokeColor=none;fillColor=none;" parent="or-cIDb6dHLySNmaWxa7-1" vertex="1">
          <mxGeometry x="295.75" y="700" width="30" height="30" as="geometry" />
        </mxCell>
        <mxCell id="kVhkLvQOUnGbnqaMHwgi-20" value="" style="endArrow=classic;html=1;rounded=0;strokeColor=light-dark(#0000FF,#EDEDED);strokeWidth=2;" parent="or-cIDb6dHLySNmaWxa7-1" edge="1">
          <mxGeometry width="50" height="50" relative="1" as="geometry">
            <mxPoint x="320.63" y="765" as="sourcePoint" />
            <mxPoint x="320.63" y="715" as="targetPoint" />
          </mxGeometry>
        </mxCell>
        <mxCell id="kVhkLvQOUnGbnqaMHwgi-21" value="&lt;font style=&quot;color: light-dark(rgb(0, 0, 255), rgb(237, 237, 237));&quot;&gt;x&lt;sub&gt;2&lt;/sub&gt;&lt;/font&gt;" style="text;html=1;align=center;verticalAlign=middle;resizable=0;points=[];autosize=1;strokeColor=none;fillColor=none;" parent="or-cIDb6dHLySNmaWxa7-1" vertex="1">
          <mxGeometry x="355.75" y="738" width="40" height="30" as="geometry" />
        </mxCell>
        <mxCell id="kVhkLvQOUnGbnqaMHwgi-22" value="&lt;font style=&quot;font-size: 18px; color: rgb(255, 0, 0);&quot;&gt;A&lt;/font&gt;&lt;font style=&quot;color: rgb(255, 0, 0); font-size: 15px;&quot;&gt;1&lt;/font&gt;" style="text;html=1;align=center;verticalAlign=middle;resizable=0;points=[];autosize=1;strokeColor=none;fillColor=none;" parent="or-cIDb6dHLySNmaWxa7-1" vertex="1">
          <mxGeometry x="143.25" y="775" width="40" height="40" as="geometry" />
        </mxCell>
        <mxCell id="kVhkLvQOUnGbnqaMHwgi-23" value="&lt;font style=&quot;color: light-dark(rgb(0, 0, 255), rgb(237, 237, 237));&quot;&gt;z&lt;sub&gt;2&lt;/sub&gt;&lt;/font&gt;" style="text;html=1;align=center;verticalAlign=middle;resizable=0;points=[];autosize=1;strokeColor=none;fillColor=none;" parent="or-cIDb6dHLySNmaWxa7-1" vertex="1">
          <mxGeometry x="310.75" y="755" width="40" height="30" as="geometry" />
        </mxCell>
        <mxCell id="kVhkLvQOUnGbnqaMHwgi-24" value="" style="endArrow=none;html=1;rounded=0;dashed=1;dashPattern=1 2;exitX=0.878;exitY=0.058;exitDx=0;exitDy=0;exitPerimeter=0;" parent="or-cIDb6dHLySNmaWxa7-1" edge="1">
          <mxGeometry relative="1" as="geometry">
            <mxPoint x="158.3699999999999" y="762.3199999999999" as="sourcePoint" />
            <mxPoint x="158.25" y="640" as="targetPoint" />
          </mxGeometry>
        </mxCell>
        <mxCell id="kVhkLvQOUnGbnqaMHwgi-25" value="" style="endArrow=none;html=1;rounded=0;dashed=1;dashPattern=1 2;entryX=0.239;entryY=0.069;entryDx=0;entryDy=0;entryPerimeter=0;" parent="or-cIDb6dHLySNmaWxa7-1" target="kVhkLvQOUnGbnqaMHwgi-23" edge="1">
          <mxGeometry relative="1" as="geometry">
            <mxPoint x="320.25" y="640" as="sourcePoint" />
            <mxPoint x="263.25" y="636.8" as="targetPoint" />
          </mxGeometry>
        </mxCell>
        <mxCell id="kVhkLvQOUnGbnqaMHwgi-26" value="l&lt;sub&gt;2&lt;/sub&gt;" style="html=1;verticalAlign=bottom;endArrow=block;curved=0;rounded=0;" parent="or-cIDb6dHLySNmaWxa7-1" edge="1">
          <mxGeometry width="80" relative="1" as="geometry">
            <mxPoint x="163.25" y="640" as="sourcePoint" />
            <mxPoint x="313.25" y="640" as="targetPoint" />
          </mxGeometry>
        </mxCell>
        <mxCell id="kVhkLvQOUnGbnqaMHwgi-27" value="" style="endArrow=none;html=1;rounded=0;strokeWidth=3.1496;strokeColor=#000000;entryX=0.9;entryY=0.05;entryDx=0;entryDy=0;entryPerimeter=0;exitX=0;exitY=1;exitDx=0;exitDy=0;" parent="or-cIDb6dHLySNmaWxa7-1" source="kVhkLvQOUnGbnqaMHwgi-39" target="kVhkLvQOUnGbnqaMHwgi-48" edge="1">
          <mxGeometry width="50" height="50" relative="1" as="geometry">
            <mxPoint x="573.25" y="650" as="sourcePoint" />
            <mxPoint x="475.25" y="763" as="targetPoint" />
          </mxGeometry>
        </mxCell>
        <mxCell id="kVhkLvQOUnGbnqaMHwgi-28" value="" style="group" parent="or-cIDb6dHLySNmaWxa7-1" vertex="1" connectable="0">
          <mxGeometry x="482.65999999999997" y="738" width="119.51" height="40" as="geometry" />
        </mxCell>
        <mxCell id="kVhkLvQOUnGbnqaMHwgi-29" value="" style="verticalLabelPosition=bottom;verticalAlign=top;html=1;shape=mxgraph.basic.arc;startAngle=0.919439723822533;endAngle=0.0015914963824541276;shadow=0;strokeColor=#FF0000;rotation=-90;flipH=1;flipV=1;" parent="kVhkLvQOUnGbnqaMHwgi-28" vertex="1">
          <mxGeometry x="-79.41210579600103" y="-11.755188284518834" width="88.59650468235891" height="87.51046025104604" as="geometry" />
        </mxCell>
        <mxCell id="kVhkLvQOUnGbnqaMHwgi-30" value="" style="shape=mxgraph.arrows2.wedgeArrow;html=1;bendable=0;startWidth=2.6829268292682933;fillColor=#FF0000;defaultFillColor=invert;defaultGradientColor=invert;rounded=0;strokeColor=#FF0000;strokeWidth=1;exitX=0.263;exitY=0.062;exitDx=0;exitDy=0;exitPerimeter=0;" parent="kVhkLvQOUnGbnqaMHwgi-28" source="kVhkLvQOUnGbnqaMHwgi-29" edge="1">
          <mxGeometry width="100" height="100" relative="1" as="geometry">
            <mxPoint x="3.6399999999999864" y="9.5" as="sourcePoint" />
            <mxPoint x="5.684341886080802e-14" y="4.5" as="targetPoint" />
          </mxGeometry>
        </mxCell>
        <mxCell id="kVhkLvQOUnGbnqaMHwgi-31" value="&lt;font style=&quot;color: rgb(255, 0, 0);&quot;&gt;q&lt;sub&gt;2&lt;/sub&gt;&lt;/font&gt;" style="text;html=1;align=center;verticalAlign=middle;resizable=0;points=[];autosize=1;strokeColor=none;fillColor=none;" parent="kVhkLvQOUnGbnqaMHwgi-28" vertex="1">
          <mxGeometry x="-0.001111111111072205" y="-0.0011764705882342241" width="40" height="30" as="geometry" />
        </mxCell>
        <mxCell id="kVhkLvQOUnGbnqaMHwgi-32" value="2" style="text;html=1;align=center;verticalAlign=middle;resizable=0;points=[];autosize=1;strokeColor=none;fillColor=none;" parent="or-cIDb6dHLySNmaWxa7-1" vertex="1">
          <mxGeometry x="512.75" y="670" width="30" height="30" as="geometry" />
        </mxCell>
        <mxCell id="kVhkLvQOUnGbnqaMHwgi-33" value="&lt;font style=&quot;font-size: 18px; color: rgb(255, 0, 0);&quot;&gt;A&lt;/font&gt;&lt;font style=&quot;color: rgb(255, 0, 0); font-size: 15px;&quot;&gt;2&lt;/font&gt;" style="text;html=1;align=center;verticalAlign=middle;resizable=0;points=[];autosize=1;strokeColor=none;fillColor=none;" parent="or-cIDb6dHLySNmaWxa7-1" vertex="1">
          <mxGeometry x="553.25" y="605" width="40" height="40" as="geometry" />
        </mxCell>
        <mxCell id="kVhkLvQOUnGbnqaMHwgi-34" value="" style="group" parent="or-cIDb6dHLySNmaWxa7-1" vertex="1" connectable="0">
          <mxGeometry x="448.25" y="765" width="10" height="10" as="geometry" />
        </mxCell>
        <mxCell id="kVhkLvQOUnGbnqaMHwgi-35" value="" style="ellipse;whiteSpace=wrap;html=1;aspect=fixed;strokeColor=none;fillColor=light-dark(#0000FF,#EDEDED);" parent="kVhkLvQOUnGbnqaMHwgi-34" vertex="1">
          <mxGeometry x="2.5" y="2.5" width="5" height="5" as="geometry" />
        </mxCell>
        <mxCell id="kVhkLvQOUnGbnqaMHwgi-36" value="" style="ellipse;whiteSpace=wrap;html=1;aspect=fixed;fillColor=none;strokeColor=light-dark(#0000ff, #ededed);strokeWidth=0.5;" parent="kVhkLvQOUnGbnqaMHwgi-34" vertex="1">
          <mxGeometry width="10" height="10" as="geometry" />
        </mxCell>
        <mxCell id="kVhkLvQOUnGbnqaMHwgi-37" value="" style="group" parent="or-cIDb6dHLySNmaWxa7-1" vertex="1" connectable="0">
          <mxGeometry x="568.25" y="645" width="10" height="10" as="geometry" />
        </mxCell>
        <mxCell id="kVhkLvQOUnGbnqaMHwgi-38" value="" style="ellipse;whiteSpace=wrap;html=1;aspect=fixed;strokeColor=none;fillColor=light-dark(#0000FF,#EDEDED);" parent="kVhkLvQOUnGbnqaMHwgi-37" vertex="1">
          <mxGeometry x="2.5" y="2.5" width="5" height="5" as="geometry" />
        </mxCell>
        <mxCell id="kVhkLvQOUnGbnqaMHwgi-39" value="" style="ellipse;whiteSpace=wrap;html=1;aspect=fixed;fillColor=none;strokeColor=light-dark(#0000ff, #ededed);strokeWidth=0.5;" parent="kVhkLvQOUnGbnqaMHwgi-37" vertex="1">
          <mxGeometry width="10" height="10" as="geometry" />
        </mxCell>
        <mxCell id="kVhkLvQOUnGbnqaMHwgi-40" value="" style="endArrow=classic;html=1;rounded=0;strokeColor=light-dark(#0000FF,#EDEDED);strokeWidth=2;" parent="or-cIDb6dHLySNmaWxa7-1" edge="1">
          <mxGeometry width="50" height="50" relative="1" as="geometry">
            <mxPoint x="453.25" y="769.9200000000001" as="sourcePoint" />
            <mxPoint x="533.25" y="770" as="targetPoint" />
          </mxGeometry>
        </mxCell>
        <mxCell id="kVhkLvQOUnGbnqaMHwgi-41" value="" style="endArrow=classic;html=1;rounded=0;strokeColor=light-dark(#0000FF,#EDEDED);strokeWidth=2;exitX=1;exitY=0;exitDx=0;exitDy=0;" parent="or-cIDb6dHLySNmaWxa7-1" source="kVhkLvQOUnGbnqaMHwgi-39" edge="1">
          <mxGeometry width="50" height="50" relative="1" as="geometry">
            <mxPoint x="578.25" y="645.0000000000001" as="sourcePoint" />
            <mxPoint x="613.25" y="610" as="targetPoint" />
          </mxGeometry>
        </mxCell>
        <mxCell id="kVhkLvQOUnGbnqaMHwgi-42" value="&lt;font style=&quot;color: light-dark(rgb(0, 0, 255), rgb(237, 237, 237));&quot;&gt;x&lt;sub&gt;1&lt;/sub&gt;&lt;/font&gt;" style="text;html=1;align=center;verticalAlign=middle;resizable=0;points=[];autosize=1;strokeColor=none;fillColor=none;" parent="or-cIDb6dHLySNmaWxa7-1" vertex="1">
          <mxGeometry x="507.75" y="765" width="40" height="30" as="geometry" />
        </mxCell>
        <mxCell id="kVhkLvQOUnGbnqaMHwgi-43" value="" style="endArrow=classic;html=1;rounded=0;strokeColor=light-dark(#0000FF,#EDEDED);strokeWidth=2;" parent="or-cIDb6dHLySNmaWxa7-1" edge="1">
          <mxGeometry width="50" height="50" relative="1" as="geometry">
            <mxPoint x="453.02" y="772" as="sourcePoint" />
            <mxPoint x="453.02" y="722" as="targetPoint" />
          </mxGeometry>
        </mxCell>
        <mxCell id="kVhkLvQOUnGbnqaMHwgi-44" value="&lt;font style=&quot;color: light-dark(rgb(0, 0, 255), rgb(237, 237, 237));&quot;&gt;y&lt;span style=&quot;font-size: 10px;&quot;&gt;&lt;sub&gt;1&lt;/sub&gt;&lt;/span&gt;&lt;/font&gt;" style="text;html=1;align=center;verticalAlign=middle;resizable=0;points=[];autosize=1;strokeColor=none;fillColor=none;" parent="or-cIDb6dHLySNmaWxa7-1" vertex="1">
          <mxGeometry x="448.25" y="707" width="30" height="30" as="geometry" />
        </mxCell>
        <mxCell id="kVhkLvQOUnGbnqaMHwgi-45" value="&lt;font style=&quot;color: light-dark(rgb(0, 0, 255), rgb(237, 237, 237));&quot;&gt;y&lt;span style=&quot;font-size: 10px;&quot;&gt;&lt;sub&gt;2&lt;/sub&gt;&lt;/span&gt;&lt;/font&gt;" style="text;html=1;align=center;verticalAlign=middle;resizable=0;points=[];autosize=1;strokeColor=none;fillColor=none;" parent="or-cIDb6dHLySNmaWxa7-1" vertex="1">
          <mxGeometry x="512.75" y="603" width="30" height="30" as="geometry" />
        </mxCell>
        <mxCell id="kVhkLvQOUnGbnqaMHwgi-46" value="" style="endArrow=classic;html=1;rounded=0;strokeColor=light-dark(#0000FF,#EDEDED);strokeWidth=2;exitX=0;exitY=0;exitDx=0;exitDy=0;" parent="or-cIDb6dHLySNmaWxa7-1" source="kVhkLvQOUnGbnqaMHwgi-39" edge="1">
          <mxGeometry width="50" height="50" relative="1" as="geometry">
            <mxPoint x="533.25" y="660" as="sourcePoint" />
            <mxPoint x="533.25" y="610" as="targetPoint" />
          </mxGeometry>
        </mxCell>
        <mxCell id="kVhkLvQOUnGbnqaMHwgi-47" value="&lt;font style=&quot;color: light-dark(rgb(0, 0, 255), rgb(237, 237, 237));&quot;&gt;x&lt;sub&gt;2&lt;/sub&gt;&lt;/font&gt;" style="text;html=1;align=center;verticalAlign=middle;resizable=0;points=[];autosize=1;strokeColor=none;fillColor=none;" parent="or-cIDb6dHLySNmaWxa7-1" vertex="1">
          <mxGeometry x="593.25" y="590" width="40" height="30" as="geometry" />
        </mxCell>
        <mxCell id="kVhkLvQOUnGbnqaMHwgi-48" value="&lt;font style=&quot;font-size: 18px; color: rgb(255, 0, 0);&quot;&gt;A&lt;/font&gt;&lt;font style=&quot;color: rgb(255, 0, 0); font-size: 15px;&quot;&gt;1&lt;/font&gt;" style="text;html=1;align=center;verticalAlign=middle;resizable=0;points=[];autosize=1;strokeColor=none;fillColor=none;" parent="or-cIDb6dHLySNmaWxa7-1" vertex="1">
          <mxGeometry x="418.25" y="767" width="40" height="40" as="geometry" />
        </mxCell>
        <mxCell id="kVhkLvQOUnGbnqaMHwgi-49" value="&lt;font style=&quot;color: light-dark(rgb(0, 0, 255), rgb(237, 237, 237));&quot;&gt;z&lt;sub&gt;2&lt;/sub&gt;&lt;/font&gt;" style="text;html=1;align=center;verticalAlign=middle;resizable=0;points=[];autosize=1;strokeColor=none;fillColor=none;" parent="or-cIDb6dHLySNmaWxa7-1" vertex="1">
          <mxGeometry x="563.25" y="645" width="40" height="30" as="geometry" />
        </mxCell>
        <mxCell id="kVhkLvQOUnGbnqaMHwgi-50" value="" style="endArrow=none;html=1;rounded=0;dashed=1;dashPattern=1 2;exitX=0.878;exitY=0.058;exitDx=0;exitDy=0;exitPerimeter=0;" parent="or-cIDb6dHLySNmaWxa7-1" source="kVhkLvQOUnGbnqaMHwgi-48" edge="1">
          <mxGeometry relative="1" as="geometry">
            <mxPoint x="503.25" y="737.72" as="sourcePoint" />
            <mxPoint x="373.25" y="690" as="targetPoint" />
          </mxGeometry>
        </mxCell>
        <mxCell id="kVhkLvQOUnGbnqaMHwgi-51" value="" style="endArrow=none;html=1;rounded=0;dashed=1;dashPattern=1 2;exitX=0;exitY=0;exitDx=0;exitDy=0;" parent="or-cIDb6dHLySNmaWxa7-1" source="kVhkLvQOUnGbnqaMHwgi-39" edge="1">
          <mxGeometry relative="1" as="geometry">
            <mxPoint x="533.25" y="650" as="sourcePoint" />
            <mxPoint x="493.25" y="570" as="targetPoint" />
          </mxGeometry>
        </mxCell>
        <mxCell id="kVhkLvQOUnGbnqaMHwgi-52" value="l&lt;sub&gt;2&lt;/sub&gt;" style="html=1;verticalAlign=bottom;endArrow=block;curved=0;rounded=0;" parent="or-cIDb6dHLySNmaWxa7-1" edge="1">
          <mxGeometry width="80" relative="1" as="geometry">
            <mxPoint x="373.25" y="690" as="sourcePoint" />
            <mxPoint x="493.25" y="570" as="targetPoint" />
          </mxGeometry>
        </mxCell>
        <mxCell id="kVhkLvQOUnGbnqaMHwgi-53" value="&lt;font style=&quot;color: light-dark(rgb(0, 0, 255), rgb(237, 237, 237));&quot;&gt;z&lt;sub&gt;1&lt;/sub&gt;&lt;/font&gt;" style="text;html=1;align=center;verticalAlign=middle;resizable=0;points=[];autosize=1;strokeColor=none;fillColor=none;" parent="or-cIDb6dHLySNmaWxa7-1" vertex="1">
          <mxGeometry x="438.24666666666667" y="764.9970588235294" width="40" height="30" as="geometry" />
        </mxCell>
        <mxCell id="kVhkLvQOUnGbnqaMHwgi-54" value="" style="endArrow=none;html=1;rounded=0;" parent="or-cIDb6dHLySNmaWxa7-1" edge="1">
          <mxGeometry width="50" height="50" relative="1" as="geometry">
            <mxPoint y="340" as="sourcePoint" />
            <mxPoint x="820" y="340" as="targetPoint" />
          </mxGeometry>
        </mxCell>
        <mxCell id="kVhkLvQOUnGbnqaMHwgi-55" value="" style="endArrow=none;html=1;rounded=0;" parent="or-cIDb6dHLySNmaWxa7-1" edge="1">
          <mxGeometry width="50" height="50" relative="1" as="geometry">
            <mxPoint x="4" y="559" as="sourcePoint" />
            <mxPoint x="824" y="559" as="targetPoint" />
          </mxGeometry>
        </mxCell>
        <mxCell id="kVhkLvQOUnGbnqaMHwgi-56" value="" style="endArrow=none;html=1;rounded=0;" parent="or-cIDb6dHLySNmaWxa7-1" edge="1">
          <mxGeometry width="50" height="50" relative="1" as="geometry">
            <mxPoint x="4" y="840" as="sourcePoint" />
            <mxPoint x="824" y="840" as="targetPoint" />
          </mxGeometry>
        </mxCell>
        <mxCell id="xVJwA8skxCH6iEMkYQzS-0" value="" style="endArrow=none;html=1;rounded=0;strokeWidth=3.1496;strokeColor=#000000;exitX=0.079;exitY=0.291;exitDx=0;exitDy=0;exitPerimeter=0;entryX=0.635;entryY=0.948;entryDx=0;entryDy=0;entryPerimeter=0;" parent="or-cIDb6dHLySNmaWxa7-1" target="xVJwA8skxCH6iEMkYQzS-15" edge="1">
          <mxGeometry width="50" height="50" relative="1" as="geometry">
            <mxPoint x="342.65999999999997" y="1057.73" as="sourcePoint" />
            <mxPoint x="212" y="1057" as="targetPoint" />
          </mxGeometry>
        </mxCell>
        <mxCell id="xVJwA8skxCH6iEMkYQzS-1" value="" style="group" parent="or-cIDb6dHLySNmaWxa7-1" vertex="1" connectable="0">
          <mxGeometry x="167.5" y="1045" width="46" height="37" as="geometry" />
        </mxCell>
        <mxCell id="xVJwA8skxCH6iEMkYQzS-2" value="" style="verticalLabelPosition=bottom;verticalAlign=top;html=1;shape=mxgraph.basic.arc;startAngle=0.3544610871038937;endAngle=0.8957366412670039;shadow=0;strokeColor=#FF0000;rotation=-180;flipH=1;" parent="xVJwA8skxCH6iEMkYQzS-1" vertex="1">
          <mxGeometry y="2" width="35" height="20" as="geometry" />
        </mxCell>
        <mxCell id="xVJwA8skxCH6iEMkYQzS-3" value="&lt;font style=&quot;color: light-dark(rgb(0, 0, 255), rgb(237, 237, 237));&quot;&gt;z&lt;sub&gt;2&lt;/sub&gt;&lt;/font&gt;" style="text;html=1;align=center;verticalAlign=middle;resizable=0;points=[];autosize=1;strokeColor=none;fillColor=none;" parent="xVJwA8skxCH6iEMkYQzS-1" vertex="1">
          <mxGeometry x="6" y="7" width="40" height="30" as="geometry" />
        </mxCell>
        <mxCell id="xVJwA8skxCH6iEMkYQzS-4" value="&lt;font style=&quot;color: rgb(255, 0, 0);&quot;&gt;q&lt;span style=&quot;font-size: 10px;&quot;&gt;3&lt;/span&gt;&lt;/font&gt;" style="text;html=1;align=center;verticalAlign=middle;resizable=0;points=[];autosize=1;strokeColor=none;fillColor=none;" parent="xVJwA8skxCH6iEMkYQzS-1" vertex="1">
          <mxGeometry x="-17.5" y="-21" width="40" height="30" as="geometry" />
        </mxCell>
        <mxCell id="xVJwA8skxCH6iEMkYQzS-5" value="3" style="text;html=1;align=center;verticalAlign=middle;resizable=0;points=[];autosize=1;strokeColor=none;fillColor=none;" parent="or-cIDb6dHLySNmaWxa7-1" vertex="1">
          <mxGeometry x="270" y="1032" width="30" height="30" as="geometry" />
        </mxCell>
        <mxCell id="xVJwA8skxCH6iEMkYQzS-6" value="" style="group" parent="or-cIDb6dHLySNmaWxa7-1" vertex="1" connectable="0">
          <mxGeometry x="180" y="1052" width="10" height="10" as="geometry" />
        </mxCell>
        <mxCell id="xVJwA8skxCH6iEMkYQzS-7" value="" style="ellipse;whiteSpace=wrap;html=1;aspect=fixed;strokeColor=none;fillColor=light-dark(#0000FF,#EDEDED);" parent="xVJwA8skxCH6iEMkYQzS-6" vertex="1">
          <mxGeometry x="2.5" y="2.5" width="5" height="5" as="geometry" />
        </mxCell>
        <mxCell id="xVJwA8skxCH6iEMkYQzS-8" value="" style="ellipse;whiteSpace=wrap;html=1;aspect=fixed;fillColor=none;strokeColor=light-dark(#0000ff, #ededed);strokeWidth=0.5;" parent="xVJwA8skxCH6iEMkYQzS-6" vertex="1">
          <mxGeometry width="10" height="10" as="geometry" />
        </mxCell>
        <mxCell id="xVJwA8skxCH6iEMkYQzS-9" value="" style="group" parent="or-cIDb6dHLySNmaWxa7-1" vertex="1" connectable="0">
          <mxGeometry x="342.5" y="1052" width="10" height="10" as="geometry" />
        </mxCell>
        <mxCell id="xVJwA8skxCH6iEMkYQzS-10" value="" style="ellipse;whiteSpace=wrap;html=1;aspect=fixed;strokeColor=none;fillColor=light-dark(#0000FF,#EDEDED);" parent="xVJwA8skxCH6iEMkYQzS-9" vertex="1">
          <mxGeometry x="2.5" y="2.5" width="5" height="5" as="geometry" />
        </mxCell>
        <mxCell id="xVJwA8skxCH6iEMkYQzS-11" value="" style="ellipse;whiteSpace=wrap;html=1;aspect=fixed;fillColor=none;strokeColor=light-dark(#0000ff, #ededed);strokeWidth=0.5;" parent="xVJwA8skxCH6iEMkYQzS-9" vertex="1">
          <mxGeometry width="10" height="10" as="geometry" />
        </mxCell>
        <mxCell id="xVJwA8skxCH6iEMkYQzS-12" value="" style="endArrow=classic;html=1;rounded=0;strokeColor=light-dark(#0000FF,#EDEDED);strokeWidth=2;" parent="or-cIDb6dHLySNmaWxa7-1" edge="1">
          <mxGeometry width="50" height="50" relative="1" as="geometry">
            <mxPoint x="185" y="1056.92" as="sourcePoint" />
            <mxPoint x="235" y="1056.92" as="targetPoint" />
          </mxGeometry>
        </mxCell>
        <mxCell id="xVJwA8skxCH6iEMkYQzS-13" value="" style="endArrow=classic;html=1;rounded=0;strokeColor=light-dark(#0000FF,#EDEDED);strokeWidth=2;" parent="or-cIDb6dHLySNmaWxa7-1" edge="1">
          <mxGeometry width="50" height="50" relative="1" as="geometry">
            <mxPoint x="352.5" y="1056.9" as="sourcePoint" />
            <mxPoint x="402.5" y="1056.9" as="targetPoint" />
          </mxGeometry>
        </mxCell>
        <mxCell id="xVJwA8skxCH6iEMkYQzS-14" value="" style="shape=mxgraph.arrows2.wedgeArrow;html=1;bendable=0;startWidth=2.6829268292682933;fillColor=#FF0000;defaultFillColor=invert;defaultGradientColor=invert;rounded=0;strokeColor=#FF0000;strokeWidth=1;exitX=0.837;exitY=0.867;exitDx=0;exitDy=0;exitPerimeter=0;" parent="or-cIDb6dHLySNmaWxa7-1" source="xVJwA8skxCH6iEMkYQzS-2" edge="1">
          <mxGeometry width="100" height="100" relative="1" as="geometry">
            <mxPoint x="202.5" y="1052.5" as="sourcePoint" />
            <mxPoint x="200" y="1054" as="targetPoint" />
          </mxGeometry>
        </mxCell>
        <mxCell id="xVJwA8skxCH6iEMkYQzS-15" value="&lt;font style=&quot;color: light-dark(rgb(0, 0, 255), rgb(237, 237, 237));&quot;&gt;x&lt;sub&gt;2&lt;/sub&gt;&lt;/font&gt;" style="text;html=1;align=center;verticalAlign=middle;resizable=0;points=[];autosize=1;strokeColor=none;fillColor=none;" parent="or-cIDb6dHLySNmaWxa7-1" vertex="1">
          <mxGeometry x="207.5" y="1029" width="40" height="30" as="geometry" />
        </mxCell>
        <mxCell id="xVJwA8skxCH6iEMkYQzS-16" value="" style="endArrow=classic;html=1;rounded=0;strokeColor=light-dark(#0000FF,#EDEDED);strokeWidth=2;" parent="or-cIDb6dHLySNmaWxa7-1" edge="1">
          <mxGeometry width="50" height="50" relative="1" as="geometry">
            <mxPoint x="184.76999999999998" y="1059" as="sourcePoint" />
            <mxPoint x="184.76999999999998" y="1009" as="targetPoint" />
          </mxGeometry>
        </mxCell>
        <mxCell id="xVJwA8skxCH6iEMkYQzS-17" value="&lt;font style=&quot;color: light-dark(rgb(0, 0, 255), rgb(237, 237, 237));&quot;&gt;y&lt;span style=&quot;font-size: 10px;&quot;&gt;&lt;sub&gt;2&lt;/sub&gt;&lt;/span&gt;&lt;/font&gt;" style="text;html=1;align=center;verticalAlign=middle;resizable=0;points=[];autosize=1;strokeColor=none;fillColor=none;" parent="or-cIDb6dHLySNmaWxa7-1" vertex="1">
          <mxGeometry x="180" y="994" width="30" height="30" as="geometry" />
        </mxCell>
        <mxCell id="xVJwA8skxCH6iEMkYQzS-18" value="&lt;font style=&quot;color: light-dark(rgb(0, 0, 255), rgb(237, 237, 237));&quot;&gt;y&lt;span style=&quot;font-size: 10px;&quot;&gt;&lt;sub&gt;3&lt;/sub&gt;&lt;/span&gt;&lt;/font&gt;" style="text;html=1;align=center;verticalAlign=middle;resizable=0;points=[];autosize=1;strokeColor=none;fillColor=none;" parent="or-cIDb6dHLySNmaWxa7-1" vertex="1">
          <mxGeometry x="322.5" y="994" width="30" height="30" as="geometry" />
        </mxCell>
        <mxCell id="xVJwA8skxCH6iEMkYQzS-19" value="" style="endArrow=classic;html=1;rounded=0;strokeColor=light-dark(#0000FF,#EDEDED);strokeWidth=2;" parent="or-cIDb6dHLySNmaWxa7-1" edge="1">
          <mxGeometry width="50" height="50" relative="1" as="geometry">
            <mxPoint x="347.38" y="1059" as="sourcePoint" />
            <mxPoint x="347.38" y="1009" as="targetPoint" />
          </mxGeometry>
        </mxCell>
        <mxCell id="xVJwA8skxCH6iEMkYQzS-20" value="&lt;font style=&quot;color: light-dark(rgb(0, 0, 255), rgb(237, 237, 237));&quot;&gt;x&lt;sub&gt;3&lt;/sub&gt;&lt;/font&gt;" style="text;html=1;align=center;verticalAlign=middle;resizable=0;points=[];autosize=1;strokeColor=none;fillColor=none;" parent="or-cIDb6dHLySNmaWxa7-1" vertex="1">
          <mxGeometry x="382.5" y="1032" width="40" height="30" as="geometry" />
        </mxCell>
        <mxCell id="xVJwA8skxCH6iEMkYQzS-21" value="&lt;font style=&quot;font-size: 18px; color: rgb(255, 0, 0);&quot;&gt;A&lt;/font&gt;&lt;font style=&quot;color: rgb(255, 0, 0); font-size: 15px;&quot;&gt;2&lt;/font&gt;" style="text;html=1;align=center;verticalAlign=middle;resizable=0;points=[];autosize=1;strokeColor=none;fillColor=none;" parent="or-cIDb6dHLySNmaWxa7-1" vertex="1">
          <mxGeometry x="150" y="1054" width="40" height="40" as="geometry" />
        </mxCell>
        <mxCell id="xVJwA8skxCH6iEMkYQzS-22" value="&lt;font style=&quot;color: light-dark(rgb(0, 0, 255), rgb(237, 237, 237));&quot;&gt;z&lt;sub&gt;3&lt;/sub&gt;&lt;/font&gt;" style="text;html=1;align=center;verticalAlign=middle;resizable=0;points=[];autosize=1;strokeColor=none;fillColor=none;" parent="or-cIDb6dHLySNmaWxa7-1" vertex="1">
          <mxGeometry x="337.5" y="1049" width="40" height="30" as="geometry" />
        </mxCell>
        <mxCell id="xVJwA8skxCH6iEMkYQzS-23" value="" style="endArrow=none;html=1;rounded=0;dashed=1;dashPattern=1 2;exitX=0.878;exitY=0.058;exitDx=0;exitDy=0;exitPerimeter=0;" parent="or-cIDb6dHLySNmaWxa7-1" source="xVJwA8skxCH6iEMkYQzS-21" edge="1">
          <mxGeometry relative="1" as="geometry">
            <mxPoint x="240" y="1031.72" as="sourcePoint" />
            <mxPoint x="185" y="934" as="targetPoint" />
          </mxGeometry>
        </mxCell>
        <mxCell id="xVJwA8skxCH6iEMkYQzS-24" value="" style="endArrow=none;html=1;rounded=0;dashed=1;dashPattern=1 2;entryX=0.239;entryY=0.069;entryDx=0;entryDy=0;entryPerimeter=0;" parent="or-cIDb6dHLySNmaWxa7-1" target="xVJwA8skxCH6iEMkYQzS-22" edge="1">
          <mxGeometry relative="1" as="geometry">
            <mxPoint x="347" y="934" as="sourcePoint" />
            <mxPoint x="290" y="930.8" as="targetPoint" />
          </mxGeometry>
        </mxCell>
        <mxCell id="xVJwA8skxCH6iEMkYQzS-25" value="l&lt;sub&gt;3&lt;/sub&gt;" style="html=1;verticalAlign=bottom;endArrow=block;curved=0;rounded=0;" parent="or-cIDb6dHLySNmaWxa7-1" edge="1">
          <mxGeometry width="80" relative="1" as="geometry">
            <mxPoint x="190" y="934" as="sourcePoint" />
            <mxPoint x="340" y="934" as="targetPoint" />
          </mxGeometry>
        </mxCell>
        <mxCell id="xVJwA8skxCH6iEMkYQzS-26" value="" style="endArrow=none;html=1;rounded=0;strokeWidth=3.1496;strokeColor=#000000;entryX=0.9;entryY=0.05;entryDx=0;entryDy=0;entryPerimeter=0;exitX=0;exitY=1;exitDx=0;exitDy=0;" parent="or-cIDb6dHLySNmaWxa7-1" source="xVJwA8skxCH6iEMkYQzS-38" target="xVJwA8skxCH6iEMkYQzS-47" edge="1">
          <mxGeometry width="50" height="50" relative="1" as="geometry">
            <mxPoint x="600" y="944" as="sourcePoint" />
            <mxPoint x="502" y="1057" as="targetPoint" />
          </mxGeometry>
        </mxCell>
        <mxCell id="xVJwA8skxCH6iEMkYQzS-27" value="" style="group" parent="or-cIDb6dHLySNmaWxa7-1" vertex="1" connectable="0">
          <mxGeometry x="509.40999999999997" y="1032" width="119.51" height="40" as="geometry" />
        </mxCell>
        <mxCell id="xVJwA8skxCH6iEMkYQzS-28" value="" style="verticalLabelPosition=bottom;verticalAlign=top;html=1;shape=mxgraph.basic.arc;startAngle=0.919439723822533;endAngle=0.0015914963824541276;shadow=0;strokeColor=#FF0000;rotation=-90;flipH=1;flipV=1;" parent="xVJwA8skxCH6iEMkYQzS-27" vertex="1">
          <mxGeometry x="-79.41210579600103" y="-11.755188284518834" width="88.59650468235891" height="87.51046025104604" as="geometry" />
        </mxCell>
        <mxCell id="xVJwA8skxCH6iEMkYQzS-29" value="" style="shape=mxgraph.arrows2.wedgeArrow;html=1;bendable=0;startWidth=2.6829268292682933;fillColor=#FF0000;defaultFillColor=invert;defaultGradientColor=invert;rounded=0;strokeColor=#FF0000;strokeWidth=1;exitX=0.263;exitY=0.062;exitDx=0;exitDy=0;exitPerimeter=0;" parent="xVJwA8skxCH6iEMkYQzS-27" source="xVJwA8skxCH6iEMkYQzS-28" edge="1">
          <mxGeometry width="100" height="100" relative="1" as="geometry">
            <mxPoint x="3.6399999999999864" y="9.5" as="sourcePoint" />
            <mxPoint x="5.684341886080802e-14" y="4.5" as="targetPoint" />
          </mxGeometry>
        </mxCell>
        <mxCell id="xVJwA8skxCH6iEMkYQzS-30" value="&lt;font style=&quot;color: rgb(255, 0, 0);&quot;&gt;q&lt;sub&gt;3&lt;/sub&gt;&lt;/font&gt;" style="text;html=1;align=center;verticalAlign=middle;resizable=0;points=[];autosize=1;strokeColor=none;fillColor=none;" parent="xVJwA8skxCH6iEMkYQzS-27" vertex="1">
          <mxGeometry x="-0.001111111111072205" y="-0.0011764705882342241" width="40" height="30" as="geometry" />
        </mxCell>
        <mxCell id="xVJwA8skxCH6iEMkYQzS-31" value="3" style="text;html=1;align=center;verticalAlign=middle;resizable=0;points=[];autosize=1;strokeColor=none;fillColor=none;" parent="or-cIDb6dHLySNmaWxa7-1" vertex="1">
          <mxGeometry x="539.5" y="964" width="30" height="30" as="geometry" />
        </mxCell>
        <mxCell id="xVJwA8skxCH6iEMkYQzS-32" value="&lt;font style=&quot;font-size: 18px; color: rgb(255, 0, 0);&quot;&gt;A&lt;/font&gt;&lt;font style=&quot;color: rgb(255, 0, 0); font-size: 15px;&quot;&gt;3&lt;/font&gt;" style="text;html=1;align=center;verticalAlign=middle;resizable=0;points=[];autosize=1;strokeColor=none;fillColor=none;" parent="or-cIDb6dHLySNmaWxa7-1" vertex="1">
          <mxGeometry x="580" y="899" width="40" height="40" as="geometry" />
        </mxCell>
        <mxCell id="xVJwA8skxCH6iEMkYQzS-33" value="" style="group" parent="or-cIDb6dHLySNmaWxa7-1" vertex="1" connectable="0">
          <mxGeometry x="475" y="1059" width="10" height="10" as="geometry" />
        </mxCell>
        <mxCell id="xVJwA8skxCH6iEMkYQzS-34" value="" style="ellipse;whiteSpace=wrap;html=1;aspect=fixed;strokeColor=none;fillColor=light-dark(#0000FF,#EDEDED);" parent="xVJwA8skxCH6iEMkYQzS-33" vertex="1">
          <mxGeometry x="2.5" y="2.5" width="5" height="5" as="geometry" />
        </mxCell>
        <mxCell id="xVJwA8skxCH6iEMkYQzS-35" value="" style="ellipse;whiteSpace=wrap;html=1;aspect=fixed;fillColor=none;strokeColor=light-dark(#0000ff, #ededed);strokeWidth=0.5;" parent="xVJwA8skxCH6iEMkYQzS-33" vertex="1">
          <mxGeometry width="10" height="10" as="geometry" />
        </mxCell>
        <mxCell id="xVJwA8skxCH6iEMkYQzS-36" value="" style="group" parent="or-cIDb6dHLySNmaWxa7-1" vertex="1" connectable="0">
          <mxGeometry x="595" y="939" width="10" height="10" as="geometry" />
        </mxCell>
        <mxCell id="xVJwA8skxCH6iEMkYQzS-37" value="" style="ellipse;whiteSpace=wrap;html=1;aspect=fixed;strokeColor=none;fillColor=light-dark(#0000FF,#EDEDED);" parent="xVJwA8skxCH6iEMkYQzS-36" vertex="1">
          <mxGeometry x="2.5" y="2.5" width="5" height="5" as="geometry" />
        </mxCell>
        <mxCell id="xVJwA8skxCH6iEMkYQzS-38" value="" style="ellipse;whiteSpace=wrap;html=1;aspect=fixed;fillColor=none;strokeColor=light-dark(#0000ff, #ededed);strokeWidth=0.5;" parent="xVJwA8skxCH6iEMkYQzS-36" vertex="1">
          <mxGeometry width="10" height="10" as="geometry" />
        </mxCell>
        <mxCell id="xVJwA8skxCH6iEMkYQzS-39" value="" style="endArrow=classic;html=1;rounded=0;strokeColor=light-dark(#0000FF,#EDEDED);strokeWidth=2;" parent="or-cIDb6dHLySNmaWxa7-1" edge="1">
          <mxGeometry width="50" height="50" relative="1" as="geometry">
            <mxPoint x="480" y="1063.92" as="sourcePoint" />
            <mxPoint x="560" y="1064" as="targetPoint" />
          </mxGeometry>
        </mxCell>
        <mxCell id="xVJwA8skxCH6iEMkYQzS-40" value="" style="endArrow=classic;html=1;rounded=0;strokeColor=light-dark(#0000FF,#EDEDED);strokeWidth=2;exitX=1;exitY=0;exitDx=0;exitDy=0;" parent="or-cIDb6dHLySNmaWxa7-1" source="xVJwA8skxCH6iEMkYQzS-38" edge="1">
          <mxGeometry width="50" height="50" relative="1" as="geometry">
            <mxPoint x="605" y="939" as="sourcePoint" />
            <mxPoint x="640" y="904" as="targetPoint" />
          </mxGeometry>
        </mxCell>
        <mxCell id="xVJwA8skxCH6iEMkYQzS-41" value="&lt;font style=&quot;color: light-dark(rgb(0, 0, 255), rgb(237, 237, 237));&quot;&gt;x&lt;sub&gt;2&lt;/sub&gt;&lt;/font&gt;" style="text;html=1;align=center;verticalAlign=middle;resizable=0;points=[];autosize=1;strokeColor=none;fillColor=none;" parent="or-cIDb6dHLySNmaWxa7-1" vertex="1">
          <mxGeometry x="534.5" y="1059" width="40" height="30" as="geometry" />
        </mxCell>
        <mxCell id="xVJwA8skxCH6iEMkYQzS-42" value="" style="endArrow=classic;html=1;rounded=0;strokeColor=light-dark(#0000FF,#EDEDED);strokeWidth=2;" parent="or-cIDb6dHLySNmaWxa7-1" edge="1">
          <mxGeometry width="50" height="50" relative="1" as="geometry">
            <mxPoint x="479.77" y="1066" as="sourcePoint" />
            <mxPoint x="479.77" y="1016" as="targetPoint" />
          </mxGeometry>
        </mxCell>
        <mxCell id="xVJwA8skxCH6iEMkYQzS-43" value="&lt;font style=&quot;color: light-dark(rgb(0, 0, 255), rgb(237, 237, 237));&quot;&gt;y&lt;span style=&quot;font-size: 10px;&quot;&gt;&lt;sub&gt;2&lt;/sub&gt;&lt;/span&gt;&lt;/font&gt;" style="text;html=1;align=center;verticalAlign=middle;resizable=0;points=[];autosize=1;strokeColor=none;fillColor=none;" parent="or-cIDb6dHLySNmaWxa7-1" vertex="1">
          <mxGeometry x="475" y="1001" width="30" height="30" as="geometry" />
        </mxCell>
        <mxCell id="xVJwA8skxCH6iEMkYQzS-44" value="&lt;font style=&quot;color: light-dark(rgb(0, 0, 255), rgb(237, 237, 237));&quot;&gt;y&lt;span style=&quot;font-size: 10px;&quot;&gt;&lt;sub&gt;3&lt;/sub&gt;&lt;/span&gt;&lt;/font&gt;" style="text;html=1;align=center;verticalAlign=middle;resizable=0;points=[];autosize=1;strokeColor=none;fillColor=none;" parent="or-cIDb6dHLySNmaWxa7-1" vertex="1">
          <mxGeometry x="539.5" y="897" width="30" height="30" as="geometry" />
        </mxCell>
        <mxCell id="xVJwA8skxCH6iEMkYQzS-45" value="" style="endArrow=classic;html=1;rounded=0;strokeColor=light-dark(#0000FF,#EDEDED);strokeWidth=2;exitX=0;exitY=0;exitDx=0;exitDy=0;" parent="or-cIDb6dHLySNmaWxa7-1" source="xVJwA8skxCH6iEMkYQzS-38" edge="1">
          <mxGeometry width="50" height="50" relative="1" as="geometry">
            <mxPoint x="560" y="954" as="sourcePoint" />
            <mxPoint x="560" y="904" as="targetPoint" />
          </mxGeometry>
        </mxCell>
        <mxCell id="xVJwA8skxCH6iEMkYQzS-46" value="&lt;font style=&quot;color: light-dark(rgb(0, 0, 255), rgb(237, 237, 237));&quot;&gt;x&lt;sub&gt;3&lt;/sub&gt;&lt;/font&gt;" style="text;html=1;align=center;verticalAlign=middle;resizable=0;points=[];autosize=1;strokeColor=none;fillColor=none;" parent="or-cIDb6dHLySNmaWxa7-1" vertex="1">
          <mxGeometry x="620" y="884" width="40" height="30" as="geometry" />
        </mxCell>
        <mxCell id="xVJwA8skxCH6iEMkYQzS-47" value="&lt;font style=&quot;font-size: 18px; color: rgb(255, 0, 0);&quot;&gt;A&lt;/font&gt;&lt;font style=&quot;color: rgb(255, 0, 0); font-size: 15px;&quot;&gt;2&lt;/font&gt;" style="text;html=1;align=center;verticalAlign=middle;resizable=0;points=[];autosize=1;strokeColor=none;fillColor=none;" parent="or-cIDb6dHLySNmaWxa7-1" vertex="1">
          <mxGeometry x="445" y="1061" width="40" height="40" as="geometry" />
        </mxCell>
        <mxCell id="xVJwA8skxCH6iEMkYQzS-48" value="&lt;font style=&quot;color: light-dark(rgb(0, 0, 255), rgb(237, 237, 237));&quot;&gt;z&lt;sub&gt;3&lt;/sub&gt;&lt;/font&gt;" style="text;html=1;align=center;verticalAlign=middle;resizable=0;points=[];autosize=1;strokeColor=none;fillColor=none;" parent="or-cIDb6dHLySNmaWxa7-1" vertex="1">
          <mxGeometry x="590" y="939" width="40" height="30" as="geometry" />
        </mxCell>
        <mxCell id="xVJwA8skxCH6iEMkYQzS-49" value="" style="endArrow=none;html=1;rounded=0;dashed=1;dashPattern=1 2;exitX=0.878;exitY=0.058;exitDx=0;exitDy=0;exitPerimeter=0;" parent="or-cIDb6dHLySNmaWxa7-1" source="xVJwA8skxCH6iEMkYQzS-47" edge="1">
          <mxGeometry relative="1" as="geometry">
            <mxPoint x="530" y="1031.72" as="sourcePoint" />
            <mxPoint x="400" y="984" as="targetPoint" />
          </mxGeometry>
        </mxCell>
        <mxCell id="xVJwA8skxCH6iEMkYQzS-50" value="" style="endArrow=none;html=1;rounded=0;dashed=1;dashPattern=1 2;exitX=0;exitY=0;exitDx=0;exitDy=0;" parent="or-cIDb6dHLySNmaWxa7-1" source="xVJwA8skxCH6iEMkYQzS-38" edge="1">
          <mxGeometry relative="1" as="geometry">
            <mxPoint x="560" y="944" as="sourcePoint" />
            <mxPoint x="520" y="864" as="targetPoint" />
          </mxGeometry>
        </mxCell>
        <mxCell id="xVJwA8skxCH6iEMkYQzS-51" value="l&lt;sub&gt;3&lt;/sub&gt;" style="html=1;verticalAlign=bottom;endArrow=block;curved=0;rounded=0;" parent="or-cIDb6dHLySNmaWxa7-1" edge="1">
          <mxGeometry width="80" relative="1" as="geometry">
            <mxPoint x="400" y="984" as="sourcePoint" />
            <mxPoint x="520" y="864" as="targetPoint" />
          </mxGeometry>
        </mxCell>
        <mxCell id="xVJwA8skxCH6iEMkYQzS-52" value="&lt;font style=&quot;color: light-dark(rgb(0, 0, 255), rgb(237, 237, 237));&quot;&gt;z&lt;sub&gt;2&lt;/sub&gt;&lt;/font&gt;" style="text;html=1;align=center;verticalAlign=middle;resizable=0;points=[];autosize=1;strokeColor=none;fillColor=none;" parent="or-cIDb6dHLySNmaWxa7-1" vertex="1">
          <mxGeometry x="464.99666666666667" y="1058.9970588235294" width="40" height="30" as="geometry" />
        </mxCell>
        <mxCell id="xVJwA8skxCH6iEMkYQzS-53" value="&lt;font style=&quot;font-size: 18px; color: rgb(255, 0, 0);&quot;&gt;A&lt;/font&gt;&lt;font style=&quot;color: rgb(255, 0, 0); font-size: 15px;&quot;&gt;3&lt;/font&gt;" style="text;html=1;align=center;verticalAlign=middle;resizable=0;points=[];autosize=1;strokeColor=none;fillColor=none;" parent="or-cIDb6dHLySNmaWxa7-1" vertex="1">
          <mxGeometry x="317.5" y="1049" width="40" height="40" as="geometry" />
        </mxCell>
      </root>
    </mxGraphModel>
  </diagram>
  <diagram id="9SocCjLSG73WHACpyZTO" name="Образец 2">
    <mxGraphModel dx="548" dy="327" grid="1" gridSize="10" guides="1" tooltips="1" connect="1" arrows="1" fold="1" page="1" pageScale="1" pageWidth="827" pageHeight="1169" math="0" shadow="0">
      <root>
        <mxCell id="0" />
        <mxCell id="1" parent="0" />
        <mxCell id="xJbO-7PMRn2talf4pq16-1" value="" style="endArrow=classic;html=1;rounded=0;strokeColor=light-dark(#0000FF,#EDEDED);strokeWidth=2;" edge="1" parent="1">
          <mxGeometry width="50" height="50" relative="1" as="geometry">
            <mxPoint x="320" y="739" as="sourcePoint" />
            <mxPoint x="320" y="319" as="targetPoint" />
          </mxGeometry>
        </mxCell>
        <mxCell id="xJbO-7PMRn2talf4pq16-2" value="" style="endArrow=none;html=1;rounded=0;strokeWidth=3.1496;strokeColor=#000000;" edge="1" parent="1">
          <mxGeometry width="50" height="50" relative="1" as="geometry">
            <mxPoint x="320" y="739" as="sourcePoint" />
            <mxPoint x="320" y="619" as="targetPoint" />
          </mxGeometry>
        </mxCell>
        <mxCell id="xJbO-7PMRn2talf4pq16-3" value="" style="endArrow=classic;html=1;rounded=0;strokeColor=light-dark(#0000FF,#EDEDED);strokeWidth=2;" edge="1" parent="1">
          <mxGeometry width="50" height="50" relative="1" as="geometry">
            <mxPoint x="320" y="739" as="sourcePoint" />
            <mxPoint x="200" y="859" as="targetPoint" />
          </mxGeometry>
        </mxCell>
        <mxCell id="xJbO-7PMRn2talf4pq16-4" value="&lt;font style=&quot;color: light-dark(rgb(0, 0, 255), rgb(237, 237, 237));&quot;&gt;z&lt;sub&gt;0&lt;/sub&gt;&lt;/font&gt;" style="text;html=1;align=center;verticalAlign=middle;resizable=0;points=[];autosize=1;strokeColor=none;fillColor=none;" vertex="1" parent="1">
          <mxGeometry x="320" y="304" width="40" height="30" as="geometry" />
        </mxCell>
        <mxCell id="xJbO-7PMRn2talf4pq16-5" value="" style="endArrow=classic;html=1;rounded=0;strokeColor=light-dark(#0000FF,#EDEDED);strokeWidth=2;" edge="1" parent="1">
          <mxGeometry width="50" height="50" relative="1" as="geometry">
            <mxPoint x="320" y="739" as="sourcePoint" />
            <mxPoint x="560" y="739" as="targetPoint" />
          </mxGeometry>
        </mxCell>
        <mxCell id="xJbO-7PMRn2talf4pq16-6" value="" style="endArrow=none;html=1;rounded=0;dashed=1;dashPattern=1 2;" edge="1" parent="1">
          <mxGeometry relative="1" as="geometry">
            <mxPoint x="270" y="619" as="sourcePoint" />
            <mxPoint x="320" y="619" as="targetPoint" />
          </mxGeometry>
        </mxCell>
        <mxCell id="xJbO-7PMRn2talf4pq16-7" value="&lt;font style=&quot;color: rgb(255, 0, 0);&quot;&gt;q&lt;sub&gt;1&lt;/sub&gt;&lt;/font&gt;" style="text;html=1;align=center;verticalAlign=middle;resizable=0;points=[];autosize=1;strokeColor=none;fillColor=none;" vertex="1" parent="1">
          <mxGeometry x="300" y="776" width="40" height="30" as="geometry" />
        </mxCell>
        <mxCell id="xJbO-7PMRn2talf4pq16-8" value="l&lt;sub&gt;1&lt;/sub&gt;" style="html=1;verticalAlign=bottom;endArrow=block;curved=0;rounded=0;" edge="1" parent="1">
          <mxGeometry width="80" relative="1" as="geometry">
            <mxPoint x="270" y="739" as="sourcePoint" />
            <mxPoint x="270" y="619" as="targetPoint" />
          </mxGeometry>
        </mxCell>
        <mxCell id="xJbO-7PMRn2talf4pq16-9" value="&lt;font style=&quot;color: light-dark(rgb(0, 0, 255), rgb(237, 237, 237));&quot;&gt;x&lt;sub&gt;0&lt;/sub&gt;&lt;/font&gt;" style="text;html=1;align=center;verticalAlign=middle;resizable=0;points=[];autosize=1;strokeColor=none;fillColor=none;" vertex="1" parent="1">
          <mxGeometry x="170" y="836" width="40" height="30" as="geometry" />
        </mxCell>
        <mxCell id="xJbO-7PMRn2talf4pq16-10" value="" style="endArrow=none;html=1;rounded=0;dashed=1;dashPattern=1 2;" edge="1" parent="1">
          <mxGeometry relative="1" as="geometry">
            <mxPoint x="270" y="739" as="sourcePoint" />
            <mxPoint x="320" y="739" as="targetPoint" />
          </mxGeometry>
        </mxCell>
        <mxCell id="xJbO-7PMRn2talf4pq16-11" value="&lt;font style=&quot;color: light-dark(rgb(0, 0, 255), rgb(237, 237, 237));&quot;&gt;y&lt;sub&gt;0&lt;/sub&gt;&lt;/font&gt;" style="text;html=1;align=center;verticalAlign=middle;resizable=0;points=[];autosize=1;strokeColor=none;fillColor=none;" vertex="1" parent="1">
          <mxGeometry x="540" y="739" width="40" height="30" as="geometry" />
        </mxCell>
        <mxCell id="xJbO-7PMRn2talf4pq16-12" value="" style="endArrow=none;html=1;rounded=0;strokeWidth=3.1496;strokeColor=#000000;" edge="1" parent="1">
          <mxGeometry width="50" height="50" relative="1" as="geometry">
            <mxPoint x="320" y="619" as="sourcePoint" />
            <mxPoint x="400" y="539" as="targetPoint" />
          </mxGeometry>
        </mxCell>
        <mxCell id="xJbO-7PMRn2talf4pq16-13" value="&lt;b&gt;&amp;nbsp;l&lt;sub&gt;2&amp;nbsp;&lt;/sub&gt;&lt;/b&gt;" style="edgeLabel;html=1;align=center;verticalAlign=middle;resizable=0;points=[];" vertex="1" connectable="0" parent="xJbO-7PMRn2talf4pq16-12">
          <mxGeometry x="0.2351" relative="1" as="geometry">
            <mxPoint as="offset" />
          </mxGeometry>
        </mxCell>
        <mxCell id="xJbO-7PMRn2talf4pq16-14" value="" style="endArrow=none;html=1;rounded=0;strokeWidth=3.1496;strokeColor=#000000;" edge="1" parent="1">
          <mxGeometry width="50" height="50" relative="1" as="geometry">
            <mxPoint x="400" y="539" as="sourcePoint" />
            <mxPoint x="440" y="419" as="targetPoint" />
          </mxGeometry>
        </mxCell>
        <mxCell id="xJbO-7PMRn2talf4pq16-15" value="&lt;b&gt;&amp;nbsp;l&lt;sub&gt;3&amp;nbsp;&lt;/sub&gt;&lt;/b&gt;" style="edgeLabel;html=1;align=center;verticalAlign=middle;resizable=0;points=[];" vertex="1" connectable="0" parent="xJbO-7PMRn2talf4pq16-14">
          <mxGeometry x="-0.4067" relative="1" as="geometry">
            <mxPoint as="offset" />
          </mxGeometry>
        </mxCell>
        <mxCell id="xJbO-7PMRn2talf4pq16-16" value="" style="endArrow=none;dashed=1;html=1;dashPattern=1 3;strokeWidth=1;rounded=0;" edge="1" parent="1">
          <mxGeometry width="50" height="50" relative="1" as="geometry">
            <mxPoint x="440" y="819" as="sourcePoint" />
            <mxPoint x="440" y="419" as="targetPoint" />
          </mxGeometry>
        </mxCell>
        <mxCell id="xJbO-7PMRn2talf4pq16-17" value="" style="endArrow=none;dashed=1;html=1;strokeWidth=2;rounded=0;strokeColor=#00CC00;" edge="1" parent="1">
          <mxGeometry width="50" height="50" relative="1" as="geometry">
            <mxPoint x="320" y="739" as="sourcePoint" />
            <mxPoint x="440" y="819" as="targetPoint" />
          </mxGeometry>
        </mxCell>
        <mxCell id="xJbO-7PMRn2talf4pq16-18" value="" style="endArrow=none;dashed=1;html=1;dashPattern=1 3;strokeWidth=1;rounded=0;" edge="1" parent="1">
          <mxGeometry width="50" height="50" relative="1" as="geometry">
            <mxPoint x="520" y="739" as="sourcePoint" />
            <mxPoint x="440" y="819" as="targetPoint" />
          </mxGeometry>
        </mxCell>
        <mxCell id="xJbO-7PMRn2talf4pq16-19" value="" style="endArrow=none;dashed=1;html=1;dashPattern=1 3;strokeWidth=1;rounded=0;" edge="1" parent="1">
          <mxGeometry width="50" height="50" relative="1" as="geometry">
            <mxPoint x="240" y="819" as="sourcePoint" />
            <mxPoint x="440" y="819" as="targetPoint" />
          </mxGeometry>
        </mxCell>
        <mxCell id="xJbO-7PMRn2talf4pq16-20" value="" style="shape=mxgraph.arrows2.wedgeArrow;html=1;bendable=0;startWidth=1.7592592592592595;fillColor=#FF0000;defaultFillColor=invert;defaultGradientColor=invert;rounded=0;strokeColor=#FF0000;strokeWidth=1;entryX=0.88;entryY=0.823;entryDx=0;entryDy=0;entryPerimeter=0;exitX=0.847;exitY=0.86;exitDx=0;exitDy=0;exitPerimeter=0;" edge="1" parent="1" source="xJbO-7PMRn2talf4pq16-21" target="xJbO-7PMRn2talf4pq16-21">
          <mxGeometry width="100" height="100" relative="1" as="geometry">
            <mxPoint x="333.6700000000001" y="784" as="sourcePoint" />
            <mxPoint x="343.6700000000001" y="774" as="targetPoint" />
          </mxGeometry>
        </mxCell>
        <mxCell id="xJbO-7PMRn2talf4pq16-21" value="" style="verticalLabelPosition=bottom;verticalAlign=top;html=1;shape=mxgraph.basic.arc;startAngle=0.3597850868643642;endAngle=0.6097850868643642;strokeColor=#FF0000;" vertex="1" parent="1">
          <mxGeometry x="270" y="684" width="100" height="100" as="geometry" />
        </mxCell>
        <mxCell id="xJbO-7PMRn2talf4pq16-22" value="" style="endArrow=none;dashed=1;html=1;strokeWidth=1;rounded=0;dashPattern=1 2;" edge="1" parent="1">
          <mxGeometry width="50" height="50" relative="1" as="geometry">
            <mxPoint x="320" y="618" as="sourcePoint" />
            <mxPoint x="440" y="698" as="targetPoint" />
          </mxGeometry>
        </mxCell>
        <mxCell id="xJbO-7PMRn2talf4pq16-23" value="" style="verticalLabelPosition=bottom;verticalAlign=top;html=1;shape=mxgraph.basic.arc;startAngle=0.13737667453701755;endAngle=0.3399760922406494;strokeColor=#FF0000;" vertex="1" parent="1">
          <mxGeometry x="290" y="589" width="60" height="60" as="geometry" />
        </mxCell>
        <mxCell id="xJbO-7PMRn2talf4pq16-24" value="" style="group" vertex="1" connectable="0" parent="1">
          <mxGeometry x="340" y="589" width="119.51" height="40" as="geometry" />
        </mxCell>
        <mxCell id="xJbO-7PMRn2talf4pq16-25" value="" style="shape=mxgraph.arrows2.wedgeArrow;html=1;bendable=0;startWidth=2.6829268292682933;fillColor=#FF0000;defaultFillColor=invert;defaultGradientColor=invert;rounded=0;strokeColor=#FF0000;strokeWidth=1;exitX=0.263;exitY=0.062;exitDx=0;exitDy=0;exitPerimeter=0;" edge="1" parent="xJbO-7PMRn2talf4pq16-24">
          <mxGeometry width="100" height="100" relative="1" as="geometry">
            <mxPoint x="6.215728135136487" y="17.252670231284924" as="sourcePoint" />
            <mxPoint x="3.000000000000057" y="10.75" as="targetPoint" />
          </mxGeometry>
        </mxCell>
        <mxCell id="xJbO-7PMRn2talf4pq16-26" value="&lt;font style=&quot;color: rgb(255, 0, 0);&quot;&gt;q&lt;sub&gt;2&lt;/sub&gt;&lt;/font&gt;" style="text;html=1;align=center;verticalAlign=middle;resizable=0;points=[];autosize=1;strokeColor=none;fillColor=none;" vertex="1" parent="xJbO-7PMRn2talf4pq16-24">
          <mxGeometry x="-19.001111111111072" y="10.998823529411766" width="40" height="30" as="geometry" />
        </mxCell>
        <mxCell id="xJbO-7PMRn2talf4pq16-27" value="" style="endArrow=none;dashed=1;html=1;strokeWidth=1;rounded=0;dashPattern=1 2;" edge="1" parent="1">
          <mxGeometry width="50" height="50" relative="1" as="geometry">
            <mxPoint x="400" y="539" as="sourcePoint" />
            <mxPoint x="440" y="499" as="targetPoint" />
          </mxGeometry>
        </mxCell>
        <mxCell id="xJbO-7PMRn2talf4pq16-28" value="" style="group" vertex="1" connectable="0" parent="1">
          <mxGeometry x="422.49" y="476" width="119.51" height="77.47" as="geometry" />
        </mxCell>
        <mxCell id="xJbO-7PMRn2talf4pq16-29" value="" style="verticalLabelPosition=bottom;verticalAlign=top;html=1;shape=mxgraph.basic.arc;startAngle=0.919439723822533;endAngle=0.0015914963824541276;shadow=0;strokeColor=#FF0000;rotation=-90;flipH=1;flipV=1;" vertex="1" parent="xJbO-7PMRn2talf4pq16-28">
          <mxGeometry x="-77.7" y="-4.29" width="79.41" height="81.76" as="geometry" />
        </mxCell>
        <mxCell id="xJbO-7PMRn2talf4pq16-32" value="&lt;b&gt;&lt;font style=&quot;color: rgb(0, 204, 0);&quot;&gt;s&lt;/font&gt;&lt;/b&gt;" style="html=1;verticalAlign=bottom;endArrow=block;curved=0;rounded=0;strokeColor=#00CC00;" edge="1" parent="xJbO-7PMRn2talf4pq16-28">
          <mxGeometry x="0.0017" width="80" relative="1" as="geometry">
            <mxPoint x="77.50999999999999" y="223" as="sourcePoint" />
            <mxPoint x="77.50999999999999" y="-57" as="targetPoint" />
            <mxPoint as="offset" />
          </mxGeometry>
        </mxCell>
        <mxCell id="xJbO-7PMRn2talf4pq16-33" value="&lt;span style=&quot;font-size: 18px;&quot;&gt;B&lt;/span&gt;" style="text;html=1;align=center;verticalAlign=middle;resizable=0;points=[];autosize=1;strokeColor=none;fillColor=none;" vertex="1" parent="xJbO-7PMRn2talf4pq16-28">
          <mxGeometry x="7.510000000000062" width="40" height="40" as="geometry" />
        </mxCell>
        <mxCell id="xJbO-7PMRn2talf4pq16-54" value="" style="endArrow=none;html=1;rounded=0;" edge="1" parent="xJbO-7PMRn2talf4pq16-28">
          <mxGeometry width="50" height="50" relative="1" as="geometry">
            <mxPoint x="7.509999999999991" y="34" as="sourcePoint" />
            <mxPoint x="17.50999999999999" y="14" as="targetPoint" />
            <Array as="points">
              <mxPoint x="7.509999999999991" y="24" />
            </Array>
          </mxGeometry>
        </mxCell>
        <mxCell id="xJbO-7PMRn2talf4pq16-31" value="&lt;font style=&quot;color: rgb(255, 0, 0);&quot;&gt;q&lt;sub&gt;3&lt;/sub&gt;&lt;/font&gt;" style="text;html=1;align=center;verticalAlign=middle;resizable=0;points=[];autosize=1;strokeColor=none;fillColor=none;" vertex="1" parent="xJbO-7PMRn2talf4pq16-28">
          <mxGeometry x="-12.491111111111081" y="-6.001176470588234" width="40" height="30" as="geometry" />
        </mxCell>
        <mxCell id="xJbO-7PMRn2talf4pq16-34" value="&lt;font style=&quot;color: rgb(0, 204, 0);&quot;&gt;&lt;b&gt;p&lt;/b&gt;&lt;/font&gt;" style="text;html=1;align=center;verticalAlign=middle;resizable=0;points=[];autosize=1;strokeColor=none;fillColor=none;" vertex="1" parent="1">
          <mxGeometry x="370" y="754" width="30" height="30" as="geometry" />
        </mxCell>
        <mxCell id="xJbO-7PMRn2talf4pq16-35" value="" style="endArrow=none;dashed=1;html=1;strokeWidth=1;rounded=0;dashPattern=1 2;" edge="1" parent="1">
          <mxGeometry width="50" height="50" relative="1" as="geometry">
            <mxPoint x="320" y="338" as="sourcePoint" />
            <mxPoint x="440" y="418" as="targetPoint" />
          </mxGeometry>
        </mxCell>
        <mxCell id="xJbO-7PMRn2talf4pq16-36" value="" style="endArrow=none;html=1;rounded=0;dashed=1;dashPattern=1 2;" edge="1" parent="1">
          <mxGeometry relative="1" as="geometry">
            <mxPoint x="270" y="339" as="sourcePoint" />
            <mxPoint x="320" y="339" as="targetPoint" />
          </mxGeometry>
        </mxCell>
        <mxCell id="xJbO-7PMRn2talf4pq16-37" value="&lt;b&gt;&lt;font style=&quot;color: rgb(0, 204, 0);&quot;&gt;s&lt;/font&gt;&lt;/b&gt;" style="html=1;verticalAlign=bottom;endArrow=block;curved=0;rounded=0;strokeColor=#00CC00;" edge="1" parent="1">
          <mxGeometry x="0.0017" width="80" relative="1" as="geometry">
            <mxPoint x="270" y="608" as="sourcePoint" />
            <mxPoint x="270" y="349" as="targetPoint" />
            <mxPoint as="offset" />
          </mxGeometry>
        </mxCell>
        <mxCell id="xJbO-7PMRn2talf4pq16-38" value="" style="endArrow=classic;html=1;rounded=0;strokeColor=light-dark(#FF8000,#EDEDED);strokeWidth=2;shape=wire;dashed=1;endFill=1;" edge="1" parent="1">
          <mxGeometry width="50" height="50" relative="1" as="geometry">
            <mxPoint x="320" y="619" as="sourcePoint" />
            <mxPoint x="440" y="419" as="targetPoint" />
          </mxGeometry>
        </mxCell>
        <mxCell id="xJbO-7PMRn2talf4pq16-39" value="&lt;font style=&quot;color: light-dark(rgb(255, 128, 0), rgb(237, 237, 237));&quot;&gt;&lt;b style=&quot;&quot;&gt;a&lt;/b&gt;&lt;/font&gt;" style="text;html=1;align=center;verticalAlign=middle;resizable=0;points=[];autosize=1;strokeColor=none;fillColor=none;" vertex="1" parent="1">
          <mxGeometry x="359" y="500" width="30" height="30" as="geometry" />
        </mxCell>
        <mxCell id="xJbO-7PMRn2talf4pq16-40" value="" style="endArrow=classic;html=1;strokeWidth=2;rounded=0;strokeColor=#00CC00;endFill=1;" edge="1" parent="1">
          <mxGeometry width="50" height="50" relative="1" as="geometry">
            <mxPoint x="323" y="631" as="sourcePoint" />
            <mxPoint x="438" y="708" as="targetPoint" />
          </mxGeometry>
        </mxCell>
        <mxCell id="xJbO-7PMRn2talf4pq16-41" value="&lt;font style=&quot;color: rgb(0, 204, 0);&quot;&gt;&lt;b&gt;p&lt;/b&gt;&lt;/font&gt;" style="text;html=1;align=center;verticalAlign=middle;resizable=0;points=[];autosize=1;strokeColor=none;fillColor=none;" vertex="1" parent="1">
          <mxGeometry x="370" y="666" width="30" height="30" as="geometry" />
        </mxCell>
        <mxCell id="xJbO-7PMRn2talf4pq16-42" value="" style="endArrow=none;html=1;rounded=0;" edge="1" parent="1">
          <mxGeometry width="50" height="50" relative="1" as="geometry">
            <mxPoint x="430" y="689" as="sourcePoint" />
            <mxPoint x="440" y="679" as="targetPoint" />
            <Array as="points">
              <mxPoint x="430" y="669" />
            </Array>
          </mxGeometry>
        </mxCell>
        <mxCell id="xJbO-7PMRn2talf4pq16-43" value="" style="ellipse;whiteSpace=wrap;html=1;aspect=fixed;" vertex="1" parent="1">
          <mxGeometry x="435" y="684" width="1" height="1" as="geometry" />
        </mxCell>
        <mxCell id="xJbO-7PMRn2talf4pq16-44" value="" style="verticalLabelPosition=bottom;verticalAlign=top;html=1;shape=mxgraph.basic.arc;startAngle=0.059955470116026637;endAngle=0.10994279087843788;strokeColor=#7F00FF;" vertex="1" parent="1">
          <mxGeometry x="270" y="539" width="140" height="130" as="geometry" />
        </mxCell>
        <mxCell id="xJbO-7PMRn2talf4pq16-45" value="" style="verticalLabelPosition=bottom;verticalAlign=top;html=1;shape=mxgraph.basic.arc;startAngle=0.08118903317540314;endAngle=0.3252002228833133;strokeColor=#FF00FF;" vertex="1" parent="1">
          <mxGeometry x="249" y="569" width="131" height="115" as="geometry" />
        </mxCell>
        <mxCell id="xJbO-7PMRn2talf4pq16-46" value="&lt;font style=&quot;color: rgb(255, 0, 255);&quot;&gt;al&lt;/font&gt;" style="text;html=1;align=center;verticalAlign=middle;resizable=0;points=[];autosize=1;strokeColor=none;fillColor=none;" vertex="1" parent="1">
          <mxGeometry x="371" y="599" width="30" height="30" as="geometry" />
        </mxCell>
        <mxCell id="xJbO-7PMRn2talf4pq16-47" value="&lt;font style=&quot;color: rgb(127, 0, 255);&quot;&gt;bet&lt;/font&gt;" style="text;html=1;align=center;verticalAlign=middle;resizable=0;points=[];autosize=1;strokeColor=none;fillColor=none;" vertex="1" parent="1">
          <mxGeometry x="361" y="524" width="40" height="30" as="geometry" />
        </mxCell>
        <mxCell id="xJbO-7PMRn2talf4pq16-48" value="&lt;font style=&quot;font-size: 18px;&quot;&gt;A&lt;sub&gt;1&lt;/sub&gt;&lt;/font&gt;" style="text;html=1;align=center;verticalAlign=middle;resizable=0;points=[];autosize=1;strokeColor=none;fillColor=none;" vertex="1" parent="1">
          <mxGeometry x="280" y="584" width="40" height="40" as="geometry" />
        </mxCell>
        <mxCell id="xJbO-7PMRn2talf4pq16-49" value="&lt;font style=&quot;font-size: 18px;&quot;&gt;A&lt;sub&gt;2&lt;/sub&gt;&lt;/font&gt;" style="text;html=1;align=center;verticalAlign=middle;resizable=0;points=[];autosize=1;strokeColor=none;fillColor=none;" vertex="1" parent="1">
          <mxGeometry x="389" y="527" width="40" height="40" as="geometry" />
        </mxCell>
        <mxCell id="xJbO-7PMRn2talf4pq16-50" value="&lt;font style=&quot;font-size: 18px;&quot;&gt;A&lt;sub&gt;3&lt;/sub&gt;&lt;/font&gt;" style="text;html=1;align=center;verticalAlign=middle;resizable=0;points=[];autosize=1;strokeColor=none;fillColor=none;" vertex="1" parent="1">
          <mxGeometry x="422.49" y="379" width="40" height="40" as="geometry" />
        </mxCell>
        <mxCell id="xJbO-7PMRn2talf4pq16-51" value="" style="endArrow=none;html=1;rounded=0;dashed=1;dashPattern=1 2;" edge="1" parent="1">
          <mxGeometry relative="1" as="geometry">
            <mxPoint x="440" y="699" as="sourcePoint" />
            <mxPoint x="520" y="699" as="targetPoint" />
          </mxGeometry>
        </mxCell>
        <mxCell id="xJbO-7PMRn2talf4pq16-52" value="" style="endArrow=none;html=1;rounded=0;dashed=1;dashPattern=1 2;exitX=0.431;exitY=0.997;exitDx=0;exitDy=0;exitPerimeter=0;" edge="1" parent="1" source="xJbO-7PMRn2talf4pq16-50">
          <mxGeometry relative="1" as="geometry">
            <mxPoint x="470" y="419" as="sourcePoint" />
            <mxPoint x="520" y="419" as="targetPoint" />
          </mxGeometry>
        </mxCell>
        <mxCell id="xJbO-7PMRn2talf4pq16-53" value="&lt;span style=&quot;font-size: 18px;&quot;&gt;D&lt;/span&gt;" style="text;html=1;align=center;verticalAlign=middle;resizable=0;points=[];autosize=1;strokeColor=none;fillColor=none;" vertex="1" parent="1">
          <mxGeometry x="440" y="669" width="40" height="40" as="geometry" />
        </mxCell>
        <mxCell id="xJbO-7PMRn2talf4pq16-55" value="" style="ellipse;whiteSpace=wrap;html=1;aspect=fixed;" vertex="1" parent="1">
          <mxGeometry x="435" y="499" width="1" height="1" as="geometry" />
        </mxCell>
        <mxCell id="xJbO-7PMRn2talf4pq16-30" value="" style="shape=mxgraph.arrows2.wedgeArrow;html=1;bendable=0;startWidth=2.6829268292682933;fillColor=#FF0000;defaultFillColor=invert;defaultGradientColor=invert;rounded=0;strokeColor=#FF0000;strokeWidth=1;exitX=0.263;exitY=0.062;exitDx=0;exitDy=0;exitPerimeter=0;" edge="1" parent="1">
          <mxGeometry width="100" height="100" relative="1" as="geometry">
            <mxPoint x="422.4857281351366" y="496.25267023128515" as="sourcePoint" />
            <mxPoint x="419.27000000000004" y="489.75" as="targetPoint" />
          </mxGeometry>
        </mxCell>
      </root>
    </mxGraphModel>
  </diagram>
  <diagram id="CwY6-0bEd8eHVoaUVVfm" name="1">
    <mxGraphModel dx="2066" dy="1209" grid="1" gridSize="10" guides="1" tooltips="1" connect="1" arrows="1" fold="1" page="1" pageScale="1" pageWidth="827" pageHeight="1169" math="0" shadow="0">
      <root>
        <mxCell id="0" />
        <mxCell id="1" parent="0" />
        <mxCell id="NvRbEB206BqKzln8FUXm-1" value="" style="group;rotation=0;strokeColor=none;" parent="1" vertex="1" connectable="0">
          <mxGeometry x="455" y="396" width="30" height="40" as="geometry" />
        </mxCell>
        <mxCell id="NvRbEB206BqKzln8FUXm-2" value="" style="ellipse;whiteSpace=wrap;html=1;aspect=fixed;rotation=-90;" parent="NvRbEB206BqKzln8FUXm-1" vertex="1">
          <mxGeometry x="-5" y="15" width="10" height="10" as="geometry" />
        </mxCell>
        <mxCell id="NvRbEB206BqKzln8FUXm-3" value="" style="endArrow=none;html=1;rounded=0;entryX=0;entryY=1;entryDx=0;entryDy=0;" parent="NvRbEB206BqKzln8FUXm-1" target="NvRbEB206BqKzln8FUXm-2" edge="1">
          <mxGeometry width="50" height="50" relative="1" as="geometry">
            <mxPoint x="15" y="35" as="sourcePoint" />
            <mxPoint x="-15" y="-5" as="targetPoint" />
          </mxGeometry>
        </mxCell>
        <mxCell id="NvRbEB206BqKzln8FUXm-4" value="" style="endArrow=none;html=1;rounded=0;entryX=1;entryY=1;entryDx=0;entryDy=0;" parent="NvRbEB206BqKzln8FUXm-1" target="NvRbEB206BqKzln8FUXm-2" edge="1">
          <mxGeometry width="50" height="50" relative="1" as="geometry">
            <mxPoint x="15" y="5" as="sourcePoint" />
            <mxPoint x="14" y="14" as="targetPoint" />
          </mxGeometry>
        </mxCell>
        <mxCell id="NvRbEB206BqKzln8FUXm-5" value="" style="endArrow=none;html=1;rounded=0;" parent="NvRbEB206BqKzln8FUXm-1" edge="1">
          <mxGeometry width="50" height="50" relative="1" as="geometry">
            <mxPoint x="35" y="35" as="sourcePoint" />
            <mxPoint x="15" y="35" as="targetPoint" />
          </mxGeometry>
        </mxCell>
        <mxCell id="NvRbEB206BqKzln8FUXm-6" value="" style="endArrow=none;html=1;rounded=0;" parent="NvRbEB206BqKzln8FUXm-1" edge="1">
          <mxGeometry width="50" height="50" relative="1" as="geometry">
            <mxPoint x="35" y="5" as="sourcePoint" />
            <mxPoint x="15" y="5" as="targetPoint" />
          </mxGeometry>
        </mxCell>
        <mxCell id="xpmZaDOInYgAVLFglFkm-1" value="" style="shape=cube;whiteSpace=wrap;html=1;boundedLbl=1;backgroundOutline=1;darkOpacity=0.05;darkOpacity2=0.1;size=30;" vertex="1" parent="1">
          <mxGeometry x="200" y="520" width="120" height="80" as="geometry" />
        </mxCell>
        <mxCell id="xpmZaDOInYgAVLFglFkm-2" value="" style="shape=cylinder3;whiteSpace=wrap;html=1;boundedLbl=1;backgroundOutline=1;size=15;" vertex="1" parent="1">
          <mxGeometry x="230" y="466" width="60" height="80" as="geometry" />
        </mxCell>
        <mxCell id="xpmZaDOInYgAVLFglFkm-3" value="" style="group" vertex="1" connectable="0" parent="1">
          <mxGeometry x="235" y="472" width="50" height="20" as="geometry" />
        </mxCell>
        <mxCell id="xpmZaDOInYgAVLFglFkm-4" value="" style="verticalLabelPosition=bottom;verticalAlign=top;html=1;shape=mxgraph.basic.arc;startAngle=0.29895082563518965;endAngle=0.49834219596880786;shadow=0;strokeColor=#FF0000;" vertex="1" parent="xpmZaDOInYgAVLFglFkm-3">
          <mxGeometry width="50" height="20" as="geometry" />
        </mxCell>
        <mxCell id="xpmZaDOInYgAVLFglFkm-5" value="&lt;font style=&quot;color: rgb(255, 0, 0);&quot;&gt;q&lt;sub&gt;1&lt;/sub&gt;&lt;/font&gt;" style="text;html=1;align=center;verticalAlign=middle;resizable=0;points=[];autosize=1;strokeColor=none;fillColor=none;" vertex="1" parent="1">
          <mxGeometry x="256" y="486" width="40" height="30" as="geometry" />
        </mxCell>
        <mxCell id="xpmZaDOInYgAVLFglFkm-6" value="" style="ellipse;whiteSpace=wrap;html=1;aspect=fixed;strokeColor=light-dark(#0000FF,#EDEDED);" vertex="1" parent="1">
          <mxGeometry x="310" y="456" as="geometry" />
        </mxCell>
        <mxCell id="xpmZaDOInYgAVLFglFkm-7" value="" style="shape=mxgraph.arrows2.wedgeArrow;html=1;bendable=0;startWidth=1.7592592592592595;fillColor=#FF0000;defaultFillColor=invert;defaultGradientColor=invert;rounded=0;exitX=0.603;exitY=0.067;exitDx=0;exitDy=0;exitPerimeter=0;strokeColor=#FF0000;strokeWidth=1;entryX=0.694;entryY=-0.022;entryDx=0;entryDy=0;entryPerimeter=0;" edge="1" source="xpmZaDOInYgAVLFglFkm-5" target="xpmZaDOInYgAVLFglFkm-5" parent="1">
          <mxGeometry width="100" height="100" relative="1" as="geometry">
            <mxPoint x="277" y="490" as="sourcePoint" />
            <mxPoint x="279.95" y="485.48" as="targetPoint" />
          </mxGeometry>
        </mxCell>
        <mxCell id="xpmZaDOInYgAVLFglFkm-8" value="" style="endArrow=none;html=1;rounded=0;strokeWidth=3.1496;strokeColor=#000000;" edge="1" parent="1">
          <mxGeometry width="50" height="50" relative="1" as="geometry">
            <mxPoint x="259.80049911519706" y="486" as="sourcePoint" />
            <mxPoint x="259.8" y="426" as="targetPoint" />
          </mxGeometry>
        </mxCell>
        <mxCell id="xpmZaDOInYgAVLFglFkm-9" value="" style="shape=cylinder3;whiteSpace=wrap;html=1;boundedLbl=1;backgroundOutline=1;size=17.594202898550805;rotation=-180;" vertex="1" parent="1">
          <mxGeometry x="235" y="385" width="50" height="50" as="geometry" />
        </mxCell>
        <mxCell id="xpmZaDOInYgAVLFglFkm-10" value="" style="group" vertex="1" connectable="0" parent="1">
          <mxGeometry x="242.5" y="406" width="45" height="34" as="geometry" />
        </mxCell>
        <mxCell id="xpmZaDOInYgAVLFglFkm-11" value="" style="verticalLabelPosition=bottom;verticalAlign=top;html=1;shape=mxgraph.basic.arc;startAngle=0.3544610871038937;endAngle=0.8957366412670039;shadow=0;strokeColor=#FF0000;rotation=-180;flipH=1;" vertex="1" parent="xpmZaDOInYgAVLFglFkm-10">
          <mxGeometry y="2" width="35" height="20" as="geometry" />
        </mxCell>
        <mxCell id="xpmZaDOInYgAVLFglFkm-12" value="&lt;font style=&quot;color: rgb(255, 0, 0);&quot;&gt;q&lt;sub&gt;2&lt;/sub&gt;&lt;/font&gt;" style="text;html=1;align=center;verticalAlign=middle;resizable=0;points=[];autosize=1;strokeColor=none;fillColor=none;" vertex="1" parent="1">
          <mxGeometry x="270" y="415" width="40" height="30" as="geometry" />
        </mxCell>
        <mxCell id="xpmZaDOInYgAVLFglFkm-13" value="" style="shape=mxgraph.arrows2.wedgeArrow;html=1;bendable=0;startWidth=2.6829268292682933;fillColor=#FF0000;defaultFillColor=invert;defaultGradientColor=invert;rounded=0;strokeColor=#FF0000;strokeWidth=1;exitX=0.837;exitY=0.867;exitDx=0;exitDy=0;exitPerimeter=0;entryX=0.167;entryY=0.052;entryDx=0;entryDy=0;entryPerimeter=0;" edge="1" source="xpmZaDOInYgAVLFglFkm-11" target="xpmZaDOInYgAVLFglFkm-12" parent="1">
          <mxGeometry width="100" height="100" relative="1" as="geometry">
            <mxPoint x="277.5" y="413.5" as="sourcePoint" />
            <mxPoint x="277.5" y="418.5" as="targetPoint" />
          </mxGeometry>
        </mxCell>
        <mxCell id="xpmZaDOInYgAVLFglFkm-14" value="" style="endArrow=none;html=1;rounded=0;strokeWidth=3.1496;strokeColor=#000000;exitX=1;exitY=0.5;exitDx=0;exitDy=0;exitPerimeter=0;entryX=0;entryY=0.5;entryDx=0;entryDy=0;entryPerimeter=0;" edge="1" parent="1">
          <mxGeometry width="50" height="50" relative="1" as="geometry">
            <mxPoint x="340.0000000000001" y="415" as="sourcePoint" />
            <mxPoint x="285" y="415" as="targetPoint" />
          </mxGeometry>
        </mxCell>
        <mxCell id="xpmZaDOInYgAVLFglFkm-18" value="&lt;font style=&quot;color: rgb(255, 0, 0);&quot;&gt;q&lt;sub&gt;3&lt;/sub&gt;&lt;/font&gt;" style="text;html=1;align=center;verticalAlign=middle;resizable=0;points=[];autosize=1;strokeColor=none;fillColor=none;" vertex="1" parent="1">
          <mxGeometry x="374" y="440" width="40" height="30" as="geometry" />
        </mxCell>
        <mxCell id="xpmZaDOInYgAVLFglFkm-19" value="" style="ellipse;whiteSpace=wrap;html=1;aspect=fixed;strokeColor=light-dark(#0000FF,#EDEDED);" vertex="1" parent="1">
          <mxGeometry x="520" y="460" as="geometry" />
        </mxCell>
        <mxCell id="xpmZaDOInYgAVLFglFkm-21" value="" style="group;rotation=90;" vertex="1" connectable="0" parent="1">
          <mxGeometry x="340" y="376" width="60" height="80" as="geometry" />
        </mxCell>
        <mxCell id="xpmZaDOInYgAVLFglFkm-15" value="" style="shape=cylinder3;whiteSpace=wrap;html=1;boundedLbl=1;backgroundOutline=1;size=15;rotation=90;" vertex="1" parent="xpmZaDOInYgAVLFglFkm-21">
          <mxGeometry width="60" height="80" as="geometry" />
        </mxCell>
        <mxCell id="xpmZaDOInYgAVLFglFkm-16" value="" style="group;rotation=90;" vertex="1" connectable="0" parent="xpmZaDOInYgAVLFglFkm-21">
          <mxGeometry x="29" y="30" width="50" height="20" as="geometry" />
        </mxCell>
        <mxCell id="xpmZaDOInYgAVLFglFkm-17" value="" style="verticalLabelPosition=bottom;verticalAlign=top;html=1;shape=mxgraph.basic.arc;startAngle=0.29895082563518965;endAngle=0.49834219596880786;shadow=0;strokeColor=#FF0000;rotation=90;" vertex="1" parent="xpmZaDOInYgAVLFglFkm-16">
          <mxGeometry width="50" height="20" as="geometry" />
        </mxCell>
        <mxCell id="xpmZaDOInYgAVLFglFkm-20" value="" style="shape=mxgraph.arrows2.wedgeArrow;html=1;bendable=0;startWidth=1.7592592592592595;fillColor=#FF0000;defaultFillColor=invert;defaultGradientColor=invert;rounded=0;strokeColor=#FF0000;strokeWidth=1;" edge="1" target="xpmZaDOInYgAVLFglFkm-15" parent="xpmZaDOInYgAVLFglFkm-21">
          <mxGeometry width="100" height="100" relative="1" as="geometry">
            <mxPoint x="50" y="63" as="sourcePoint" />
            <mxPoint x="60" y="62" as="targetPoint" />
          </mxGeometry>
        </mxCell>
        <mxCell id="xpmZaDOInYgAVLFglFkm-22" value="" style="endArrow=none;html=1;rounded=0;strokeWidth=3.1496;strokeColor=#000000;exitX=1;exitY=0.5;exitDx=0;exitDy=0;exitPerimeter=0;entryX=0;entryY=0.5;entryDx=0;entryDy=0;entryPerimeter=0;" edge="1" parent="1">
          <mxGeometry width="50" height="50" relative="1" as="geometry">
            <mxPoint x="450.0000000000001" y="415.89" as="sourcePoint" />
            <mxPoint x="395" y="415.89" as="targetPoint" />
          </mxGeometry>
        </mxCell>
      </root>
    </mxGraphModel>
  </diagram>
  <diagram name="2" id="svhj_YBUUYQA7UJMFgm4">
    <mxGraphModel dx="1008" dy="590" grid="1" gridSize="10" guides="1" tooltips="1" connect="1" arrows="1" fold="1" page="1" pageScale="1" pageWidth="827" pageHeight="1169" math="0" shadow="0">
      <root>
        <mxCell id="_4x054t4X39eFjD6Jqbw-0" />
        <mxCell id="_4x054t4X39eFjD6Jqbw-1" parent="_4x054t4X39eFjD6Jqbw-0" />
        <mxCell id="_4x054t4X39eFjD6Jqbw-2" value="" style="group;rotation=0;strokeColor=none;" vertex="1" connectable="0" parent="_4x054t4X39eFjD6Jqbw-1">
          <mxGeometry x="423" y="342" width="30" height="40" as="geometry" />
        </mxCell>
        <mxCell id="_4x054t4X39eFjD6Jqbw-3" value="" style="ellipse;whiteSpace=wrap;html=1;aspect=fixed;rotation=-90;" vertex="1" parent="_4x054t4X39eFjD6Jqbw-2">
          <mxGeometry x="-5" y="15" width="10" height="10" as="geometry" />
        </mxCell>
        <mxCell id="_4x054t4X39eFjD6Jqbw-4" value="" style="endArrow=none;html=1;rounded=0;entryX=0;entryY=1;entryDx=0;entryDy=0;" edge="1" parent="_4x054t4X39eFjD6Jqbw-2" target="_4x054t4X39eFjD6Jqbw-3">
          <mxGeometry width="50" height="50" relative="1" as="geometry">
            <mxPoint x="15" y="35" as="sourcePoint" />
            <mxPoint x="-15" y="-5" as="targetPoint" />
          </mxGeometry>
        </mxCell>
        <mxCell id="_4x054t4X39eFjD6Jqbw-5" value="" style="endArrow=none;html=1;rounded=0;entryX=1;entryY=1;entryDx=0;entryDy=0;" edge="1" parent="_4x054t4X39eFjD6Jqbw-2" target="_4x054t4X39eFjD6Jqbw-3">
          <mxGeometry width="50" height="50" relative="1" as="geometry">
            <mxPoint x="15" y="5" as="sourcePoint" />
            <mxPoint x="14" y="14" as="targetPoint" />
          </mxGeometry>
        </mxCell>
        <mxCell id="_4x054t4X39eFjD6Jqbw-6" value="" style="endArrow=none;html=1;rounded=0;" edge="1" parent="_4x054t4X39eFjD6Jqbw-2">
          <mxGeometry width="50" height="50" relative="1" as="geometry">
            <mxPoint x="35" y="35" as="sourcePoint" />
            <mxPoint x="15" y="35" as="targetPoint" />
          </mxGeometry>
        </mxCell>
        <mxCell id="_4x054t4X39eFjD6Jqbw-7" value="" style="endArrow=none;html=1;rounded=0;" edge="1" parent="_4x054t4X39eFjD6Jqbw-2">
          <mxGeometry width="50" height="50" relative="1" as="geometry">
            <mxPoint x="35" y="5" as="sourcePoint" />
            <mxPoint x="15" y="5" as="targetPoint" />
          </mxGeometry>
        </mxCell>
        <mxCell id="_4x054t4X39eFjD6Jqbw-8" value="" style="shape=cube;whiteSpace=wrap;html=1;boundedLbl=1;backgroundOutline=1;darkOpacity=0.05;darkOpacity2=0.1;size=30;" vertex="1" parent="_4x054t4X39eFjD6Jqbw-1">
          <mxGeometry x="200" y="520" width="120" height="80" as="geometry" />
        </mxCell>
        <mxCell id="_4x054t4X39eFjD6Jqbw-9" value="" style="shape=cylinder3;whiteSpace=wrap;html=1;boundedLbl=1;backgroundOutline=1;size=15;" vertex="1" parent="_4x054t4X39eFjD6Jqbw-1">
          <mxGeometry x="230" y="466" width="60" height="80" as="geometry" />
        </mxCell>
        <mxCell id="_4x054t4X39eFjD6Jqbw-10" value="" style="group" vertex="1" connectable="0" parent="_4x054t4X39eFjD6Jqbw-1">
          <mxGeometry x="235" y="472" width="50" height="20" as="geometry" />
        </mxCell>
        <mxCell id="_4x054t4X39eFjD6Jqbw-11" value="" style="verticalLabelPosition=bottom;verticalAlign=top;html=1;shape=mxgraph.basic.arc;startAngle=0.29895082563518965;endAngle=0.49834219596880786;shadow=0;strokeColor=#FF0000;" vertex="1" parent="_4x054t4X39eFjD6Jqbw-10">
          <mxGeometry width="50" height="20" as="geometry" />
        </mxCell>
        <mxCell id="_4x054t4X39eFjD6Jqbw-12" value="&lt;font style=&quot;color: rgb(255, 0, 0);&quot;&gt;q&lt;sub&gt;1&lt;/sub&gt;&lt;/font&gt;" style="text;html=1;align=center;verticalAlign=middle;resizable=0;points=[];autosize=1;strokeColor=none;fillColor=none;" vertex="1" parent="_4x054t4X39eFjD6Jqbw-1">
          <mxGeometry x="256" y="486" width="40" height="30" as="geometry" />
        </mxCell>
        <mxCell id="_4x054t4X39eFjD6Jqbw-13" value="" style="ellipse;whiteSpace=wrap;html=1;aspect=fixed;strokeColor=light-dark(#0000FF,#EDEDED);" vertex="1" parent="_4x054t4X39eFjD6Jqbw-1">
          <mxGeometry x="283" y="402" as="geometry" />
        </mxCell>
        <mxCell id="_4x054t4X39eFjD6Jqbw-14" value="" style="shape=mxgraph.arrows2.wedgeArrow;html=1;bendable=0;startWidth=1.7592592592592595;fillColor=#FF0000;defaultFillColor=invert;defaultGradientColor=invert;rounded=0;exitX=0.603;exitY=0.067;exitDx=0;exitDy=0;exitPerimeter=0;strokeColor=#FF0000;strokeWidth=1;entryX=0.694;entryY=-0.022;entryDx=0;entryDy=0;entryPerimeter=0;" edge="1" parent="_4x054t4X39eFjD6Jqbw-1" source="_4x054t4X39eFjD6Jqbw-12" target="_4x054t4X39eFjD6Jqbw-12">
          <mxGeometry width="100" height="100" relative="1" as="geometry">
            <mxPoint x="277" y="490" as="sourcePoint" />
            <mxPoint x="279.95" y="485.48" as="targetPoint" />
          </mxGeometry>
        </mxCell>
        <mxCell id="_4x054t4X39eFjD6Jqbw-15" value="" style="endArrow=none;html=1;rounded=0;strokeWidth=3.1496;strokeColor=#000000;" edge="1" parent="_4x054t4X39eFjD6Jqbw-1">
          <mxGeometry width="50" height="50" relative="1" as="geometry">
            <mxPoint x="259.80049911519706" y="486" as="sourcePoint" />
            <mxPoint x="259.8" y="426" as="targetPoint" />
          </mxGeometry>
        </mxCell>
        <mxCell id="_4x054t4X39eFjD6Jqbw-16" value="" style="shape=cylinder3;whiteSpace=wrap;html=1;boundedLbl=1;backgroundOutline=1;size=17.594202898550805;rotation=-180;" vertex="1" parent="_4x054t4X39eFjD6Jqbw-1">
          <mxGeometry x="313" y="331" width="50" height="50" as="geometry" />
        </mxCell>
        <mxCell id="_4x054t4X39eFjD6Jqbw-17" value="" style="group" vertex="1" connectable="0" parent="_4x054t4X39eFjD6Jqbw-1">
          <mxGeometry x="320.5" y="352" width="45" height="34" as="geometry" />
        </mxCell>
        <mxCell id="_4x054t4X39eFjD6Jqbw-18" value="" style="verticalLabelPosition=bottom;verticalAlign=top;html=1;shape=mxgraph.basic.arc;startAngle=0.3544610871038937;endAngle=0.8957366412670039;shadow=0;strokeColor=#FF0000;rotation=-180;flipH=1;" vertex="1" parent="_4x054t4X39eFjD6Jqbw-17">
          <mxGeometry y="2" width="35" height="20" as="geometry" />
        </mxCell>
        <mxCell id="_4x054t4X39eFjD6Jqbw-19" value="&lt;font style=&quot;color: rgb(255, 0, 0);&quot;&gt;q&lt;sub&gt;2&lt;/sub&gt;&lt;/font&gt;" style="text;html=1;align=center;verticalAlign=middle;resizable=0;points=[];autosize=1;strokeColor=none;fillColor=none;" vertex="1" parent="_4x054t4X39eFjD6Jqbw-1">
          <mxGeometry x="200" y="405" width="40" height="30" as="geometry" />
        </mxCell>
        <mxCell id="_4x054t4X39eFjD6Jqbw-20" value="" style="shape=mxgraph.arrows2.wedgeArrow;html=1;bendable=0;startWidth=2.6829268292682933;fillColor=#FF0000;defaultFillColor=invert;defaultGradientColor=invert;rounded=0;strokeColor=#FF0000;strokeWidth=1;exitX=0.837;exitY=0.867;exitDx=0;exitDy=0;exitPerimeter=0;entryX=0.167;entryY=0.052;entryDx=0;entryDy=0;entryPerimeter=0;" edge="1" parent="_4x054t4X39eFjD6Jqbw-1" source="_4x054t4X39eFjD6Jqbw-18">
          <mxGeometry width="100" height="100" relative="1" as="geometry">
            <mxPoint x="355.5" y="359.5" as="sourcePoint" />
            <mxPoint x="354.67999999999984" y="362.56000000000006" as="targetPoint" />
          </mxGeometry>
        </mxCell>
        <mxCell id="_4x054t4X39eFjD6Jqbw-21" value="" style="endArrow=none;html=1;rounded=0;strokeWidth=3.1496;strokeColor=#000000;exitX=1;exitY=0.5;exitDx=0;exitDy=0;exitPerimeter=0;entryX=0;entryY=0.5;entryDx=0;entryDy=0;entryPerimeter=0;" edge="1" parent="_4x054t4X39eFjD6Jqbw-1">
          <mxGeometry width="50" height="50" relative="1" as="geometry">
            <mxPoint x="313.0000000000001" y="361" as="sourcePoint" />
            <mxPoint x="258" y="361" as="targetPoint" />
          </mxGeometry>
        </mxCell>
        <mxCell id="_4x054t4X39eFjD6Jqbw-22" value="&lt;font style=&quot;color: rgb(255, 0, 0);&quot;&gt;q&lt;sub&gt;3&lt;/sub&gt;&lt;/font&gt;" style="text;html=1;align=center;verticalAlign=middle;resizable=0;points=[];autosize=1;strokeColor=none;fillColor=none;" vertex="1" parent="_4x054t4X39eFjD6Jqbw-1">
          <mxGeometry x="323" y="351" width="40" height="30" as="geometry" />
        </mxCell>
        <mxCell id="_4x054t4X39eFjD6Jqbw-23" value="" style="ellipse;whiteSpace=wrap;html=1;aspect=fixed;strokeColor=light-dark(#0000FF,#EDEDED);" vertex="1" parent="_4x054t4X39eFjD6Jqbw-1">
          <mxGeometry x="493" y="406" as="geometry" />
        </mxCell>
        <mxCell id="_4x054t4X39eFjD6Jqbw-29" value="" style="endArrow=none;html=1;rounded=0;strokeWidth=3.1496;strokeColor=#000000;exitX=1;exitY=0.5;exitDx=0;exitDy=0;exitPerimeter=0;entryX=0;entryY=0.5;entryDx=0;entryDy=0;entryPerimeter=0;" edge="1" parent="_4x054t4X39eFjD6Jqbw-1">
          <mxGeometry width="50" height="50" relative="1" as="geometry">
            <mxPoint x="418.0000000000001" y="361.89" as="sourcePoint" />
            <mxPoint x="363" y="361.89" as="targetPoint" />
          </mxGeometry>
        </mxCell>
        <mxCell id="aBu9ZnOSOHO8Mtfvp_Yw-5" value="" style="group;rotation=90;" vertex="1" connectable="0" parent="_4x054t4X39eFjD6Jqbw-1">
          <mxGeometry x="230" y="401" width="60" height="30" as="geometry" />
        </mxCell>
        <mxCell id="aBu9ZnOSOHO8Mtfvp_Yw-1" value="" style="shape=cube;whiteSpace=wrap;html=1;boundedLbl=1;backgroundOutline=1;darkOpacity=0.05;darkOpacity2=0.1;size=10;rotation=90;" vertex="1" parent="aBu9ZnOSOHO8Mtfvp_Yw-5">
          <mxGeometry width="60" height="30" as="geometry" />
        </mxCell>
        <mxCell id="aBu9ZnOSOHO8Mtfvp_Yw-2" value="" style="endArrow=none;html=1;rounded=0;exitX=0;exitY=0;exitDx=10;exitDy=30.000000000000004;exitPerimeter=0;entryX=0;entryY=0;entryDx=60.00000000000001;entryDy=10;entryPerimeter=0;" edge="1" parent="aBu9ZnOSOHO8Mtfvp_Yw-5" source="aBu9ZnOSOHO8Mtfvp_Yw-1" target="aBu9ZnOSOHO8Mtfvp_Yw-1">
          <mxGeometry width="50" height="50" relative="1" as="geometry">
            <mxPoint x="5" y="25" as="sourcePoint" />
            <mxPoint x="55" y="75" as="targetPoint" />
          </mxGeometry>
        </mxCell>
        <mxCell id="aBu9ZnOSOHO8Mtfvp_Yw-3" value="" style="endArrow=none;html=1;rounded=0;exitX=1;exitY=1;exitDx=0;exitDy=0;exitPerimeter=0;entryX=0;entryY=0;entryDx=60.00000000000001;entryDy=10;entryPerimeter=0;" edge="1" parent="aBu9ZnOSOHO8Mtfvp_Yw-5" source="aBu9ZnOSOHO8Mtfvp_Yw-1">
          <mxGeometry width="50" height="50" relative="1" as="geometry">
            <mxPoint x="25" y="95" as="sourcePoint" />
            <mxPoint x="15" y="45" as="targetPoint" />
          </mxGeometry>
        </mxCell>
        <mxCell id="aBu9ZnOSOHO8Mtfvp_Yw-4" value="" style="endArrow=none;html=1;rounded=0;exitX=0;exitY=0;exitDx=10;exitDy=30.000000000000004;exitPerimeter=0;entryX=0;entryY=0;entryDx=60.00000000000001;entryDy=10;entryPerimeter=0;" edge="1" parent="aBu9ZnOSOHO8Mtfvp_Yw-5">
          <mxGeometry width="50" height="50" relative="1" as="geometry">
            <mxPoint x="15" y="45" as="sourcePoint" />
            <mxPoint x="35" y="-5" as="targetPoint" />
          </mxGeometry>
        </mxCell>
        <mxCell id="aBu9ZnOSOHO8Mtfvp_Yw-6" value="" style="endArrow=none;html=1;rounded=0;strokeWidth=3.1496;strokeColor=#000000;" edge="1" parent="_4x054t4X39eFjD6Jqbw-1">
          <mxGeometry width="50" height="50" relative="1" as="geometry">
            <mxPoint x="259.88049911519704" y="390" as="sourcePoint" />
            <mxPoint x="260" y="360" as="targetPoint" />
          </mxGeometry>
        </mxCell>
        <mxCell id="aBu9ZnOSOHO8Mtfvp_Yw-7" value="" style="endArrow=classic;startArrow=classic;html=1;rounded=0;strokeColor=#FF0000;" edge="1" parent="_4x054t4X39eFjD6Jqbw-1">
          <mxGeometry width="50" height="50" relative="1" as="geometry">
            <mxPoint x="230" y="450" as="sourcePoint" />
            <mxPoint x="230" y="390" as="targetPoint" />
          </mxGeometry>
        </mxCell>
      </root>
    </mxGraphModel>
  </diagram>
  <diagram id="cmGinbMMRP88EEgSMenB" name="3">
    <mxGraphModel dx="689" dy="403" grid="1" gridSize="10" guides="1" tooltips="1" connect="1" arrows="1" fold="1" page="1" pageScale="1" pageWidth="827" pageHeight="1169" math="0" shadow="0">
      <root>
        <mxCell id="0" />
        <mxCell id="1" parent="0" />
        <mxCell id="0j_08yl3eENqyAeCmU9C-1" value="" style="shape=cube;whiteSpace=wrap;html=1;boundedLbl=1;backgroundOutline=1;darkOpacity=0.05;darkOpacity2=0.1;size=19;rotation=90;" vertex="1" parent="1">
          <mxGeometry x="172.5" y="510" width="55" height="96" as="geometry" />
        </mxCell>
        <mxCell id="0j_08yl3eENqyAeCmU9C-2" value="" style="ellipse;whiteSpace=wrap;html=1;aspect=fixed;strokeColor=light-dark(#0000FF,#EDEDED);" vertex="1" parent="1">
          <mxGeometry x="223" y="463" as="geometry" />
        </mxCell>
        <mxCell id="0j_08yl3eENqyAeCmU9C-3" value="&lt;font style=&quot;color: rgb(255, 0, 0);&quot;&gt;q&lt;sub&gt;1&lt;/sub&gt;&lt;/font&gt;" style="text;html=1;align=center;verticalAlign=middle;resizable=0;points=[];autosize=1;strokeColor=none;fillColor=none;" vertex="1" parent="1">
          <mxGeometry x="140" y="466" width="40" height="30" as="geometry" />
        </mxCell>
        <mxCell id="0j_08yl3eENqyAeCmU9C-4" value="" style="group;rotation=90;flipH=0;flipV=1;" vertex="1" connectable="0" parent="1">
          <mxGeometry x="170" y="466" width="60" height="30" as="geometry" />
        </mxCell>
        <mxCell id="0j_08yl3eENqyAeCmU9C-5" value="" style="shape=cube;whiteSpace=wrap;html=1;boundedLbl=1;backgroundOutline=1;darkOpacity=0.05;darkOpacity2=0.1;size=10;rotation=90;" vertex="1" parent="0j_08yl3eENqyAeCmU9C-4">
          <mxGeometry width="60" height="30" as="geometry" />
        </mxCell>
        <mxCell id="0j_08yl3eENqyAeCmU9C-11" value="" style="endArrow=none;html=1;rounded=0;strokeWidth=3.1496;strokeColor=#000000;" edge="1" parent="0j_08yl3eENqyAeCmU9C-4">
          <mxGeometry width="50" height="50" relative="1" as="geometry">
            <mxPoint x="29.860499115197058" y="74" as="sourcePoint" />
            <mxPoint x="30" y="44" as="targetPoint" />
          </mxGeometry>
        </mxCell>
        <mxCell id="0j_08yl3eENqyAeCmU9C-9" value="" style="endArrow=classic;startArrow=classic;html=1;rounded=0;strokeColor=#FF0000;" edge="1" parent="1">
          <mxGeometry width="50" height="50" relative="1" as="geometry">
            <mxPoint x="170" y="511" as="sourcePoint" />
            <mxPoint x="170" y="451" as="targetPoint" />
          </mxGeometry>
        </mxCell>
        <mxCell id="0j_08yl3eENqyAeCmU9C-12" value="" style="shape=cylinder3;whiteSpace=wrap;html=1;boundedLbl=1;backgroundOutline=1;size=7.055555555555543;" vertex="1" parent="1">
          <mxGeometry x="180" y="380" width="40" height="60" as="geometry" />
        </mxCell>
        <mxCell id="0j_08yl3eENqyAeCmU9C-13" value="" style="group" vertex="1" connectable="0" parent="1">
          <mxGeometry x="182.5" y="380" width="35" height="10" as="geometry" />
        </mxCell>
        <mxCell id="0j_08yl3eENqyAeCmU9C-14" value="" style="verticalLabelPosition=bottom;verticalAlign=top;html=1;shape=mxgraph.basic.arc;startAngle=0.29895082563518965;endAngle=0.49834219596880786;shadow=0;strokeColor=#FF0000;" vertex="1" parent="0j_08yl3eENqyAeCmU9C-13">
          <mxGeometry width="35" height="10" as="geometry" />
        </mxCell>
        <mxCell id="0j_08yl3eENqyAeCmU9C-15" value="&lt;font style=&quot;color: rgb(255, 0, 0);&quot;&gt;q&lt;sub&gt;2&lt;/sub&gt;&lt;/font&gt;" style="text;html=1;align=center;verticalAlign=middle;resizable=0;points=[];autosize=1;strokeColor=none;fillColor=none;" vertex="1" parent="1">
          <mxGeometry x="188.5" y="387" width="40" height="30" as="geometry" />
        </mxCell>
        <mxCell id="0j_08yl3eENqyAeCmU9C-16" value="" style="ellipse;whiteSpace=wrap;html=1;aspect=fixed;strokeColor=light-dark(#0000FF,#EDEDED);" vertex="1" parent="1">
          <mxGeometry x="330" y="420" as="geometry" />
        </mxCell>
        <mxCell id="0j_08yl3eENqyAeCmU9C-17" value="" style="shape=mxgraph.arrows2.wedgeArrow;html=1;bendable=0;startWidth=1.7592592592592595;fillColor=#FF0000;defaultFillColor=invert;defaultGradientColor=invert;rounded=0;exitX=0.603;exitY=0.067;exitDx=0;exitDy=0;exitPerimeter=0;strokeColor=#FF0000;strokeWidth=1;entryX=0.694;entryY=-0.022;entryDx=0;entryDy=0;entryPerimeter=0;" edge="1" source="0j_08yl3eENqyAeCmU9C-15" target="0j_08yl3eENqyAeCmU9C-15" parent="1">
          <mxGeometry width="100" height="100" relative="1" as="geometry">
            <mxPoint x="204.5" y="388" as="sourcePoint" />
            <mxPoint x="207.45" y="383.48" as="targetPoint" />
          </mxGeometry>
        </mxCell>
        <mxCell id="0j_08yl3eENqyAeCmU9C-18" value="" style="endArrow=none;html=1;rounded=0;strokeWidth=3.1496;strokeColor=#000000;" edge="1" parent="1">
          <mxGeometry width="50" height="50" relative="1" as="geometry">
            <mxPoint x="199.86" y="458" as="sourcePoint" />
            <mxPoint x="200" y="440" as="targetPoint" />
          </mxGeometry>
        </mxCell>
        <mxCell id="0j_08yl3eENqyAeCmU9C-19" value="" style="endArrow=none;html=1;rounded=0;strokeWidth=3.1496;strokeColor=#000000;" edge="1" parent="1">
          <mxGeometry width="50" height="50" relative="1" as="geometry">
            <mxPoint x="199.82999999999998" y="387" as="sourcePoint" />
            <mxPoint x="199.96999999999997" y="369" as="targetPoint" />
          </mxGeometry>
        </mxCell>
        <mxCell id="0j_08yl3eENqyAeCmU9C-21" value="" style="endArrow=none;html=1;rounded=0;strokeWidth=3.1496;strokeColor=#000000;entryX=0;entryY=0.5;entryDx=0;entryDy=0;entryPerimeter=0;" edge="1" parent="1">
          <mxGeometry width="50" height="50" relative="1" as="geometry">
            <mxPoint x="320" y="370" as="sourcePoint" />
            <mxPoint x="198.5" y="370" as="targetPoint" />
          </mxGeometry>
        </mxCell>
        <mxCell id="0j_08yl3eENqyAeCmU9C-22" value="" style="shape=cylinder3;whiteSpace=wrap;html=1;boundedLbl=1;backgroundOutline=1;size=7.055555555555543;" vertex="1" parent="1">
          <mxGeometry x="300" y="380" width="40" height="60" as="geometry" />
        </mxCell>
        <mxCell id="0j_08yl3eENqyAeCmU9C-23" value="" style="group" vertex="1" connectable="0" parent="1">
          <mxGeometry x="302.5" y="380" width="35" height="10" as="geometry" />
        </mxCell>
        <mxCell id="0j_08yl3eENqyAeCmU9C-24" value="" style="verticalLabelPosition=bottom;verticalAlign=top;html=1;shape=mxgraph.basic.arc;startAngle=0.29895082563518965;endAngle=0.49834219596880786;shadow=0;strokeColor=#FF0000;" vertex="1" parent="0j_08yl3eENqyAeCmU9C-23">
          <mxGeometry width="35" height="10" as="geometry" />
        </mxCell>
        <mxCell id="0j_08yl3eENqyAeCmU9C-25" value="&lt;font style=&quot;color: rgb(255, 0, 0);&quot;&gt;q&lt;sub&gt;3&lt;/sub&gt;&lt;/font&gt;" style="text;html=1;align=center;verticalAlign=middle;resizable=0;points=[];autosize=1;strokeColor=none;fillColor=none;" vertex="1" parent="1">
          <mxGeometry x="308.5" y="387" width="40" height="30" as="geometry" />
        </mxCell>
        <mxCell id="0j_08yl3eENqyAeCmU9C-26" value="" style="shape=mxgraph.arrows2.wedgeArrow;html=1;bendable=0;startWidth=1.7592592592592595;fillColor=#FF0000;defaultFillColor=invert;defaultGradientColor=invert;rounded=0;exitX=0.603;exitY=0.067;exitDx=0;exitDy=0;exitPerimeter=0;strokeColor=#FF0000;strokeWidth=1;entryX=0.694;entryY=-0.022;entryDx=0;entryDy=0;entryPerimeter=0;" edge="1" parent="1" source="0j_08yl3eENqyAeCmU9C-25" target="0j_08yl3eENqyAeCmU9C-25">
          <mxGeometry width="100" height="100" relative="1" as="geometry">
            <mxPoint x="324.5" y="388" as="sourcePoint" />
            <mxPoint x="327.45" y="383.48" as="targetPoint" />
          </mxGeometry>
        </mxCell>
        <mxCell id="0j_08yl3eENqyAeCmU9C-27" value="" style="endArrow=none;html=1;rounded=0;strokeWidth=3.1496;strokeColor=#000000;" edge="1" parent="1">
          <mxGeometry width="50" height="50" relative="1" as="geometry">
            <mxPoint x="319.83" y="387" as="sourcePoint" />
            <mxPoint x="319.96999999999997" y="369" as="targetPoint" />
          </mxGeometry>
        </mxCell>
        <mxCell id="0j_08yl3eENqyAeCmU9C-29" value="" style="endArrow=none;html=1;rounded=0;strokeWidth=3.1496;strokeColor=#000000;" edge="1" parent="1">
          <mxGeometry width="50" height="50" relative="1" as="geometry">
            <mxPoint x="319.83" y="470" as="sourcePoint" />
            <mxPoint x="319.9695008848029" y="440" as="targetPoint" />
          </mxGeometry>
        </mxCell>
        <mxCell id="0j_08yl3eENqyAeCmU9C-30" value="" style="group;rotation=90;strokeColor=none;" vertex="1" connectable="0" parent="1">
          <mxGeometry x="305" y="463" width="30" height="40" as="geometry" />
        </mxCell>
        <mxCell id="0j_08yl3eENqyAeCmU9C-31" value="" style="ellipse;whiteSpace=wrap;html=1;aspect=fixed;rotation=0;" vertex="1" parent="0j_08yl3eENqyAeCmU9C-30">
          <mxGeometry x="10" width="10" height="10" as="geometry" />
        </mxCell>
        <mxCell id="0j_08yl3eENqyAeCmU9C-32" value="" style="endArrow=none;html=1;rounded=0;entryX=0;entryY=1;entryDx=0;entryDy=0;" edge="1" parent="0j_08yl3eENqyAeCmU9C-30" target="0j_08yl3eENqyAeCmU9C-31">
          <mxGeometry width="50" height="50" relative="1" as="geometry">
            <mxPoint y="20" as="sourcePoint" />
            <mxPoint x="40" y="-10" as="targetPoint" />
          </mxGeometry>
        </mxCell>
        <mxCell id="0j_08yl3eENqyAeCmU9C-33" value="" style="endArrow=none;html=1;rounded=0;entryX=1;entryY=1;entryDx=0;entryDy=0;" edge="1" parent="0j_08yl3eENqyAeCmU9C-30" target="0j_08yl3eENqyAeCmU9C-31">
          <mxGeometry width="50" height="50" relative="1" as="geometry">
            <mxPoint x="30" y="20" as="sourcePoint" />
            <mxPoint x="21" y="19" as="targetPoint" />
          </mxGeometry>
        </mxCell>
        <mxCell id="0j_08yl3eENqyAeCmU9C-34" value="" style="endArrow=none;html=1;rounded=0;" edge="1" parent="0j_08yl3eENqyAeCmU9C-30">
          <mxGeometry width="50" height="50" relative="1" as="geometry">
            <mxPoint y="40" as="sourcePoint" />
            <mxPoint y="20" as="targetPoint" />
          </mxGeometry>
        </mxCell>
        <mxCell id="0j_08yl3eENqyAeCmU9C-35" value="" style="endArrow=none;html=1;rounded=0;" edge="1" parent="0j_08yl3eENqyAeCmU9C-30">
          <mxGeometry width="50" height="50" relative="1" as="geometry">
            <mxPoint x="30" y="40" as="sourcePoint" />
            <mxPoint x="30" y="20" as="targetPoint" />
          </mxGeometry>
        </mxCell>
      </root>
    </mxGraphModel>
  </diagram>
  <diagram id="2uGwu7Voe1jiQZRH--t-" name="4">
    <mxGraphModel dx="1425" dy="834" grid="1" gridSize="10" guides="1" tooltips="1" connect="1" arrows="1" fold="1" page="1" pageScale="1" pageWidth="827" pageHeight="1169" math="0" shadow="0">
      <root>
        <mxCell id="0" />
        <mxCell id="1" parent="0" />
        <mxCell id="gssY4KSvkeqA2aCbC9k5-1" value="" style="ellipse;whiteSpace=wrap;html=1;aspect=fixed;strokeColor=light-dark(#0000FF,#EDEDED);" vertex="1" parent="1">
          <mxGeometry x="323" y="512" as="geometry" />
        </mxCell>
        <mxCell id="gssY4KSvkeqA2aCbC9k5-2" value="&lt;font style=&quot;color: rgb(255, 0, 0);&quot;&gt;q&lt;sub&gt;1(y)&lt;/sub&gt;&lt;/font&gt;" style="text;html=1;align=center;verticalAlign=middle;resizable=0;points=[];autosize=1;strokeColor=none;fillColor=none;" vertex="1" parent="1">
          <mxGeometry x="292.75" y="530" width="50" height="30" as="geometry" />
        </mxCell>
        <mxCell id="gssY4KSvkeqA2aCbC9k5-10" value="" style="group;rotation=-210;" vertex="1" connectable="0" parent="1">
          <mxGeometry x="384" y="555" width="71" height="30" as="geometry" />
        </mxCell>
        <mxCell id="gssY4KSvkeqA2aCbC9k5-11" value="" style="shape=cube;whiteSpace=wrap;html=1;boundedLbl=1;backgroundOutline=1;darkOpacity=0.05;darkOpacity2=0.1;size=9;rotation=-140;" vertex="1" parent="gssY4KSvkeqA2aCbC9k5-10">
          <mxGeometry x="2.5" y="-4.33" width="50" height="30" as="geometry" />
        </mxCell>
        <mxCell id="gssY4KSvkeqA2aCbC9k5-23" value="" style="endArrow=classic;startArrow=classic;html=1;rounded=0;strokeColor=#FF0000;" edge="1" parent="gssY4KSvkeqA2aCbC9k5-10">
          <mxGeometry width="50" height="50" relative="1" as="geometry">
            <mxPoint x="26" y="-26.370000000000005" as="sourcePoint" />
            <mxPoint x="56" y="1.6299999999999955" as="targetPoint" />
          </mxGeometry>
        </mxCell>
        <mxCell id="gssY4KSvkeqA2aCbC9k5-12" value="" style="ellipse;whiteSpace=wrap;html=1;aspect=fixed;strokeColor=light-dark(#0000FF,#EDEDED);" vertex="1" parent="1">
          <mxGeometry x="460" y="639" as="geometry" />
        </mxCell>
        <mxCell id="gssY4KSvkeqA2aCbC9k5-13" value="&lt;font style=&quot;color: rgb(255, 0, 0);&quot;&gt;q&lt;sub&gt;3(z)&lt;/sub&gt;&lt;/font&gt;" style="text;html=1;align=center;verticalAlign=middle;resizable=0;points=[];autosize=1;strokeColor=none;fillColor=none;" vertex="1" parent="1">
          <mxGeometry x="452" y="638" width="50" height="30" as="geometry" />
        </mxCell>
        <mxCell id="gssY4KSvkeqA2aCbC9k5-14" value="" style="group;rotation=90;" vertex="1" connectable="0" parent="1">
          <mxGeometry x="407" y="638" width="60" height="30" as="geometry" />
        </mxCell>
        <mxCell id="gssY4KSvkeqA2aCbC9k5-15" value="" style="shape=cube;whiteSpace=wrap;html=1;boundedLbl=1;backgroundOutline=1;darkOpacity=0.05;darkOpacity2=0.1;size=10;rotation=90;" vertex="1" parent="gssY4KSvkeqA2aCbC9k5-14">
          <mxGeometry width="60" height="30" as="geometry" />
        </mxCell>
        <mxCell id="gssY4KSvkeqA2aCbC9k5-17" value="" style="endArrow=none;html=1;rounded=0;exitX=1;exitY=1;exitDx=0;exitDy=0;exitPerimeter=0;entryX=0;entryY=0;entryDx=60.00000000000001;entryDy=10;entryPerimeter=0;" edge="1" parent="gssY4KSvkeqA2aCbC9k5-14" source="gssY4KSvkeqA2aCbC9k5-15">
          <mxGeometry width="50" height="50" relative="1" as="geometry">
            <mxPoint x="25" y="95" as="sourcePoint" />
            <mxPoint x="15" y="45" as="targetPoint" />
          </mxGeometry>
        </mxCell>
        <mxCell id="gssY4KSvkeqA2aCbC9k5-19" value="" style="endArrow=classic;startArrow=classic;html=1;rounded=0;strokeColor=#FF0000;" edge="1" parent="1">
          <mxGeometry width="50" height="50" relative="1" as="geometry">
            <mxPoint x="460" y="683" as="sourcePoint" />
            <mxPoint x="460" y="623" as="targetPoint" />
          </mxGeometry>
        </mxCell>
        <mxCell id="OVp7x1DZ3Rw18C8OaN0b-1" value="" style="shape=cube;whiteSpace=wrap;html=1;boundedLbl=1;backgroundOutline=1;darkOpacity=0.05;darkOpacity2=0.1;size=21;rotation=90;" vertex="1" parent="1">
          <mxGeometry x="220" y="482.63" width="80" height="74" as="geometry" />
        </mxCell>
        <mxCell id="OVp7x1DZ3Rw18C8OaN0b-2" value="" style="shape=cube;whiteSpace=wrap;html=1;boundedLbl=1;backgroundOutline=1;darkOpacity=0.05;darkOpacity2=0.1;size=6;rotation=90;" vertex="1" parent="1">
          <mxGeometry x="305.5" y="490" width="24.5" height="59.25" as="geometry" />
        </mxCell>
        <mxCell id="gssY4KSvkeqA2aCbC9k5-8" value="" style="endArrow=classic;startArrow=classic;html=1;rounded=0;strokeColor=#FF0000;" edge="1" parent="1">
          <mxGeometry width="50" height="50" relative="1" as="geometry">
            <mxPoint x="287.75" y="540" as="sourcePoint" />
            <mxPoint x="347.75" y="540" as="targetPoint" />
          </mxGeometry>
        </mxCell>
        <mxCell id="OVp7x1DZ3Rw18C8OaN0b-3" value="" style="endArrow=none;html=1;rounded=0;strokeWidth=3.1496;strokeColor=#000000;" edge="1" parent="1">
          <mxGeometry width="50" height="50" relative="1" as="geometry">
            <mxPoint x="437" y="627.5" as="sourcePoint" />
            <mxPoint x="427" y="577" as="targetPoint" />
            <Array as="points">
              <mxPoint x="437" y="587.5" />
            </Array>
          </mxGeometry>
        </mxCell>
        <mxCell id="OVp7x1DZ3Rw18C8OaN0b-4" value="" style="endArrow=none;html=1;rounded=0;strokeWidth=3.1496;strokeColor=#000000;exitX=0;exitY=0;exitDx=50;exitDy=19.5;exitPerimeter=0;entryX=0;entryY=0.5;entryDx=0;entryDy=0;entryPerimeter=0;" edge="1" parent="1" source="gssY4KSvkeqA2aCbC9k5-11">
          <mxGeometry width="50" height="50" relative="1" as="geometry">
            <mxPoint x="399.7500000000001" y="519.58" as="sourcePoint" />
            <mxPoint x="344.75" y="519.58" as="targetPoint" />
            <Array as="points">
              <mxPoint x="370" y="520" />
            </Array>
          </mxGeometry>
        </mxCell>
        <mxCell id="OVp7x1DZ3Rw18C8OaN0b-5" value="" style="endArrow=none;html=1;rounded=0;strokeWidth=3.1496;strokeColor=#000000;" edge="1" parent="1">
          <mxGeometry width="50" height="50" relative="1" as="geometry">
            <mxPoint x="436.86" y="713" as="sourcePoint" />
            <mxPoint x="436.86" y="683" as="targetPoint" />
          </mxGeometry>
        </mxCell>
        <mxCell id="OVp7x1DZ3Rw18C8OaN0b-6" value="" style="group;rotation=90;strokeColor=none;" vertex="1" connectable="0" parent="1">
          <mxGeometry x="422" y="703" width="30" height="40" as="geometry" />
        </mxCell>
        <mxCell id="OVp7x1DZ3Rw18C8OaN0b-7" value="" style="ellipse;whiteSpace=wrap;html=1;aspect=fixed;rotation=0;" vertex="1" parent="OVp7x1DZ3Rw18C8OaN0b-6">
          <mxGeometry x="10" width="10" height="10" as="geometry" />
        </mxCell>
        <mxCell id="OVp7x1DZ3Rw18C8OaN0b-8" value="" style="endArrow=none;html=1;rounded=0;entryX=0;entryY=1;entryDx=0;entryDy=0;" edge="1" parent="OVp7x1DZ3Rw18C8OaN0b-6" target="OVp7x1DZ3Rw18C8OaN0b-7">
          <mxGeometry width="50" height="50" relative="1" as="geometry">
            <mxPoint y="20" as="sourcePoint" />
            <mxPoint x="40" y="-10" as="targetPoint" />
          </mxGeometry>
        </mxCell>
        <mxCell id="OVp7x1DZ3Rw18C8OaN0b-9" value="" style="endArrow=none;html=1;rounded=0;entryX=1;entryY=1;entryDx=0;entryDy=0;" edge="1" parent="OVp7x1DZ3Rw18C8OaN0b-6" target="OVp7x1DZ3Rw18C8OaN0b-7">
          <mxGeometry width="50" height="50" relative="1" as="geometry">
            <mxPoint x="30" y="20" as="sourcePoint" />
            <mxPoint x="21" y="19" as="targetPoint" />
          </mxGeometry>
        </mxCell>
        <mxCell id="OVp7x1DZ3Rw18C8OaN0b-10" value="" style="endArrow=none;html=1;rounded=0;" edge="1" parent="OVp7x1DZ3Rw18C8OaN0b-6">
          <mxGeometry width="50" height="50" relative="1" as="geometry">
            <mxPoint y="40" as="sourcePoint" />
            <mxPoint y="20" as="targetPoint" />
          </mxGeometry>
        </mxCell>
        <mxCell id="OVp7x1DZ3Rw18C8OaN0b-11" value="" style="endArrow=none;html=1;rounded=0;" edge="1" parent="OVp7x1DZ3Rw18C8OaN0b-6">
          <mxGeometry width="50" height="50" relative="1" as="geometry">
            <mxPoint x="30" y="40" as="sourcePoint" />
            <mxPoint x="30" y="20" as="targetPoint" />
          </mxGeometry>
        </mxCell>
        <mxCell id="gssY4KSvkeqA2aCbC9k5-24" value="&lt;font style=&quot;color: rgb(255, 0, 0);&quot;&gt;q&lt;sub&gt;2(x)&lt;/sub&gt;&lt;/font&gt;" style="text;html=1;align=center;verticalAlign=middle;resizable=0;points=[];autosize=1;strokeColor=none;fillColor=none;" vertex="1" parent="1">
          <mxGeometry x="414" y="520.67" width="50" height="30" as="geometry" />
        </mxCell>
        <mxCell id="OVp7x1DZ3Rw18C8OaN0b-12" value="" style="endArrow=classic;html=1;rounded=0;" edge="1" parent="1">
          <mxGeometry width="50" height="50" relative="1" as="geometry">
            <mxPoint x="240" y="640" as="sourcePoint" />
            <mxPoint x="240" y="600" as="targetPoint" />
          </mxGeometry>
        </mxCell>
        <mxCell id="OVp7x1DZ3Rw18C8OaN0b-13" value="" style="endArrow=classic;html=1;rounded=0;" edge="1" parent="1">
          <mxGeometry width="50" height="50" relative="1" as="geometry">
            <mxPoint x="240" y="640" as="sourcePoint" />
            <mxPoint x="280" y="640" as="targetPoint" />
          </mxGeometry>
        </mxCell>
        <mxCell id="OVp7x1DZ3Rw18C8OaN0b-14" value="" style="endArrow=classic;html=1;rounded=0;" edge="1" parent="1">
          <mxGeometry width="50" height="50" relative="1" as="geometry">
            <mxPoint x="240" y="639" as="sourcePoint" />
            <mxPoint x="260" y="659" as="targetPoint" />
          </mxGeometry>
        </mxCell>
        <mxCell id="OVp7x1DZ3Rw18C8OaN0b-15" value="x" style="text;html=1;align=center;verticalAlign=middle;resizable=0;points=[];autosize=1;strokeColor=none;fillColor=none;" vertex="1" parent="1">
          <mxGeometry x="235" y="649" width="30" height="30" as="geometry" />
        </mxCell>
        <mxCell id="OVp7x1DZ3Rw18C8OaN0b-16" value="y" style="text;html=1;align=center;verticalAlign=middle;resizable=0;points=[];autosize=1;strokeColor=none;fillColor=none;" vertex="1" parent="1">
          <mxGeometry x="265" y="616" width="30" height="30" as="geometry" />
        </mxCell>
        <mxCell id="OVp7x1DZ3Rw18C8OaN0b-17" value="z" style="text;html=1;align=center;verticalAlign=middle;resizable=0;points=[];autosize=1;strokeColor=none;fillColor=none;" vertex="1" parent="1">
          <mxGeometry x="232" y="586" width="30" height="30" as="geometry" />
        </mxCell>
      </root>
    </mxGraphModel>
  </diagram>
  <diagram id="1PRe3IN9eBrN9CYp9fXs" name="5">
    <mxGraphModel dx="826" dy="484" grid="1" gridSize="10" guides="1" tooltips="1" connect="1" arrows="1" fold="1" page="1" pageScale="1" pageWidth="827" pageHeight="1169" math="0" shadow="0">
      <root>
        <mxCell id="0" />
        <mxCell id="1" parent="0" />
        <mxCell id="3iOLXCP7YSPmb7PeUaP2-1" value="" style="shape=cube;whiteSpace=wrap;html=1;boundedLbl=1;backgroundOutline=1;darkOpacity=0.05;darkOpacity2=0.1;size=30;" vertex="1" parent="1">
          <mxGeometry x="350" y="580" width="120" height="80" as="geometry" />
        </mxCell>
        <mxCell id="3iOLXCP7YSPmb7PeUaP2-2" value="" style="shape=cylinder3;whiteSpace=wrap;html=1;boundedLbl=1;backgroundOutline=1;size=15;" vertex="1" parent="1">
          <mxGeometry x="376" y="520" width="60" height="80" as="geometry" />
        </mxCell>
        <mxCell id="3iOLXCP7YSPmb7PeUaP2-3" value="" style="group" vertex="1" connectable="0" parent="1">
          <mxGeometry x="381" y="526" width="50" height="20" as="geometry" />
        </mxCell>
        <mxCell id="3iOLXCP7YSPmb7PeUaP2-4" value="" style="verticalLabelPosition=bottom;verticalAlign=top;html=1;shape=mxgraph.basic.arc;startAngle=0.29895082563518965;endAngle=0.49834219596880786;shadow=0;strokeColor=#FF0000;" vertex="1" parent="3iOLXCP7YSPmb7PeUaP2-3">
          <mxGeometry width="50" height="20" as="geometry" />
        </mxCell>
        <mxCell id="3iOLXCP7YSPmb7PeUaP2-5" value="&lt;font style=&quot;color: rgb(255, 0, 0);&quot;&gt;q&lt;sub&gt;1&lt;/sub&gt;&lt;/font&gt;" style="text;html=1;align=center;verticalAlign=middle;resizable=0;points=[];autosize=1;strokeColor=none;fillColor=none;" vertex="1" parent="1">
          <mxGeometry x="402" y="540" width="40" height="30" as="geometry" />
        </mxCell>
        <mxCell id="3iOLXCP7YSPmb7PeUaP2-6" value="" style="ellipse;whiteSpace=wrap;html=1;aspect=fixed;strokeColor=light-dark(#0000FF,#EDEDED);" vertex="1" parent="1">
          <mxGeometry x="451" y="506" as="geometry" />
        </mxCell>
        <mxCell id="3iOLXCP7YSPmb7PeUaP2-7" value="" style="shape=mxgraph.arrows2.wedgeArrow;html=1;bendable=0;startWidth=1.7592592592592595;fillColor=#FF0000;defaultFillColor=invert;defaultGradientColor=invert;rounded=0;exitX=0.603;exitY=0.067;exitDx=0;exitDy=0;exitPerimeter=0;strokeColor=#FF0000;strokeWidth=1;entryX=0.694;entryY=-0.022;entryDx=0;entryDy=0;entryPerimeter=0;" edge="1" source="3iOLXCP7YSPmb7PeUaP2-5" target="3iOLXCP7YSPmb7PeUaP2-5" parent="1">
          <mxGeometry width="100" height="100" relative="1" as="geometry">
            <mxPoint x="423" y="544" as="sourcePoint" />
            <mxPoint x="425.95" y="539.48" as="targetPoint" />
          </mxGeometry>
        </mxCell>
        <mxCell id="3iOLXCP7YSPmb7PeUaP2-8" value="" style="ellipse;whiteSpace=wrap;html=1;aspect=fixed;strokeColor=light-dark(#0000FF,#EDEDED);" vertex="1" parent="1">
          <mxGeometry x="433" y="412" as="geometry" />
        </mxCell>
        <mxCell id="3iOLXCP7YSPmb7PeUaP2-9" value="&lt;font style=&quot;color: rgb(255, 0, 0);&quot;&gt;q&lt;sub&gt;2&lt;/sub&gt;&lt;/font&gt;" style="text;html=1;align=center;verticalAlign=middle;resizable=0;points=[];autosize=1;strokeColor=none;fillColor=none;" vertex="1" parent="1">
          <mxGeometry x="470" y="420" width="40" height="30" as="geometry" />
        </mxCell>
        <mxCell id="3iOLXCP7YSPmb7PeUaP2-10" value="" style="group;rotation=0;" vertex="1" connectable="0" parent="1">
          <mxGeometry x="455" y="464" width="60" height="30" as="geometry" />
        </mxCell>
        <mxCell id="3iOLXCP7YSPmb7PeUaP2-11" value="" style="shape=cube;whiteSpace=wrap;html=1;boundedLbl=1;backgroundOutline=1;darkOpacity=0.05;darkOpacity2=0.1;size=10;rotation=0;" vertex="1" parent="3iOLXCP7YSPmb7PeUaP2-10">
          <mxGeometry width="60" height="30" as="geometry" />
        </mxCell>
        <mxCell id="3iOLXCP7YSPmb7PeUaP2-13" value="" style="endArrow=none;html=1;rounded=0;exitX=1;exitY=1;exitDx=0;exitDy=0;exitPerimeter=0;entryX=0;entryY=0;entryDx=60.00000000000001;entryDy=10;entryPerimeter=0;" edge="1" parent="3iOLXCP7YSPmb7PeUaP2-10" source="3iOLXCP7YSPmb7PeUaP2-11">
          <mxGeometry width="50" height="50" relative="1" as="geometry">
            <mxPoint x="110" y="20" as="sourcePoint" />
            <mxPoint x="60" y="30" as="targetPoint" />
          </mxGeometry>
        </mxCell>
        <mxCell id="3iOLXCP7YSPmb7PeUaP2-15" value="" style="endArrow=classic;startArrow=classic;html=1;rounded=0;strokeColor=#FF0000;" edge="1" parent="1">
          <mxGeometry width="50" height="50" relative="1" as="geometry">
            <mxPoint x="455" y="449" as="sourcePoint" />
            <mxPoint x="515" y="449" as="targetPoint" />
          </mxGeometry>
        </mxCell>
        <mxCell id="3iOLXCP7YSPmb7PeUaP2-19" value="" style="shape=cylinder3;whiteSpace=wrap;html=1;boundedLbl=1;backgroundOutline=1;size=17.594202898550805;rotation=-180;" vertex="1" parent="1">
          <mxGeometry x="560" y="486" width="50" height="50" as="geometry" />
        </mxCell>
        <mxCell id="3iOLXCP7YSPmb7PeUaP2-20" value="" style="group" vertex="1" connectable="0" parent="1">
          <mxGeometry x="567.5" y="507" width="45" height="34" as="geometry" />
        </mxCell>
        <mxCell id="3iOLXCP7YSPmb7PeUaP2-21" value="" style="verticalLabelPosition=bottom;verticalAlign=top;html=1;shape=mxgraph.basic.arc;startAngle=0.3544610871038937;endAngle=0.8957366412670039;shadow=0;strokeColor=#FF0000;rotation=-180;flipH=1;" vertex="1" parent="3iOLXCP7YSPmb7PeUaP2-20">
          <mxGeometry y="2" width="35" height="20" as="geometry" />
        </mxCell>
        <mxCell id="3iOLXCP7YSPmb7PeUaP2-22" value="&lt;font style=&quot;color: rgb(255, 0, 0);&quot;&gt;q&lt;sub&gt;3&lt;/sub&gt;&lt;/font&gt;" style="text;html=1;align=center;verticalAlign=middle;resizable=0;points=[];autosize=1;strokeColor=none;fillColor=none;" vertex="1" parent="1">
          <mxGeometry x="595" y="516" width="40" height="30" as="geometry" />
        </mxCell>
        <mxCell id="3iOLXCP7YSPmb7PeUaP2-23" value="" style="shape=mxgraph.arrows2.wedgeArrow;html=1;bendable=0;startWidth=2.6829268292682933;fillColor=#FF0000;defaultFillColor=invert;defaultGradientColor=invert;rounded=0;strokeColor=#FF0000;strokeWidth=1;exitX=0.837;exitY=0.867;exitDx=0;exitDy=0;exitPerimeter=0;entryX=0.167;entryY=0.052;entryDx=0;entryDy=0;entryPerimeter=0;" edge="1" source="3iOLXCP7YSPmb7PeUaP2-21" target="3iOLXCP7YSPmb7PeUaP2-22" parent="1">
          <mxGeometry width="100" height="100" relative="1" as="geometry">
            <mxPoint x="602.5" y="514.5" as="sourcePoint" />
            <mxPoint x="602.5" y="519.5" as="targetPoint" />
          </mxGeometry>
        </mxCell>
        <mxCell id="3iOLXCP7YSPmb7PeUaP2-24" value="" style="endArrow=none;html=1;rounded=0;" edge="1" parent="1">
          <mxGeometry width="50" height="50" relative="1" as="geometry">
            <mxPoint x="407" y="535" as="sourcePoint" />
            <mxPoint x="460" y="480" as="targetPoint" />
            <Array as="points">
              <mxPoint x="407" y="480" />
            </Array>
          </mxGeometry>
        </mxCell>
        <mxCell id="3iOLXCP7YSPmb7PeUaP2-25" value="" style="endArrow=none;html=1;rounded=0;entryX=0;entryY=0;entryDx=60;entryDy=20;entryPerimeter=0;exitX=1;exitY=0;exitDx=0;exitDy=21.297101449275402;exitPerimeter=0;" edge="1" parent="1" source="3iOLXCP7YSPmb7PeUaP2-19" target="3iOLXCP7YSPmb7PeUaP2-11">
          <mxGeometry width="50" height="50" relative="1" as="geometry">
            <mxPoint x="440" y="510" as="sourcePoint" />
            <mxPoint x="490" y="460" as="targetPoint" />
            <Array as="points">
              <mxPoint x="540" y="515" />
              <mxPoint x="540" y="484" />
            </Array>
          </mxGeometry>
        </mxCell>
        <mxCell id="3iOLXCP7YSPmb7PeUaP2-26" value="" style="endArrow=none;html=1;rounded=0;exitX=0;exitY=0;exitDx=0;exitDy=17.594202898550805;exitPerimeter=0;entryX=0.82;entryY=0.085;entryDx=0;entryDy=0;entryPerimeter=0;" edge="1" parent="1" source="3iOLXCP7YSPmb7PeUaP2-19" target="3iOLXCP7YSPmb7PeUaP2-22">
          <mxGeometry width="50" height="50" relative="1" as="geometry">
            <mxPoint x="440" y="510" as="sourcePoint" />
            <mxPoint x="490" y="460" as="targetPoint" />
          </mxGeometry>
        </mxCell>
        <mxCell id="3iOLXCP7YSPmb7PeUaP2-27" value="" style="group;rotation=0;strokeColor=none;" vertex="1" connectable="0" parent="1">
          <mxGeometry x="630" y="498" width="30" height="40" as="geometry" />
        </mxCell>
        <mxCell id="3iOLXCP7YSPmb7PeUaP2-28" value="" style="ellipse;whiteSpace=wrap;html=1;aspect=fixed;rotation=-90;" vertex="1" parent="3iOLXCP7YSPmb7PeUaP2-27">
          <mxGeometry x="-5" y="15" width="10" height="10" as="geometry" />
        </mxCell>
        <mxCell id="3iOLXCP7YSPmb7PeUaP2-29" value="" style="endArrow=none;html=1;rounded=0;entryX=0;entryY=1;entryDx=0;entryDy=0;" edge="1" parent="3iOLXCP7YSPmb7PeUaP2-27" target="3iOLXCP7YSPmb7PeUaP2-28">
          <mxGeometry width="50" height="50" relative="1" as="geometry">
            <mxPoint x="15" y="35" as="sourcePoint" />
            <mxPoint x="-15" y="-5" as="targetPoint" />
          </mxGeometry>
        </mxCell>
        <mxCell id="3iOLXCP7YSPmb7PeUaP2-30" value="" style="endArrow=none;html=1;rounded=0;entryX=1;entryY=1;entryDx=0;entryDy=0;" edge="1" parent="3iOLXCP7YSPmb7PeUaP2-27" target="3iOLXCP7YSPmb7PeUaP2-28">
          <mxGeometry width="50" height="50" relative="1" as="geometry">
            <mxPoint x="15" y="5" as="sourcePoint" />
            <mxPoint x="14" y="14" as="targetPoint" />
          </mxGeometry>
        </mxCell>
        <mxCell id="3iOLXCP7YSPmb7PeUaP2-31" value="" style="endArrow=none;html=1;rounded=0;" edge="1" parent="3iOLXCP7YSPmb7PeUaP2-27">
          <mxGeometry width="50" height="50" relative="1" as="geometry">
            <mxPoint x="35" y="35" as="sourcePoint" />
            <mxPoint x="15" y="35" as="targetPoint" />
          </mxGeometry>
        </mxCell>
        <mxCell id="3iOLXCP7YSPmb7PeUaP2-32" value="" style="endArrow=none;html=1;rounded=0;" edge="1" parent="3iOLXCP7YSPmb7PeUaP2-27">
          <mxGeometry width="50" height="50" relative="1" as="geometry">
            <mxPoint x="35" y="5" as="sourcePoint" />
            <mxPoint x="15" y="5" as="targetPoint" />
          </mxGeometry>
        </mxCell>
      </root>
    </mxGraphModel>
  </diagram>
  <diagram id="ts5X-qpCHPllvGH1ix83" name="6">
    <mxGraphModel dx="689" dy="403" grid="1" gridSize="10" guides="1" tooltips="1" connect="1" arrows="1" fold="1" page="1" pageScale="1" pageWidth="827" pageHeight="1169" math="0" shadow="0">
      <root>
        <mxCell id="0" />
        <mxCell id="1" parent="0" />
        <mxCell id="8MJp4vxVLIMPbdV4kq0U-1" value="" style="shape=cube;whiteSpace=wrap;html=1;boundedLbl=1;backgroundOutline=1;darkOpacity=0.05;darkOpacity2=0.1;size=30;" vertex="1" parent="1">
          <mxGeometry x="350" y="580" width="120" height="80" as="geometry" />
        </mxCell>
        <mxCell id="8MJp4vxVLIMPbdV4kq0U-2" value="" style="shape=cylinder3;whiteSpace=wrap;html=1;boundedLbl=1;backgroundOutline=1;size=15;" vertex="1" parent="1">
          <mxGeometry x="377" y="526" width="60" height="80" as="geometry" />
        </mxCell>
        <mxCell id="8MJp4vxVLIMPbdV4kq0U-3" value="" style="group" vertex="1" connectable="0" parent="1">
          <mxGeometry x="382" y="532" width="50" height="20" as="geometry" />
        </mxCell>
        <mxCell id="8MJp4vxVLIMPbdV4kq0U-4" value="" style="verticalLabelPosition=bottom;verticalAlign=top;html=1;shape=mxgraph.basic.arc;startAngle=0.29895082563518965;endAngle=0.49834219596880786;shadow=0;strokeColor=#FF0000;" vertex="1" parent="8MJp4vxVLIMPbdV4kq0U-3">
          <mxGeometry width="50" height="20" as="geometry" />
        </mxCell>
        <mxCell id="8MJp4vxVLIMPbdV4kq0U-5" value="&lt;font style=&quot;color: rgb(255, 0, 0);&quot;&gt;q&lt;sub&gt;1&lt;/sub&gt;&lt;/font&gt;" style="text;html=1;align=center;verticalAlign=middle;resizable=0;points=[];autosize=1;strokeColor=none;fillColor=none;" vertex="1" parent="1">
          <mxGeometry x="403" y="546" width="40" height="30" as="geometry" />
        </mxCell>
        <mxCell id="8MJp4vxVLIMPbdV4kq0U-6" value="" style="ellipse;whiteSpace=wrap;html=1;aspect=fixed;strokeColor=light-dark(#0000FF,#EDEDED);" vertex="1" parent="1">
          <mxGeometry x="457" y="516" as="geometry" />
        </mxCell>
        <mxCell id="8MJp4vxVLIMPbdV4kq0U-7" value="" style="shape=mxgraph.arrows2.wedgeArrow;html=1;bendable=0;startWidth=1.7592592592592595;fillColor=#FF0000;defaultFillColor=invert;defaultGradientColor=invert;rounded=0;exitX=0.603;exitY=0.067;exitDx=0;exitDy=0;exitPerimeter=0;strokeColor=#FF0000;strokeWidth=1;entryX=0.694;entryY=-0.022;entryDx=0;entryDy=0;entryPerimeter=0;" edge="1" source="8MJp4vxVLIMPbdV4kq0U-5" target="8MJp4vxVLIMPbdV4kq0U-5" parent="1">
          <mxGeometry width="100" height="100" relative="1" as="geometry">
            <mxPoint x="424" y="550" as="sourcePoint" />
            <mxPoint x="426.95" y="545.48" as="targetPoint" />
          </mxGeometry>
        </mxCell>
        <mxCell id="8MJp4vxVLIMPbdV4kq0U-8" value="" style="ellipse;whiteSpace=wrap;html=1;aspect=fixed;strokeColor=light-dark(#0000FF,#EDEDED);" vertex="1" parent="1">
          <mxGeometry x="433" y="462" as="geometry" />
        </mxCell>
        <mxCell id="8MJp4vxVLIMPbdV4kq0U-9" value="&lt;font style=&quot;color: rgb(255, 0, 0);&quot;&gt;q&lt;sub&gt;2&lt;/sub&gt;&lt;/font&gt;" style="text;html=1;align=center;verticalAlign=middle;resizable=0;points=[];autosize=1;strokeColor=none;fillColor=none;fontStyle=1" vertex="1" parent="1">
          <mxGeometry x="342" y="479" width="40" height="30" as="geometry" />
        </mxCell>
        <mxCell id="8MJp4vxVLIMPbdV4kq0U-15" value="" style="endArrow=classic;startArrow=classic;html=1;rounded=0;strokeColor=#FF0000;fontStyle=1" edge="1" parent="1">
          <mxGeometry width="50" height="50" relative="1" as="geometry">
            <mxPoint x="377" y="519" as="sourcePoint" />
            <mxPoint x="377" y="470" as="targetPoint" />
          </mxGeometry>
        </mxCell>
        <mxCell id="8MJp4vxVLIMPbdV4kq0U-18" value="" style="endArrow=none;html=1;rounded=0;strokeWidth=3.1496;strokeColor=#000000;" edge="1" parent="1">
          <mxGeometry width="50" height="50" relative="1" as="geometry">
            <mxPoint x="406.89049911519703" y="543" as="sourcePoint" />
            <mxPoint x="407" y="510" as="targetPoint" />
          </mxGeometry>
        </mxCell>
        <mxCell id="8MJp4vxVLIMPbdV4kq0U-17" value="" style="shape=cube;whiteSpace=wrap;html=1;boundedLbl=1;backgroundOutline=1;darkOpacity=0.05;darkOpacity2=0.1;size=10;" vertex="1" parent="1">
          <mxGeometry x="392" y="469" width="30" height="50" as="geometry" />
        </mxCell>
        <mxCell id="8MJp4vxVLIMPbdV4kq0U-19" value="" style="endArrow=none;html=1;rounded=0;strokeWidth=3.1496;strokeColor=#000000;" edge="1" parent="1">
          <mxGeometry width="50" height="50" relative="1" as="geometry">
            <mxPoint x="440" y="440" as="sourcePoint" />
            <mxPoint x="407" y="473" as="targetPoint" />
            <Array as="points">
              <mxPoint x="407" y="440" />
            </Array>
          </mxGeometry>
        </mxCell>
        <mxCell id="oYmKpz-r1dHhYPgYdyJ2-1" value="" style="shape=cube;whiteSpace=wrap;html=1;boundedLbl=1;backgroundOutline=1;darkOpacity=0.05;darkOpacity2=0.1;size=10;rotation=90;" vertex="1" parent="1">
          <mxGeometry x="443" y="412" width="30" height="50" as="geometry" />
        </mxCell>
        <mxCell id="oYmKpz-r1dHhYPgYdyJ2-2" value="" style="endArrow=none;html=1;rounded=0;strokeWidth=3.1496;strokeColor=#000000;entryX=0;entryY=0.5;entryDx=0;entryDy=0;entryPerimeter=0;" edge="1" parent="1">
          <mxGeometry width="50" height="50" relative="1" as="geometry">
            <mxPoint x="520" y="480" as="sourcePoint" />
            <mxPoint x="477" y="438.86" as="targetPoint" />
            <Array as="points">
              <mxPoint x="520" y="439" />
            </Array>
          </mxGeometry>
        </mxCell>
        <mxCell id="oYmKpz-r1dHhYPgYdyJ2-3" value="" style="group;rotation=90;strokeColor=none;" vertex="1" connectable="0" parent="1">
          <mxGeometry x="505" y="470" width="30" height="40" as="geometry" />
        </mxCell>
        <mxCell id="oYmKpz-r1dHhYPgYdyJ2-4" value="" style="ellipse;whiteSpace=wrap;html=1;aspect=fixed;rotation=0;" vertex="1" parent="oYmKpz-r1dHhYPgYdyJ2-3">
          <mxGeometry x="10" width="10" height="10" as="geometry" />
        </mxCell>
        <mxCell id="oYmKpz-r1dHhYPgYdyJ2-5" value="" style="endArrow=none;html=1;rounded=0;entryX=0;entryY=1;entryDx=0;entryDy=0;" edge="1" parent="oYmKpz-r1dHhYPgYdyJ2-3" target="oYmKpz-r1dHhYPgYdyJ2-4">
          <mxGeometry width="50" height="50" relative="1" as="geometry">
            <mxPoint y="20" as="sourcePoint" />
            <mxPoint x="40" y="-10" as="targetPoint" />
          </mxGeometry>
        </mxCell>
        <mxCell id="oYmKpz-r1dHhYPgYdyJ2-6" value="" style="endArrow=none;html=1;rounded=0;entryX=1;entryY=1;entryDx=0;entryDy=0;" edge="1" parent="oYmKpz-r1dHhYPgYdyJ2-3" target="oYmKpz-r1dHhYPgYdyJ2-4">
          <mxGeometry width="50" height="50" relative="1" as="geometry">
            <mxPoint x="30" y="20" as="sourcePoint" />
            <mxPoint x="21" y="19" as="targetPoint" />
          </mxGeometry>
        </mxCell>
        <mxCell id="oYmKpz-r1dHhYPgYdyJ2-7" value="" style="endArrow=none;html=1;rounded=0;" edge="1" parent="oYmKpz-r1dHhYPgYdyJ2-3">
          <mxGeometry width="50" height="50" relative="1" as="geometry">
            <mxPoint y="40" as="sourcePoint" />
            <mxPoint y="20" as="targetPoint" />
          </mxGeometry>
        </mxCell>
        <mxCell id="oYmKpz-r1dHhYPgYdyJ2-8" value="" style="endArrow=none;html=1;rounded=0;" edge="1" parent="oYmKpz-r1dHhYPgYdyJ2-3">
          <mxGeometry width="50" height="50" relative="1" as="geometry">
            <mxPoint x="30" y="40" as="sourcePoint" />
            <mxPoint x="30" y="20" as="targetPoint" />
          </mxGeometry>
        </mxCell>
        <mxCell id="oYmKpz-r1dHhYPgYdyJ2-9" value="&lt;font style=&quot;color: rgb(255, 0, 0);&quot;&gt;q&lt;sub&gt;3&lt;/sub&gt;&lt;/font&gt;" style="text;html=1;align=center;verticalAlign=middle;resizable=0;points=[];autosize=1;strokeColor=none;fillColor=none;" vertex="1" parent="1">
          <mxGeometry x="437" y="382" width="40" height="30" as="geometry" />
        </mxCell>
        <mxCell id="oYmKpz-r1dHhYPgYdyJ2-10" value="" style="endArrow=classic;startArrow=classic;html=1;rounded=0;strokeColor=#FF0000;" edge="1" parent="1">
          <mxGeometry width="50" height="50" relative="1" as="geometry">
            <mxPoint x="430" y="410" as="sourcePoint" />
            <mxPoint x="480" y="410" as="targetPoint" />
          </mxGeometry>
        </mxCell>
      </root>
    </mxGraphModel>
  </diagram>
</mxfile>
